<svg id="bb897238-c2b0-440b-a404-fdf7bfd6c353" data-name="Calque 1" xmlns="http://www.w3.org/2000/svg" viewBox="0 0 800 450"><defs><style>.be07ddd1-90d4-4b21-b3d5-848c221b9089{fill:#577590;}</style></defs><title>logo</title><path class="be07ddd1-90d4-4b21-b3d5-848c221b9089" d="M254.34,245.75h61.27v-21h29.16V287H315.61V262.29H254.34V287H225.18V224.72h29.16Z"/><path class="be07ddd1-90d4-4b21-b3d5-848c221b9089" d="M743.58,238.18c-5-9.53-15.32-13.18-25.33-13.18H619.87v59.71L574.22,225H524.44l-45.65,59.43V272.66H388.65v-9.81h90.14v-14H388.65V239h90.14V225h-119v62H510.3l7.66-10.1h63.33L589,287h129.6c9.71,0,20.32-3.65,25.33-13.18C749.47,262.57,749.77,248.55,743.58,238.18Zm-215,24.67,17.09-22.15h8l16.79,22.15Zm190.28.84c-1.47,2.8-4.71,3.64-7.66,3.64H649.33V244.06h61.85c3,0,6.19.85,7.66,3.65C721.5,253,721.5,259.2,718.84,263.69Z"/><path class="be07ddd1-90d4-4b21-b3d5-848c221b9089" d="M56.7,276.3c3.24-29.71,18.85-86.06,49.49-86.06,17.08,0,31.22,22.7,37.7,42l13.84-7.57c-7.36-25.51-27.1-61.68-51.84-61.68-34.46,0-60.68,60.28-66.57,123.63Z"/><path class="be07ddd1-90d4-4b21-b3d5-848c221b9089" d="M105.9,202a10.11,10.11,0,1,0,10.6,10.09C116.5,206.5,111.49,202,105.9,202Z"/><path class="be07ddd1-90d4-4b21-b3d5-848c221b9089" d="M754.49,211.76a6.52,6.52,0,0,1,4.6,11.13,6.55,6.55,0,0,1-3.34,1.77,6.54,6.54,0,0,1-6.69-2.78,6.61,6.61,0,0,1-1.09-3.63,6.47,6.47,0,0,1,.5-2.49,6.68,6.68,0,0,1,1.41-2.11,6.53,6.53,0,0,1,2.12-1.4A6.25,6.25,0,0,1,754.49,211.76Zm0,11.74a5.24,5.24,0,0,0,5.25-6.17,5.33,5.33,0,0,0-1.4-2.71,5.26,5.26,0,0,0-2.67-1.46,5.24,5.24,0,0,0-5.4,2.18,5.29,5.29,0,0,0-.9,2.91,5,5,0,0,0,1.42,3.74,5,5,0,0,0,3.7,1.51ZM752,214.29h2.87c1.76,0,2.62.7,2.62,2.26a2,2,0,0,1-.09.81,2,2,0,0,1-.4.72,2,2,0,0,1-.66.49,2,2,0,0,1-.8.18l2.2,3.14h-1.53l-2.18-3.09h-.73v3.09H752Zm1.3,3.31h.9c1,0,2,0,2-1s-.89-1.08-1.74-1.08h-1.17Z"/></svg>