<svg id="e5ee8c08-4314-4957-8a78-416d8688571a" data-name="Calque 1" xmlns="http://www.w3.org/2000/svg" xmlns:xlink="http://www.w3.org/1999/xlink" viewBox="0 0 800 450"><defs><style>.b99fded2-dbb9-4a0d-ae61-8f7c283365fc{fill:#fff;}.be2749d4-a79d-404c-bda2-32e9447f2a97{fill:none;}.f686a0dd-1260-4c47-b7ad-a6762dbba323{clip-path:url(#ab230bc5-3a89-4ab2-9e14-5ecd268d38fc);}.a6942fd9-4962-41ba-a577-304dcacaa4b2{mask:url(#acf5da51-877e-4cc4-93e2-8424a761d441);}.ae9ca5f6-57f0-4ba6-8253-98546a4bd909{fill:#577590;}</style><clipPath id="ab230bc5-3a89-4ab2-9e14-5ecd268d38fc"><rect class="be2749d4-a79d-404c-bda2-32e9447f2a97" x="85" y="162" width="630" height="126"/></clipPath><mask id="acf5da51-877e-4cc4-93e2-8424a761d441" x="85" y="161.78" width="630.25" height="126.31" maskUnits="userSpaceOnUse"><g id="b67c87f1-f03f-4831-9f81-57962ca4ab20" data-name="mask0 893 67822"><path class="b99fded2-dbb9-4a0d-ae61-8f7c283365fc" d="M85,162H715V288H85Z"/></g></mask></defs><title>logo</title><g class="f686a0dd-1260-4c47-b7ad-a6762dbba323"><g class="a6942fd9-4962-41ba-a577-304dcacaa4b2"><path class="ae9ca5f6-57f0-4ba6-8253-98546a4bd909" d="M223.17,191.56H126.86V288H85.3V162H246.21c22.75,0,36.6,14.49,36.6,31.81V288H243.17V213.23c0-12.1-6.44-21.74-20.29-21.74"/><path class="ae9ca5f6-57f0-4ba6-8253-98546a4bd909" d="M467.86,288H303.92V193.81c0-19.42,11.77-32,35.7-32h161.5V263.44c0,13-12.07,24.27-33.26,24.27Zm-5.93-46.3V191h-99a16.45,16.45,0,0,0-6.61.85,16.21,16.21,0,0,0-5.7,3.4,15.77,15.77,0,0,0-3.79,5.36,15.36,15.36,0,0,0-1.24,6.41v51.3h96.31a18.56,18.56,0,0,0,7.26-.68,18.28,18.28,0,0,0,6.41-3.41A17.85,17.85,0,0,0,460,248.6,17.22,17.22,0,0,0,461.93,241.7Z"/><path class="ae9ca5f6-57f0-4ba6-8253-98546a4bd909" d="M664.92,207.36a3.77,3.77,0,0,0,4.22-.44l44.45-38.76a3.51,3.51,0,0,0,1.16-1.77,3.28,3.28,0,0,0-.09-2.1,3.42,3.42,0,0,0-1.31-1.67,3.59,3.59,0,0,0-2.06-.62H677.14a27.34,27.34,0,0,0-11.41,4.56l-39.78,24,24.59,14.92a19.85,19.85,0,0,1,4.6-.58,20.5,20.5,0,0,1,9.78,2.54"/><path class="ae9ca5f6-57f0-4ba6-8253-98546a4bd909" d="M640.47,210.93l-24.08-14.49L567,166.66a27.82,27.82,0,0,0-11.41-4.57H521.42a3.69,3.69,0,0,0-2.06.62,3.48,3.48,0,0,0-1.31,1.67,3.35,3.35,0,0,0-.09,2.1,3.47,3.47,0,0,0,1.16,1.77l61.27,53.4a4.69,4.69,0,0,1,1.34,1.5,4.78,4.78,0,0,1,.59,1.91,4.83,4.83,0,0,1-1.93,3.47l-61.27,53.4A3.51,3.51,0,0,0,518,283.7a3.39,3.39,0,0,0,.09,2.11,3.5,3.5,0,0,0,1.31,1.66,3.61,3.61,0,0,0,2.06.62h34.15A27.67,27.67,0,0,0,567,283.53c10.52-6.45,31.41-19,49.41-29.85l24.3-14.49a19.64,19.64,0,0,1,0-28.05"/><path class="ae9ca5f6-57f0-4ba6-8253-98546a4bd909" d="M650.69,164H582.17l34.3,20.72Z"/><path class="ae9ca5f6-57f0-4ba6-8253-98546a4bd909" d="M713.67,281.85l-44.45-39a3.79,3.79,0,0,0-4.23-.44,20.32,20.32,0,0,1-9.55,2.32,19.89,19.89,0,0,1-4.15-.43l-25,15.07,39.78,24.05A27.41,27.41,0,0,0,677.51,288h34.16a3.64,3.64,0,0,0,2.05-.62,3.43,3.43,0,0,0,.24-5.54"/><path class="ae9ca5f6-57f0-4ba6-8253-98546a4bd909" d="M582.17,285.92h68.52l-34.22-20.65Z"/></g></g></svg>