<?xml version="1.0" encoding="UTF-8" standalone="no"?>
<!-- Created with Inkscape (http://www.inkscape.org/) -->

<svg
   version="1.1"
   id="svg1"
   width="1024"
   height="534"
   viewBox="0 0 1024 534"
   sodipodi:docname="580b57fcd9996e24bc43c4f3.svg"
   inkscape:version="1.3 (0e150ed6c4, 2023-07-21)"
   xmlns:inkscape="http://www.inkscape.org/namespaces/inkscape"
   xmlns:sodipodi="http://sodipodi.sourceforge.net/DTD/sodipodi-0.dtd"
   xmlns="http://www.w3.org/2000/svg"
   xmlns:svg="http://www.w3.org/2000/svg">
  <defs
     id="defs1" />
  <sodipodi:namedview
     id="namedview1"
     pagecolor="#ffffff"
     bordercolor="#000000"
     borderopacity="0.25"
     inkscape:showpageshadow="2"
     inkscape:pageopacity="0.0"
     inkscape:pagecheckerboard="0"
     inkscape:deskcolor="#d1d1d1"
     inkscape:zoom="0.89111329"
     inkscape:cx="246.32109"
     inkscape:cy="446.07123"
     inkscape:window-width="2560"
     inkscape:window-height="1369"
     inkscape:window-x="5112"
     inkscape:window-y="4"
     inkscape:window-maximized="1"
     inkscape:current-layer="g1" />
  <g
     inkscape:groupmode="layer"
     inkscape:label="Image"
     id="g1">
    <path
       style="fill:#c8ab37;fill-opacity:1;stroke:none;stroke-width:0.859903;stroke-opacity:0"
       d="m 153.66423,487.97823 c -25.39678,-2.31932 -48.253,-11.13296 -68.167596,-26.28625 -12.472,-9.49011 -20.81843,-20.82895 -25.27403,-34.33543 -13.79563,-41.81928 10.64377,-104.71601 71.254386,-183.37867 8.57593,-11.13024 30.99553,-37.98106 36.94776,-44.25055 l 2.77686,-2.92487 -2.20066,4.27924 c -14.26387,27.73614 -21.91975,57.80507 -20.59048,80.87042 0.90731,15.74391 6.51234,31.89969 14.78017,42.60199 13.59149,17.59346 36.81637,29.72288 63.45058,33.13775 10.09687,1.29455 34.99673,0.60582 44.48261,-1.23038 3.64992,-0.70652 76.98846,-19.24421 162.97446,-41.19486 l 156.33833,-39.91028 -40.60856,-0.21724 -40.60857,-0.21724 -0.42304,-2.70764 c -0.39525,-2.52999 -2.37169,-77.84023 -2.32816,-88.713 0.0106,-2.71944 -0.27881,-4.66263 -0.6438,-4.31819 -0.36499,0.34443 -9.25344,21.9363 -19.75202,47.98194 l -19.08839,47.35569 -29.0129,0.22046 c -27.41427,0.20831 -28.97874,0.13925 -28.39369,-1.25351 0.72671,-1.73 88.71437,-224.345718 90.01073,-227.734257 l 0.87917,-2.298119 h 29.11279 c 16.01203,0 29.11279,0.143879 29.11279,0.319731 0,0.175852 -5.61636,14.183932 -12.48085,31.129072 -14.89334,36.764473 -15.08252,37.253583 -14.21282,36.745923 0.37561,-0.21919 14.00099,-15.640443 30.27873,-34.269423 l 29.596,-33.870884 88.2616,-0.02724 c 48.54388,-0.01496 88.26161,0.217377 88.26161,0.516317 0,0.496636 -10.22313,26.069477 -13.74439,34.381137 l -1.48979,3.5166 h -29.34992 -29.34993 l -9.20796,23.607953 c -5.06432,12.98437 -9.37582,24.07802 -9.5811,24.65255 -0.29323,0.82085 5.52257,1.0446 27.15113,1.0446 15.13843,0 27.52948,0.28204 27.53567,0.62676 0.009,0.34472 -3.6731,9.93414 -8.17625,21.30983 l -8.18767,20.68307 H 686.04956 658.102 l -10.39284,26.253 c -5.71608,14.43915 -10.60998,27.03702 -10.87534,27.99527 l -0.4824,1.74227 h 33.28431 c 27.52019,0 33.28423,0.19739 33.28423,1.1398 0,0.62689 -1.38157,4.64949 -3.07018,8.93913 -1.68861,4.28963 -2.97347,7.89071 -2.85516,8.00242 0.11821,0.1117 53.16277,-13.32072 117.87662,-29.84982 157.5332,-40.23682 144.6175,-37.08875 146.1659,-35.62638 1.1282,1.06559 0.9764,1.41923 -1.2203,2.84192 -1.3798,0.89367 -25.20464,10.86913 -52.944,22.16766 -27.73936,11.29854 -99.41044,40.5505 -159.26906,65.00437 -328.1194,134.04561 -450.00129,183.28639 -483.55857,195.35963 -46.66893,16.79051 -80.27612,22.93697 -110.38098,20.18769 z m 455.0579,-334.89414 c 22.70867,-57.138013 41.1484,-103.999726 40.9771,-104.137145 -0.17122,-0.13742 -19.82184,19.968972 -43.66795,44.680882 l -43.35658,44.930743 0.25058,12.82619 c 0.13777,7.0544 0.62319,24.29589 1.07878,38.31442 0.45551,14.01852 1.0979,35.19176 1.42759,47.05162 0.32959,11.85987 0.91491,21.26126 1.30069,20.89199 0.3857,-0.36927 19.2812,-47.42068 41.98979,-104.5587 z M 181.677,268.47339 c 1.39688,-3.56836 9.51385,-23.97452 18.03767,-45.34703 8.52381,-21.3725 27.84872,-69.88371 42.94424,-107.80267 15.09552,-37.918973 27.71813,-69.601675 28.05029,-70.406017 0.55886,-1.353207 2.86605,-1.462439 30.88838,-1.462439 16.65645,0 30.45879,0.164671 30.67186,0.365927 0.21315,0.201265 -1.10781,21.730466 -2.93551,47.842666 -1.82761,26.112203 -3.22962,48.980953 -3.11565,50.819453 0.17201,2.7743 3.63416,-5.25115 20.35971,-47.195453 11.0838,-27.79599 20.46643,-50.834716 20.85018,-51.197159 0.38375,-0.362451 13.45594,-0.55968 29.04926,-0.438297 l 28.35149,0.220703 -31.25806,78.553886 c -17.19194,43.20464 -37.89453,95.19437 -46.00584,115.53272 l -14.74778,36.97882 h -30.84671 -30.8467 v -3.66321 c 0,-2.01478 1.39361,-23.6818 3.0969,-48.14893 1.7033,-24.46713 3.07903,-45.66407 3.05717,-47.10432 -0.0239,-1.59958 -7.86816,17.05628 -20.15647,47.94 l -20.11692,50.55862 -28.93362,0.22032 -28.93361,0.22032 z m 159.34826,6.0805 c 0,-0.89548 91.34169,-229.902991 91.93054,-230.483679 0.35605,-0.351195 13.42532,-0.539223 29.0428,-0.41784 l 28.39529,0.220703 -15.28391,38.441263 c -19.93809,50.147383 -75.36001,189.277783 -76.1483,191.161723 -0.56523,1.35081 -2.79978,1.46244 -29.27419,1.46244 -15.76427,0 -28.66223,-0.17307 -28.66223,-0.38461 z"
       id="path1" />
  </g>
</svg>
