<?xml version="1.0" encoding="UTF-8" standalone="no"?>
<!-- Created with Inkscape (http://www.inkscape.org/) -->

<svg
   version="1.1"
   id="svg1"
   width="1024"
   height="534"
   viewBox="0 0 1024 534"
   sodipodi:docname="580b57fcd9996e24bc43c4f3.svg"
   inkscape:version="1.3 (0e150ed6c4, 2023-07-21)"
   xmlns:inkscape="http://www.inkscape.org/namespaces/inkscape"
   xmlns:sodipodi="http://sodipodi.sourceforge.net/DTD/sodipodi-0.dtd"
   xmlns="http://www.w3.org/2000/svg"
   xmlns:svg="http://www.w3.org/2000/svg">
  <defs
     id="defs1" />
  <sodipodi:namedview
     id="namedview1"
     pagecolor="#ffffff"
     bordercolor="#000000"
     borderopacity="0.25"
     inkscape:showpageshadow="2"
     inkscape:pageopacity="0.0"
     inkscape:pagecheckerboard="0"
     inkscape:deskcolor="#d1d1d1"
     inkscape:zoom="0.89111329"
     inkscape:cx="246.32109"
     inkscape:cy="446.07123"
     inkscape:window-width="2560"
     inkscape:window-height="1369"
     inkscape:window-x="5112"
     inkscape:window-y="4"
     inkscape:window-maximized="1"
     inkscape:current-layer="g1" />
  <g
     inkscape:groupmode="layer"
     inkscape:label="Image"
     id="g1">
    <path
       style="fill:#c8ab37;fill-opacity:1;stroke:none;stroke-width:0.77903;stroke-opacity:0"
       d="m 188.8379,466.72657 c -23.44483,-2.06206 -44.54436,-9.89809 -62.92836,-23.37058 -11.51342,-8.43747 -19.21836,-18.5186 -23.33151,-30.52695 -12.735332,-37.18069 9.82571,-93.10092 65.7779,-163.03832 7.9168,-9.89567 28.61327,-33.7682 34.10803,-39.34228 l 2.56343,-2.60044 -2.03152,3.80458 c -13.16757,24.65965 -20.23504,51.39334 -19.00793,71.90028 0.83757,13.9976 6.01181,28.36138 13.64419,37.87658 12.54687,15.642 33.98673,26.42602 58.57389,29.46212 9.32084,1.15095 32.30694,0.53862 41.06375,-1.09391 3.3694,-0.62815 71.07127,-17.10964 150.44855,-36.62553 l 144.32245,-35.48344 -37.48746,-0.19314 -37.48747,-0.19314 -0.39052,-2.40731 c -0.36488,-2.24937 -2.18941,-69.2062 -2.14923,-78.87296 0.01,-2.4178 -0.25738,-4.14545 -0.59431,-3.83922 -0.33694,0.30623 -8.54224,19.50313 -18.23392,42.65979 l -17.62129,42.103 -26.78302,0.196 c -25.30726,0.18521 -26.75149,0.12381 -26.21141,-1.11447 0.67086,-1.5381 81.89595,-199.461308 83.09267,-202.47399 l 0.8116,-2.043212 h 26.87524 c 14.78137,0 26.87523,0.12792 26.87523,0.284266 0,0.156347 -5.1847,12.610652 -11.52159,27.676242 -13.74867,32.686564 -13.92331,33.121414 -13.12045,32.670064 0.34674,-0.19487 12.9249,-13.9056 27.95156,-30.46826 l 27.32131,-30.113929 81.47797,-0.02422 c 44.81289,-0.0133 81.47799,0.193266 81.47799,0.459047 0,0.44155 -9.4374,23.177858 -12.68802,30.567592 l -1.37529,3.12654 h -27.09414 -27.09415 l -8.50025,20.98936 c -4.67509,11.54414 -8.65521,21.40728 -8.84472,21.91809 -0.27069,0.7298 5.09812,0.92873 25.06435,0.92873 13.97492,0 25.41361,0.25076 25.41933,0.55724 0.008,0.30648 -3.39079,8.83225 -7.54784,18.94615 l -7.55838,18.3889 h -25.79948 -25.79956 l -9.59407,23.34102 c -5.27675,12.83756 -9.79451,24.03808 -10.03948,24.89004 l -0.44532,1.54901 h 30.72614 c 25.40503,0 30.72606,0.1755 30.72606,1.01338 0,0.55735 -1.27538,4.13377 -2.83421,7.9476 -1.55883,3.81383 -2.74493,7.01547 -2.63572,7.11479 0.10913,0.0993 49.07678,-11.84318 108.81684,-26.53888 145.42549,-35.77375 133.50247,-32.97487 134.93186,-31.6747 1.04149,0.94739 0.90136,1.26181 -1.12651,2.52669 -1.27375,0.79455 -23.26746,9.66353 -48.87482,19.70883 -25.60736,10.0453 -91.76994,36.05264 -147.02793,57.79409 C 434.22761,394.26499 321.71333,438.04399 290.7352,448.77806 247.65316,463.70617 216.62896,469.17087 188.8379,466.72654 Z M 608.92089,168.97886 c 20.96333,-50.80027 37.98581,-92.464085 37.82768,-92.586261 -0.15806,-0.122178 -18.29837,17.754017 -40.31171,39.724881 l -40.02428,39.94703 0.23132,11.40351 c 0.12719,6.27193 0.5753,21.60099 0.99587,34.06459 0.4205,12.46359 1.01352,31.28829 1.31787,41.83266 0.30426,10.54437 0.84459,18.90296 1.20072,18.57465 0.35606,-0.32831 17.79928,-42.16078 38.76253,-92.96106 z M 214.69766,271.56919 c 1.28952,-3.17256 8.78264,-21.31527 16.65133,-40.31714 7.86869,-19.00186 25.70832,-62.13221 39.64363,-95.84521 13.9353,-33.713 25.58776,-61.881462 25.89439,-62.596587 0.51591,-1.203109 2.64577,-1.300225 28.51436,-1.300225 15.37626,0 28.11778,0.146406 28.31448,0.325338 0.19676,0.178941 -1.02267,19.32012 -2.7099,42.535964 -1.68714,23.21584 -2.98139,43.54799 -2.87618,45.18256 0.15879,2.46658 3.35484,-4.66869 18.7949,-41.96053 10.23192,-24.712864 18.89342,-45.19614 19.24767,-45.51838 0.35426,-0.322248 12.42174,-0.497601 26.81659,-0.389682 l 26.17245,0.196223 -28.85563,69.840699 c -15.8706,38.41238 -34.98202,84.63542 -42.46991,102.71784 l -13.6143,32.87713 h -28.47589 -28.47588 v -3.25689 c 0,-1.7913 1.2865,-21.05501 2.85888,-42.80825 1.57239,-21.75324 2.84238,-40.59901 2.8222,-41.87951 -0.0221,-1.42216 -7.26342,15.1644 -18.60728,42.6225 l -18.57077,44.95066 -26.70983,0.19588 -26.70983,0.19588 z m 147.10105,5.40605 c 0,-0.79615 84.32134,-204.40217 84.86493,-204.918448 0.32868,-0.312241 12.39347,-0.479413 26.81062,-0.371494 l 26.21288,0.196223 -14.10921,34.177369 c -18.40569,44.58504 -69.56798,168.2831 -70.29569,169.95808 -0.52178,1.20097 -2.58459,1.30022 -27.02423,1.30022 -14.55265,0 -26.4593,-0.15387 -26.4593,-0.34195 z"
       id="path1" />
  </g>
</svg>
