<?xml version="1.0" encoding="UTF-8" standalone="no"?>
<svg
   id="bbf0a799-ff5d-4ae9-84fd-cf4dd16663d6"
   data-name="Calque 1"
   viewBox="0 0 800 450"
   version="1.1"
   sodipodi:docname="BabolatOrange.svg"
   inkscape:version="1.3 (0e150ed6c4, 2023-07-21)"
   xmlns:inkscape="http://www.inkscape.org/namespaces/inkscape"
   xmlns:sodipodi="http://sodipodi.sourceforge.net/DTD/sodipodi-0.dtd"
   xmlns="http://www.w3.org/2000/svg"
   xmlns:svg="http://www.w3.org/2000/svg"
   xmlns:rdf="http://www.w3.org/1999/02/22-rdf-syntax-ns#"
   xmlns:cc="http://creativecommons.org/ns#"
   xmlns:dc="http://purl.org/dc/elements/1.1/">
  <sodipodi:namedview
     id="namedview12"
     pagecolor="#ffffff"
     bordercolor="#000000"
     borderopacity="0.25"
     inkscape:showpageshadow="2"
     inkscape:pageopacity="0.0"
     inkscape:pagecheckerboard="0"
     inkscape:deskcolor="#d1d1d1"
     inkscape:zoom="2.28125"
     inkscape:cx="400"
     inkscape:cy="225.09589"
     inkscape:window-width="2560"
     inkscape:window-height="1369"
     inkscape:window-x="5112"
     inkscape:window-y="4"
     inkscape:window-maximized="1"
     inkscape:current-layer="bbf0a799-ff5d-4ae9-84fd-cf4dd16663d6" />
  <defs
     id="defs1">
    <style
       id="style1">.b53008d0-3c02-4275-b1d4-a5aba64cc510{fill:none;}.ba2dc7ff-63cb-4937-b2bf-107618e0bf29{clip-path:url(#b9dd3727-126f-4110-8ef9-85c962129934);}.e2c18af3-a147-4861-8439-ce27d4b3e0eb{fill:#577590;}</style>
    <clipPath
       id="b9dd3727-126f-4110-8ef9-85c962129934">
      <rect
         class="b53008d0-3c02-4275-b1d4-a5aba64cc510"
         x="39"
         y="164.35"
         width="722"
         height="121.3"
         id="rect1" />
    </clipPath>
  </defs>
  <title
     id="title1">logo</title>
  <g
     class="ba2dc7ff-63cb-4937-b2bf-107618e0bf29"
     clip-path="url(#b9dd3727-126f-4110-8ef9-85c962129934)"
     id="g12"
     style="fill:#ff7f2a">
    <path
       class="e2c18af3-a147-4861-8439-ce27d4b3e0eb"
       d="M759.78,188.68a.65.65,0,0,0-.51-.27H699.4c-.25,0-.5.27-.63.54l-3.56,15.6c0,.27,0,.4.12.54a.67.67,0,0,0,.51.26h12.33l-13.35,58.83c0,.27,0,.4.13.54a.67.67,0,0,0,.51.26h22.25c.25,0,.5-.26.63-.53l13.22-59.1h24.15a.86.86,0,0,0,.64-.53l3.56-15.61A.81.81,0,0,0,759.78,188.68Z"
       id="path1"
       style="fill:#ff7f2a" />
    <path
       class="e2c18af3-a147-4861-8439-ce27d4b3e0eb"
       d="M624.16,188.68a.65.65,0,0,0-.51-.27H601.41c-.26,0-.51.27-.64.54l-17,75.23c0,.27,0,.4.13.54a.64.64,0,0,0,.51.26h22.24a.83.83,0,0,0,.63-.53l17-75.24A.86.86,0,0,0,624.16,188.68Z"
       id="path2"
       style="fill:#ff7f2a" />
    <path
       class="e2c18af3-a147-4861-8439-ce27d4b3e0eb"
       d="M697.75,211.22c-3.81-5.07-10.42-8-18-8H628.48c-.25,0-.5.27-.63.53L624.8,217c0,.27,0,.4.13.53a.61.61,0,0,0,.5.27H668.9c3.31,0,5.47.8,6.61,2.27s1.27,3.6.64,6.53H644.88c-14.11,0-21.22,2.41-27.2,9.21-2.54,2.93-5.08,11.6-5.08,15.07a12.26,12.26,0,0,0,3.3,8.94c3.18,3.34,8.52,5.2,15.13,5.2h60.25a.83.83,0,0,0,.63-.53l9-39.75A16.66,16.66,0,0,0,697.75,211.22Zm-26.94,39H645.52q-7.07,0-8.39-2a2.37,2.37,0,0,1-.26-2.14c1-4,3.81-4.54,7.89-4.54h28Z"
       id="path3"
       style="fill:#ff7f2a" />
    <path
       class="e2c18af3-a147-4861-8439-ce27d4b3e0eb"
       d="M590.1,224.83a16.64,16.64,0,0,0-2.93-13.74c-3.81-5.07-10.42-8-18-8H534c-12.07,0-20.84,7.47-23.77,19.87l-5.08,22.28a13.11,13.11,0,0,0,2.67,11.21,23,23,0,0,0,17.29,8.67h37a22.26,22.26,0,0,0,15.38-5.87,27.66,27.66,0,0,0,8-14Zm-22.76,4.8-2.16,9.47c-1.14,5.21-4.57,7.61-10.8,7.61H536.59c-3.56,0-6.49-1.2-8-3.2a6.64,6.64,0,0,1-1-5.47l2-8.81c1.28-5.33,5-8.27,10.81-8.27h17.41c3.69,0,6.87,1.2,8.39,3.34A5.69,5.69,0,0,1,567.34,229.63Z"
       id="path4"
       style="fill:#ff7f2a" />
    <path
       class="e2c18af3-a147-4861-8439-ce27d4b3e0eb"
       d="M504.81,211.22c-3.82-5.07-10.43-8-18.05-8H456.63L459.68,190c0-.26,0-.4-.12-.53a.68.68,0,0,0-.51-.27H436.68c-.26,0-.51.27-.64.54-2.41,10.53-4.83,21.21-7.11,31.61-3.18,14.14-6.49,28.68-9.79,43.09,0,.27,0,.4.13.53a.61.61,0,0,0,.5.27H479.9a22.25,22.25,0,0,0,15.37-5.87,27.66,27.66,0,0,0,8-14L508,225A18,18,0,0,0,504.81,211.22Zm-23.52,18.41-2.16,9.47c-1.14,5.21-4.57,7.61-10.8,7.61H446.72c1.91-8.54,3.81-17.21,5.85-25.75h19.32c3.68,0,6.86,1.2,8.39,3.47A5.67,5.67,0,0,1,481.29,229.63Z"
       id="path5"
       style="fill:#ff7f2a" />
    <path
       class="e2c18af3-a147-4861-8439-ce27d4b3e0eb"
       d="M422.19,211.22c-3.81-5.07-10.42-8-18.05-8H352.92c-.25,0-.51.27-.64.54l-3,13.2c0,.27,0,.4.13.54a.67.67,0,0,0,.51.26h43.47c3.3,0,5.46.8,6.61,2.27s1.27,3.6.63,6.54H369.32c-14.11,0-21.23,2.4-27.2,9.2a23.4,23.4,0,0,0-3.56,7.34c0-6-4.07-11.74-11.32-15.87,9.54-6.14,15.26-13.08,15.64-19.08A16.57,16.57,0,0,0,338.81,196c-4.32-4.8-11.69-7.47-20.59-7.47h-51.6c-.26,0-.51.27-.64.53l-17.16,75.11c0,.26,0,.4.13.53a.66.66,0,0,0,.51.27h53.63c9,0,16.66-1.47,22.63-4.54,5.34-2.67,9.15-6.4,11.31-11.2a7.15,7.15,0,0,0-.12,1.6,12.3,12.3,0,0,0,3.3,8.94c3.18,3.33,8.52,5.2,15.12,5.2h60.25c.26,0,.51-.27.64-.54l9-39.75A16.11,16.11,0,0,0,422.19,211.22ZM309.83,242.83c-1.4,4.41-6.35,7.07-13.22,7.07H280.09l3.43-15.2h17.41c3.94,0,7,1.2,8.39,3.2C310.34,239.23,310.47,240.83,309.83,242.83ZM317,211.48c-1.4,4.41-6.36,7.07-13.22,7.07H287.21l3.3-14.54h17.41c4.2,0,7.38,1.07,8.65,2.94C317.46,208,317.46,209.62,317,211.48Zm78.3,38.69H370q-7.05,0-8.39-2a2.35,2.35,0,0,1-.25-2.13c1-4,3.81-4.54,7.88-4.54h28Z"
       id="path6"
       style="fill:#ff7f2a" />
    <path
       class="e2c18af3-a147-4861-8439-ce27d4b3e0eb"
       d="M39.35,285.39h137a28.83,28.83,0,0,0,25.8-16.54L222,228.43H95.91Z"
       id="path7"
       style="fill:#ff7f2a" />
    <path
       class="e2c18af3-a147-4861-8439-ce27d4b3e0eb"
       d="M173.44,167.2a38.33,38.33,0,0,0-27.58,11.74l-29.49,29.75H230.51L250,167.07H173.44Z"
       id="path8"
       style="fill:#ff7f2a" />
    <path
       class="e2c18af3-a147-4861-8439-ce27d4b3e0eb"
       d="M203.31,279.92h-1.77l.12-1.2h5l-.13,1.2h-1.78l-.63,5.07h-1.53Z"
       id="path9"
       style="fill:#ff7f2a" />
    <path
       class="e2c18af3-a147-4861-8439-ce27d4b3e0eb"
       d="M212.46,282.59a16.7,16.7,0,0,1,.26-2.53,14.08,14.08,0,0,1-1,2.4l-1,2.4h-1.27l-.38-2.4a15.18,15.18,0,0,1-.25-2.54c-.13.8-.26,1.87-.38,2.67L208,285h-1.39l1.14-6.27h1.91l.38,2.14a12,12,0,0,1,.25,2.27c.26-.67.64-1.61.89-2.27l.89-2.14H214l-.38,6.27h-1.4Z"
       id="path10"
       style="fill:#ff7f2a" />
    <path
       class="e2c18af3-a147-4861-8439-ce27d4b3e0eb"
       d="M731.05,259h-1.78l.13-1.2h5l-.12,1.2h-1.78l-.64,5.07h-1.52Z"
       id="path11"
       style="fill:#ff7f2a" />
    <path
       class="e2c18af3-a147-4861-8439-ce27d4b3e0eb"
       d="M740.07,261.65a16.83,16.83,0,0,1,.26-2.54,13.74,13.74,0,0,1-1,2.4l-1,2.41h-1.15l-.38-2.41a15.13,15.13,0,0,1-.26-2.53c-.12.8-.25,1.87-.37,2.67l-.51,2.4h-1.4l1.14-6.27h1.91l.38,2.13a12.13,12.13,0,0,1,.25,2.27c.26-.67.64-1.6.9-2.27l.88-2.13h1.91l-.38,6.27h-1.4Z"
       id="path12"
       style="fill:#ff7f2a" />
  </g>
  <metadata
     id="metadata12">
    <rdf:RDF>
      <cc:Work
         rdf:about="">
        <dc:title>logo</dc:title>
      </cc:Work>
    </rdf:RDF>
  </metadata>
</svg>
