<?xml version="1.0" encoding="UTF-8" standalone="no"?>
<svg
   id="b836d320-2a96-431f-aa6f-2300de270a8a"
   data-name="Calque 1"
   viewBox="0 0 800 450"
   version="1.1"
   sodipodi:docname="WilsonOrange.svg"
   inkscape:version="1.3 (0e150ed6c4, 2023-07-21)"
   xmlns:inkscape="http://www.inkscape.org/namespaces/inkscape"
   xmlns:sodipodi="http://sodipodi.sourceforge.net/DTD/sodipodi-0.dtd"
   xmlns="http://www.w3.org/2000/svg"
   xmlns:svg="http://www.w3.org/2000/svg"
   xmlns:rdf="http://www.w3.org/1999/02/22-rdf-syntax-ns#"
   xmlns:cc="http://creativecommons.org/ns#"
   xmlns:dc="http://purl.org/dc/elements/1.1/">
  <sodipodi:namedview
     id="namedview5"
     pagecolor="#ffffff"
     bordercolor="#000000"
     borderopacity="0.25"
     inkscape:showpageshadow="2"
     inkscape:pageopacity="0.0"
     inkscape:pagecheckerboard="0"
     inkscape:deskcolor="#d1d1d1"
     inkscape:zoom="2.28125"
     inkscape:cx="423.23288"
     inkscape:cy="225.09589"
     inkscape:window-width="2560"
     inkscape:window-height="1369"
     inkscape:window-x="5112"
     inkscape:window-y="4"
     inkscape:window-maximized="1"
     inkscape:current-layer="b836d320-2a96-431f-aa6f-2300de270a8a" />
  <defs
     id="defs1">
    <style
       id="style1">.a5c47112-b624-4ae6-b5d9-d2994f1ca5e4{fill:#577590;}</style>
  </defs>
  <title
     id="title1">logo</title>
  <path
     class="a5c47112-b624-4ae6-b5d9-d2994f1ca5e4"
     d="M125.57,153.35H69.87V178.6H86.21v76.5s0,47.53,50.5,47.53c0,0,21.54.74,34.17-17.08,0,0,10.4,17.08,31.19,17.08,0,0,19.31,2.23,31.94-9.65,0,0,26.73-17.83,26.73-73.53,0,0-.74-41.59-10.39-66.1h-46V178.6h14.11a154.31,154.31,0,0,1,7.43,46.79,75.37,75.37,0,0,1-7.43,32.68S213.21,270,202.81,270c0,0-9.65-.74-8.91-11.88V153.35H138.2V178.6h16.34v78s0,14.11-14.11,14.11c0,0-14.11,0-14.11-14.11V153.35"
     id="path1"
     style="fill:#ff7f2a" />
  <path
     class="a5c47112-b624-4ae6-b5d9-d2994f1ca5e4"
     d="M294.91,164.49s23,0,23,17.82c0,0,0,17.83-23,17.83,0,0-23,0-23-17.83C271.88,182.31,271.88,164.49,294.91,164.49Z"
     id="path2"
     style="fill:#ff7f2a" />
  <path
     class="a5c47112-b624-4ae6-b5d9-d2994f1ca5e4"
     d="M267.43,203.85h45.3V264s0,6.69,6.69,6.69A17.72,17.72,0,0,0,332,262.52s6.69-8.91,6.69-16.34V173.39s.74-26.73,36.39-26.73c0,0,34.91-1.49,34.91,33.42,0,0,2.22,16.34-11.14,39.36,0,0-5.95,10.4-12.63,20.8a164.46,164.46,0,0,1-9.66,14.11,13.86,13.86,0,0,0-3.71,8.91s-.74,8.91,8.91,8.91a19.53,19.53,0,0,0,14.11-7.42,58.18,58.18,0,0,0,14.12-23,97.57,97.57,0,0,0,8.17-37.87h33.42a19.93,19.93,0,0,0,1.48,6.68s1.49,5.2,8.17,14.11c0,0,9.66,13.37,11.89,18.57,0,0,7.42,10.4,7.42,23.76,0,0,0,13.37-9.65,22.29,0,0-10.4,12.62-25.25,12.62a47.35,47.35,0,0,1-20.06-5.2s-11.14-5.94-16.34-13.37a3.24,3.24,0,0,0-2.22-.74l-2.23.74s-6.69,7.43-14.11,11.14A45.13,45.13,0,0,1,367,301.14s-12.63,0-20.05-7.43c0,0-6.69-5.2-8.17-11.88l-1.49-.74-1.48.74a88.07,88.07,0,0,1-13.37,11.88s-8.17,7.43-22.28,7.43c0,0-12.63,0-19.31-6.69,0,0-7.43-6.68-7.43-16.34V225.38s0-5.2-7.43-5.2V203.85Zm158.19,51.24c-1.48,3.72-3.71,8.17-3.71,8.17l-.74,2.23a3.28,3.28,0,0,0,.74,2.23,11,11,0,0,0,4.46,4.45c2.22,2.23,6.68,2.23,6.68,2.23a8.63,8.63,0,0,0,7.43-4.45,13,13,0,0,0,3-7.43c0-2.23-2.23-5.94-2.23-5.94-1.49-3-4.46-8.92-4.46-8.92-1.48-3-3.71-6.68-3.71-6.68-.74-2.23-1.49-1.49-1.49-1.49l-1.48,2.23A112.51,112.51,0,0,1,425.62,255.09Zm-51.24-34.16,1.48-1.49C382.55,209.79,387,192.7,387,192.7a51.18,51.18,0,0,0,1.49-11.88,24.5,24.5,0,0,0-1.49-8.17c-2.23-4.45-5.2-4.45-5.2-4.45-3.71,0-6.68,5.19-6.68,5.19-3,4.46-3,12.63-3,12.63V218.7C372.89,222.41,374.38,220.93,374.38,220.93Z"
     id="path3"
     style="fill:#ff7f2a" />
  <path
     class="a5c47112-b624-4ae6-b5d9-d2994f1ca5e4"
     d="M484.29,252.11s.75-23.77,14.86-35.65c0,0,14.11-14.12,35.65-14.12,0,0,22.28,0,34.16,12.63a33.51,33.51,0,0,1,5.2,6.68s1.49,1.49,2.23,0c0,0,7.43-8.16,11.88-11.14,0,0,9.66-8.17,20.05-8.17,0,0,8.92,0,13.37,4.46,0,0,5.94,4.46,8.92,10.4,0,0,1.48,2.23,3.71,0a51.37,51.37,0,0,1,10.4-8.91,38.94,38.94,0,0,1,21.53-6.69s11.15.74,16.34,5.94c0,0,9.66,7.43,9.66,17.83v53.47s0,6.69,5.94,6.69h5.94v16.34H672.94s-18.57,0-18.57-20.8V243.19s0-8.17-9.65-8.17c0,0-11.14,0-11.14,9.66v57.19H595.7V243.19s0-5.2-4.46-5.2a14.58,14.58,0,0,0-6.68,3.72s-2.23,1.48-.74,4.45a50.52,50.52,0,0,1,.74,8.92s0,21.53-13.37,34.16a52.07,52.07,0,0,1-35.65,14.11s-22.28,0-34.91-12.62C500.63,289.24,484.29,275.87,484.29,252.11Zm49.76,24.5s6,0,8.92-4.45c0,0,3-5.2,3-20.05-.75-14.86-3-20.06-3-20.06-2.23-5.2-8.92-4.45-8.92-4.45s-6.68,0-8.91,4.45c0,0-3,5.2-3,20.06.74,14.85,3,20.05,3,20.05C527.37,276.61,534.05,276.61,534.05,276.61Z"
     id="path4"
     style="fill:#ff7f2a" />
  <path
     class="a5c47112-b624-4ae6-b5d9-d2994f1ca5e4"
     d="M720.48,282.89a10.1,10.1,0,1,1-3.85.76A10,10,0,0,1,720.48,282.89Zm0,18.14a8.12,8.12,0,0,0,7.58-4.86,8.09,8.09,0,0,0-1.63-8.85A8.07,8.07,0,0,0,714,288.43a8.17,8.17,0,0,0-1.39,4.49,7.93,7.93,0,0,0,.5,3.12,7.79,7.79,0,0,0,1.69,2.65,7.93,7.93,0,0,0,2.62,1.77A7.79,7.79,0,0,0,720.48,301Zm-3.82-14.23h4.44c2.71,0,4,1.09,4,3.49a3.18,3.18,0,0,1-.13,1.26,2.93,2.93,0,0,1-.62,1.1,3.06,3.06,0,0,1-1,.76,3.12,3.12,0,0,1-1.23.29l3.38,4.85h-2.35l-3.37-4.77h-1.13v4.77h-2Zm2,5.12h1.39c1.61,0,3.09-.08,3.09-1.63,0-1.37-1.37-1.67-2.69-1.67h-1.81Z"
     id="path5"
     style="fill:#ff7f2a" />
  <metadata
     id="metadata5">
    <rdf:RDF>
      <cc:Work
         rdf:about="">
        <dc:title>logo</dc:title>
      </cc:Work>
    </rdf:RDF>
  </metadata>
</svg>
