<?xml version="1.0" encoding="UTF-8" standalone="no"?>
<svg
   id="ee3028b4-cb1e-4173-9091-5c31eefffb62"
   data-name="Calque 1"
   viewBox="0 0 800 450"
   version="1.1"
   sodipodi:docname="starvieOr.svg"
   inkscape:version="1.3 (0e150ed6c4, 2023-07-21)"
   xmlns:inkscape="http://www.inkscape.org/namespaces/inkscape"
   xmlns:sodipodi="http://sodipodi.sourceforge.net/DTD/sodipodi-0.dtd"
   xmlns="http://www.w3.org/2000/svg"
   xmlns:svg="http://www.w3.org/2000/svg"
   xmlns:rdf="http://www.w3.org/1999/02/22-rdf-syntax-ns#"
   xmlns:cc="http://creativecommons.org/ns#"
   xmlns:dc="http://purl.org/dc/elements/1.1/">
  <sodipodi:namedview
     id="namedview3"
     pagecolor="#ffffff"
     bordercolor="#000000"
     borderopacity="0.25"
     inkscape:showpageshadow="2"
     inkscape:pageopacity="0.0"
     inkscape:pagecheckerboard="0"
     inkscape:deskcolor="#d1d1d1"
     inkscape:zoom="2.28125"
     inkscape:cx="400"
     inkscape:cy="225.09589"
     inkscape:window-width="2560"
     inkscape:window-height="1369"
     inkscape:window-x="5112"
     inkscape:window-y="4"
     inkscape:window-maximized="1"
     inkscape:current-layer="ee3028b4-cb1e-4173-9091-5c31eefffb62" />
  <defs
     id="defs1">
    <style
       id="style1">.aa1ce6e3-5374-4d5a-a544-e037e61c0ba8{fill:#577590;fill-rule:evenodd;}</style>
  </defs>
  <title
     id="title1">logo</title>
  <path
     class="aa1ce6e3-5374-4d5a-a544-e037e61c0ba8"
     d="M65.68,292.24l-3,.8c13.41-41.07,11-68-23.73-76l2.64-2a1.73,1.73,0,0,1,.72-.35,1.66,1.66,0,0,1,.8,0c33.87,5.94,48.26-13.41,62.57-53.41a2.18,2.18,0,0,1,1.52-1.52l2.9-.8c-14.21,42.41-10.46,69.09,25.52,77l-3.4,2.5a1.66,1.66,0,0,1-.69.34,1.87,1.87,0,0,1-.78,0C97,232.61,81.64,251.7,67.38,290.81a2.21,2.21,0,0,1-.66.94A2.27,2.27,0,0,1,65.68,292.24Z"
     id="path1"
     style="fill:#c8ab37" />
  <path
     class="aa1ce6e3-5374-4d5a-a544-e037e61c0ba8"
     d="M228.63,240.08l.54-.72H180.23a13,13,0,0,1-4.47-.67,4.89,4.89,0,0,1-2.46-1.83,4.48,4.48,0,0,1-.62-3,14.41,14.41,0,0,1,2.95-6.39l6.88-9.7a15.37,15.37,0,0,1,8.94-6.84,45,45,0,0,1,15.33-2h65.83a2.17,2.17,0,0,1,.72,0,1.35,1.35,0,0,1,.4,1.83l-6.39,8.94a1.37,1.37,0,0,1-.51.53,1.32,1.32,0,0,1-.7.19H212.36a20.86,20.86,0,0,0-5.72.71,10.71,10.71,0,0,0-3.84,2l-3.13,4.16h46.48q6.84,0,8.94,2.9a7.18,7.18,0,0,1-1.34,8.49l-7,9.66c-4.47,7.33-13.4,10-30.21,10H155.83a1.45,1.45,0,0,1-.73-.22,1.42,1.42,0,0,1-.48-.58,1.3,1.3,0,0,1-.1-.75,1.37,1.37,0,0,1,.32-.69l7.87-8.93a1.29,1.29,0,0,1,.47-.4,1.39,1.39,0,0,1,.6-.14h55.56a10.27,10.27,0,0,0,3.26-.81,8.2,8.2,0,0,0,2.55-1.74c1.37-1.46,2.48-2.74,3.35-3.84Zm189.28,0,.53-.72H378.62l-4.47,5.9q.68,1.17,5.5,1.17h28.92a10.83,10.83,0,0,0,3.26-.81,8.55,8.55,0,0,0,2.55-1.74c1.37-1.46,2.48-2.74,3.35-3.85Zm8.67-12.65,4.06-5.32a2,2,0,0,0-.89-.89,7,7,0,0,0-3.26-.58H370.4a1.41,1.41,0,0,1-.7-.19,1.46,1.46,0,0,1-.5-.52,1.34,1.34,0,0,1-.15-.71,1.29,1.29,0,0,1,.23-.68l6.35-8.94a1.26,1.26,0,0,1,.5-.47,1.37,1.37,0,0,1,.66-.16h54a61.45,61.45,0,0,1,19.31,2.33q7.23,2.53,7.55,7.91a1.41,1.41,0,0,1-.22.85l-20.34,28.29q-6.3,10-31.28,10H370q-22.12,0-22.12-8.13a6,6,0,0,1,.27-1.79,9.43,9.43,0,0,1,.76-1.83l10.28-14.26a10.54,10.54,0,0,1,5.09-3.75,19,19,0,0,1,6.84-1.12h55.42Zm84.11-6.84h26.82a1.27,1.27,0,0,0,.63-.17,1.3,1.3,0,0,0,.48-.45L540.1,211a1.71,1.71,0,0,0-1.07-2.15H490.49a42.8,42.8,0,0,0-15.55,2.33,17.9,17.9,0,0,0-9.26,7.46L445.93,246.2l-7.2,9.61a1.33,1.33,0,0,0-.26.68,1.34,1.34,0,0,0,1.34,1.47h21.27a1.6,1.6,0,0,0,.64-.17,1.41,1.41,0,0,0,.48-.46l8.44-11.75L487,223.23a10.42,10.42,0,0,1,3.8-1.92,20.45,20.45,0,0,1,5.72-.72Zm-193.48,0h41.48a1.32,1.32,0,0,0,.67-.18,1.28,1.28,0,0,0,.49-.49L366,211a1.39,1.39,0,0,0,.24-.68,1.35,1.35,0,0,0-.16-.71,1.31,1.31,0,0,0-.5-.52,1.4,1.4,0,0,0-.69-.19H309.79l11.36-16.35a1.46,1.46,0,0,0,.21-.48,1.35,1.35,0,0,0,0-.53,1.28,1.28,0,0,0-.19-.49,1.19,1.19,0,0,0-.36-.38,1.36,1.36,0,0,0-.76-.23H299.56a1.4,1.4,0,0,0-.67.18,1.38,1.38,0,0,0-.49.5l-19,26.63-20.51,28.61a4.88,4.88,0,0,0-.63,2,7.82,7.82,0,0,0,4.47,6.84A26.52,26.52,0,0,0,274,257.87h30.79a1.69,1.69,0,0,0,.54-.12,1.31,1.31,0,0,0,.44-.33l6.21-8.67a1.33,1.33,0,0,0,.36-.68,1.35,1.35,0,0,0-.07-.77,1.36,1.36,0,0,0-.49-.6,1.29,1.29,0,0,0-.73-.23h-21.9a10.6,10.6,0,0,1-4.47-.54,1.66,1.66,0,0,1-.57-.34,1.57,1.57,0,0,1-.37-.55l16.09-22.12,2.32-2.55h15.06Z"
     id="path2"
     style="fill:#c8ab37" />
  <path
     class="aa1ce6e3-5374-4d5a-a544-e037e61c0ba8"
     d="M656.88,190.47h21.23a1.28,1.28,0,0,1,.71.21,1.31,1.31,0,0,1,.61,1.3,1.33,1.33,0,0,1-.29.68l-7.38,8.94a1.28,1.28,0,0,1-.47.39,1.26,1.26,0,0,1-.6.14H651.2a1.28,1.28,0,0,1-.68-.2,1.36,1.36,0,0,1-.48-.53,1.26,1.26,0,0,1-.14-.69,1.38,1.38,0,0,1,.23-.68l6.79-9.56ZM565.44,239l45.23-29.77a1.3,1.3,0,0,1,.84-.31H632a1.36,1.36,0,0,1,.77.27,1.39,1.39,0,0,1,.47.67,1.32,1.32,0,0,1,0,.81,1.35,1.35,0,0,1-.47.66l-68,46.44a1.41,1.41,0,0,1-.81.27H541.21a1.41,1.41,0,0,1-.88-.5,1.34,1.34,0,0,1-.28-1l6.12-46.3a1.35,1.35,0,0,1,1.35-1.3h22.34a1.24,1.24,0,0,1,.49.2,1.27,1.27,0,0,1,.37.36,1.46,1.46,0,0,1,.21.48,1.35,1.35,0,0,1,0,.53ZM698,227.43H687.63l3.13-4.16a10.53,10.53,0,0,1,3.84-2,20.5,20.5,0,0,1,5.72-.72h28.25c3,0,5.4,0,3.35,2.91l-3,3.93Zm-19,12h54.48a23.26,23.26,0,0,0,9.25-1.7,16.46,16.46,0,0,0,6.7-5.23l9.21-12.56c2.21-3.36,2.83-6,1.88-7.95s-3.43-2.94-7.42-3H694.46a44.92,44.92,0,0,0-15.32,2,15.34,15.34,0,0,0-8.94,6.84l-20.47,28.56a10.09,10.09,0,0,0-.76,1.83,6,6,0,0,0-.27,1.79q0,8.13,22.12,8.13h60a1.33,1.33,0,0,0,.64-.17,1.38,1.38,0,0,0,.48-.45l6.35-8.94a1.32,1.32,0,0,0,.23-.69,1.49,1.49,0,0,0-.16-.72,1.3,1.3,0,0,0-.52-.52,1.39,1.39,0,0,0-.72-.17H680.57q-4.83,0-5.5-1.21l4.11-5.63Zm-12.47-28.52a1.33,1.33,0,0,0,.21-.47,1.36,1.36,0,0,0,0-.53,1.45,1.45,0,0,0-.18-.49,1.34,1.34,0,0,0-.37-.38,1.29,1.29,0,0,0-.8-.27H644.14a1.29,1.29,0,0,0-.67.18,1.35,1.35,0,0,0-.49.49l-33.16,46.52a1.39,1.39,0,0,0-.24.68,1.37,1.37,0,0,0,.15.69,1.29,1.29,0,0,0,.48.53,1.36,1.36,0,0,0,.68.21h21.05a1.47,1.47,0,0,0,.64-.18,1.38,1.38,0,0,0,.48-.45Z"
     id="path3"
     style="fill:#c8ab37" />
  <metadata
     id="metadata3">
    <rdf:RDF>
      <cc:Work
         rdf:about="">
        <dc:title>logo</dc:title>
      </cc:Work>
    </rdf:RDF>
  </metadata>
</svg>
