<svg id="bcbca587-8685-4290-a373-f63d2f9ba656" data-name="Calque 1" xmlns="http://www.w3.org/2000/svg" xmlns:xlink="http://www.w3.org/1999/xlink" viewBox="0 0 800 450"><defs><style>.afd2521e-af59-4ff1-aaaf-dc41337efdd1{fill:none;}.bba2e7d2-7f90-4525-a809-bb963caf3a53{clip-path:url(#b2623fa9-be31-4732-bbc6-4001e118fc17);}.fe3b3832-adcc-47ae-b351-d13f828013ae{fill:#577590;}</style><clipPath id="b2623fa9-be31-4732-bbc6-4001e118fc17"><rect class="afd2521e-af59-4ff1-aaaf-dc41337efdd1" x="39" y="160.54" width="722" height="128.93"/></clipPath></defs><title>logo</title><g class="bba2e7d2-7f90-4525-a809-bb963caf3a53"><path class="fe3b3832-adcc-47ae-b351-d13f828013ae" d="M760.72,216.62a30.21,30.21,0,0,0-10.31-15.1c-7.74-5.9-16.58-7.37-25.79-6.64a40.41,40.41,0,0,1-6.63.74c-39.78,0-79.2,0-119,.37-4.42,0-8.84-.74-13.27-1.11a52.32,52.32,0,0,0-21.36,1.85c-.74.36-1.84,0-2.21,0a36.08,36.08,0,0,0-16.58-1.85,24.71,24.71,0,0,1-5.15.74H525.33a1.92,1.92,0,0,1-1.47-.74,41.4,41.4,0,0,0-14.37-13.26A47.18,47.18,0,0,0,487,176.1a55.89,55.89,0,0,0-33.89,9.58c-3.31,2.21-6.63,5.15-9.94,7.73-5.53-4-12.16-5.52-19.53-5.52v-1.11c-.36-7.37-4.78-12.89-11.78-14.73-.37,0-1.11-.74-1.48-1.11a16.77,16.77,0,0,0-9.94-8.1c-4.42-1.48-9.21-1.11-14-.37A27,27,0,0,0,373.57,168c-.74.37-.74,1.11-.74,1.85.37,2.57.37,5.52.74,8.1a43.25,43.25,0,0,0-4.06,1.84c-3.68,1.84-6.63,4.42-7.36,8.47-.37,1.48-.74,1.85-2.21,1.85a31.71,31.71,0,0,0-15.11,4.78c-.36.37-1.1.37-1.84.37H326.42c1.47-5.89,2.94-12.15,4.05-18.05h-50.1c-1.84,7-3.32,14.37-4.79,21.37-18.42-7.37-35.36-5.16-51.2,5.89a34.82,34.82,0,0,0-8.47-5.89c-8.48-4-17.69-4.79-26.9-4a24.69,24.69,0,0,0-5.15.73c1.47-5.89,2.58-11.78,4-17.68H137.44c-.37,2.21-1.1,4.42-1.47,7-.37-.37-.74-.37-1.11-.74-2.57-1.1-5.52-2.58-8.1-3.68-6.26-2.21-12.52-2.58-19.15-2.58H64.88c-7.37,33.15-15.11,66.31-22.48,99.09H96.55A103.93,103.93,0,0,0,115,275.19v1.47h50.47c0-.73.37-1.1.37-1.47h.37A33.1,33.1,0,0,0,185,277.77a88.8,88.8,0,0,1,14-.74h33.89c.74,0,1.84-.37,2.58,0a44.17,44.17,0,0,0,16.94,1.11,103.35,103.35,0,0,1,15.11-.74h81.77c.37,0,.74.37,1.11.74,3.32,5.52,8.47,7.73,14.73,7.73a36.49,36.49,0,0,0,15.11-3.68,37.78,37.78,0,0,1,12.52-3.69c4.79-.36,9.95-.36,14.74-.36a44.29,44.29,0,0,1,14,2.21,30.28,30.28,0,0,0,11.42,1.1c5.53-.74,9.58-3.68,11.06-9.21a11.58,11.58,0,0,0,.36-3.68,5.1,5.1,0,0,0,1.48,1.1,5,5,0,0,0,1.47,1.11c10.31,7,21.73,8.84,33.89,7.73,1.11,0,2.58-.36,3.68-.36,1.11-.37,2.58-.37,3.69-.74s2.21.37,3.31.37h49c.73-3.32,1.47-6.63,2.21-10.32,8.47,7.74,18.05,11.05,29.1,11.42,10.68.37,21-1.84,30.2-8.1l1.11,6.63H749.67c.74-4,1.47-8.47,2.58-12.53,2.94-14.73,5.52-29.46,8.47-43.83C760.72,219.2,761.09,217.72,760.72,216.62ZM126,230.25c4.06,4.05,4.79,8.84,3,14-2.58,8.47-8.47,13.26-16.94,15.1a67.64,67.64,0,0,1-12.16,1.1H64.51c5.15-22.1,9.94-44.2,15.1-66.3h29.47c4.42,0,8.84.37,12.89,2.21,5.9,2.21,9.21,6.63,9.58,12.89s-2.21,11.42-8.1,14.37c-1.85.73-3.32,1.47-5.16,2.21C121.24,226.93,123.81,228,126,230.25Zm11,30.2c5.16-22.1,10-44.2,15.11-66.3h14c-5.16,22.1-10,44.2-15.11,66.3Zm76.63-29.83c-1.11,6.26-2.58,12.15-4.06,18.41a19.78,19.78,0,0,0,.37,10.32v.74H196c-.36-1.48-.73-3.32-1.1-5.16a1.29,1.29,0,0,1-.74.37c-5.52,4.79-11.79,7-19.15,5.15A13.59,13.59,0,0,1,164.7,245c.74-7,4.79-11,12.16-12.89,4-.74,8.47-1.11,12.52-1.84a73.12,73.12,0,0,0,8.84-1.48c.37,0,.74-.73,1.11-1.1a3.32,3.32,0,0,0,.37-1.84c.73-3.32-.74-5.9-4-6.26a20,20,0,0,0-6.64,0c-2.94.36-4,1.84-5.15,4.78-4.42-.36-9.21-.73-13.63-1.1,1.84-4.42,4.42-7.74,8.47-9.95A27.71,27.71,0,0,1,189.75,210c5.16-.37,10.32-.37,15.1,1.1,4.79,1.84,8.48,4.79,8.85,9.95C214.8,225.46,214.06,228,213.7,230.62ZM252,250.51a14.82,14.82,0,0,0,6.26-6.26c.37-.37.37-1.11.73-1.48,4.43.74,9.21,1.48,13.63,2.21-1.84,4.79-4.42,8.84-8.47,11.79-8.84,6.26-18.42,7.37-28,3-5.9-2.58-9.21-8.11-9.95-14.37-.74-8.1.74-15.84,5.89-22.47,4.79-6.26,11-9.21,18.79-10.68,5.16-.74,10-.74,15.1,1.47,6.27,2.58,9.95,7.37,10.69,14.37-4.42.37-8.84.73-13.26,1.47a4.65,4.65,0,0,1-.37-2.21c-1.11-4.05-4.42-5.89-8.48-5.89A12.75,12.75,0,0,0,244.27,228a28.6,28.6,0,0,0-4.05,15.47C239.85,250.14,245.74,253.46,252,250.51Zm81-34.26c-5.16,4.42-10.32,8.47-15.48,12.52-.73.74-.73,1.11-.36,1.85,3.68,9.57,7,19.15,10.31,28.73,0,.37,0,.37.37.74H315c-.74,0-1.11-.37-1.48-1.11l-6.63-19.89c0-.37-.37-.74-.37-1.11a88.22,88.22,0,0,1-9.21,7.37c-.36.37-.36.74-.73,1.47-1.11,4.06-1.84,8.11-2.95,12.53,0,.37,0,.74-.37.74h-14c5.16-22.11,9.95-44.21,15.11-66.31h14c-2.58,11.42-5.16,22.47-7.74,34.26,1.11-1.11,2.21-1.84,3.32-2.95,4.78-4.42,9.57-8.47,14.36-12.52a1.36,1.36,0,0,1,1.11-.37H337.1A14.32,14.32,0,0,1,333.05,216.25Zm102.4,1.11c-1.47,4.42-2.94,8.47-4.42,12.89l-6.63,17.68a18.35,18.35,0,0,0,.37,13.26c.37.74.37,1.11.74,1.84,0,.74,0,1.11-.74.74-7.74-2.21-15.47-2.58-23.58-2.21a63.07,63.07,0,0,0-18.41,2.21A100.52,100.52,0,0,0,368,269.29c-.74.37-1.47.37-2.21.74v-2.21c.74-3.31.37-6.63,0-9.94-.37-4.06-2.21-7.37-4.42-10.69-2.58-4.42-5.16-8.47-7.37-12.89A40.13,40.13,0,0,1,350,223.25c-.74-5.53.37-9.95,5.16-13.26,3-1.84,6.26-2.21,9.58-2.21,3.68,0,7,.37,10.68.37a20.4,20.4,0,0,0,11.42-3,7.81,7.81,0,0,0,4.42-5.16,4.43,4.43,0,0,0-1.11-3.68,2.35,2.35,0,0,0-3.31.37c-1.48,1.1-2.58,2.57-4.05,3.68-4.06-3.68-3.69-11.79-.74-15.1,0,.73.37,1.1.37,1.84.37,1.1,1.1,2.58,2.21,2.95a2.23,2.23,0,0,0,2.94,0,2.4,2.4,0,0,0,.74-3.32c-.74-1.47-2.21-2.58-3.31-3.68l-.74-.74c4.05-3.32,14-3.32,16.21,0-.74.74-1.84,1.11-2.58,1.84a8.94,8.94,0,0,0-1.47,2.58,2.28,2.28,0,0,0,.73,2.58,1.78,1.78,0,0,0,2.58,0,34,34,0,0,0,3.32-3.68c.36-.37.36-.74.73-.74.37.37.74.74.74,1.1a28.46,28.46,0,0,1,.74,5.53c0,2.21-.37,4.79-1.85,6.63,0,.37-.36.37-.36.74a.36.36,0,0,0-.37.36l-1.11-2.21c-.37-.73-.73-1.47-1.47-1.47-1.84-1.1-3.68,0-3.68,2.58-.37,4.79,2.57,7.74,7.36,8.47a67.52,67.52,0,0,0,17.32-.37c2.94-.36,5.89-.73,8.84.74C435.08,207.78,436.93,213.3,435.45,217.36ZM504,247.19a33.21,33.21,0,0,1-26.89,14.37,32.68,32.68,0,0,1-14.74-2.21,22.28,22.28,0,0,1-14-16.21c-3-13.26-.74-25.78,7.73-36.84,5.53-7.36,13.63-11.42,22.84-12.89a35.11,35.11,0,0,1,18.42,1.47,22.55,22.55,0,0,1,15.47,19.53l-14,1.1c-.37-.73-.37-1.47-.73-1.84-1.85-5.52-5.53-8.84-11.42-8.84-9.21-.37-15.84,4-20.26,12.16a38.3,38.3,0,0,0-4.06,19.15,14.87,14.87,0,0,0,10,13.63c4.42,1.47,9.21.37,13.26-1.84a18.83,18.83,0,0,0,7.74-9.21c.36-.74.36-1.1.73-1.84,2.58.37,5.16.74,7.37,1.1,2.58.37,4.79.74,7.37,1.11C507.28,241.67,505.81,244.61,504,247.19Zm41.26-24.31a15.42,15.42,0,0,0-11.42,9.21c-2.21,4.42-3.32,9.21-4.42,14-1.11,4.42-1.85,9.21-2.95,13.63a1.11,1.11,0,0,1-.37.73h-14c3.69-16.2,7.37-32,11-47.88h13.27c-.74,2.94-1.11,5.52-1.85,8.1,1.85-1.84,3.32-3.68,4.79-5.16,5.16-4.42,10.68-5.52,17.32-2.94-1.85,3.68-3.69,7-5.16,10.31C548.91,222.88,547.07,222.51,545.23,222.88Zm48.62,32.42c-4.42,4.05-10.31,5.89-16.21,6.26a36.44,36.44,0,0,1-14-1.47c-8.1-2.95-12.89-8.85-13.63-17.69a27.2,27.2,0,0,1,3.69-17.68c4-7.36,10.68-11.42,18.79-12.89,2.21-.37,4.42-.37,6.63-.74a31.93,31.93,0,0,1,11.78,2.21c7.37,2.95,11.79,8.48,12.53,16.58C604.9,240.19,601.59,248.67,593.85,255.3Zm70.36,4.05a1.7,1.7,0,0,1-1.84,1.1H650.21c-.74-9.94-1.84-20.26-2.58-30.57-1.1,2.21-2.21,4.05-3.31,6.26-4.06,7.74-8.11,15.47-11.79,23.21a1.7,1.7,0,0,1-1.84,1.1H618.9c-2.21-16.2-4.42-32-6.26-47.88h12.52c1.11,10.68,2.58,21,3.68,32,1.48-2.57,2.58-5.15,3.69-7.36,4.05-7.74,8.11-15.84,11.79-23.58,0-.37.73-.74,1.1-.74h12.16c.73,10.69,1.11,21,1.47,32a1.13,1.13,0,0,0,.37-.73c5.16-9.95,10-19.9,15.1-30.21.37-.74.74-1.11,1.47-1.11h13.27c-1.47,2.95-3,5.53-4.42,8.48C678.21,233.56,671.21,246.46,664.21,259.35Zm78.46-33.15c-1.47,7.36-3.31,14.73-5.16,22.1-.73,4-1.84,7.73-2.94,11.79h-14a69.48,69.48,0,0,0,1.84-8.48c1.84-8.1,3.68-15.84,5.53-23.94,1.1-4.79-2.21-8.47-7.37-7A16.38,16.38,0,0,0,708,232.46c-1.84,5.89-2.94,11.79-4.42,17.68-.73,3.32-1.47,7-2.21,10.31h-14c3.68-16.2,7.37-32,10.68-47.88h13.63c-.37,1.84-.74,4.05-1.11,5.89a31.47,31.47,0,0,1,4.42-3c4.79-3.31,10.32-4.42,16.21-4C739.36,211.83,744.51,218.46,742.67,226.2Z"/><path class="fe3b3832-adcc-47ae-b351-d13f828013ae" d="M390.51,242.77c0,1.48-.36,1.84-1.84,1.84a8.33,8.33,0,0,1-2.95-.36c-3.31-.74-5.52.36-7.36,3.31a22.44,22.44,0,0,1-2.58,3.68c-1.11,1.11-1.84,1.11-2.95,0a60.11,60.11,0,0,1-5.89-7.73,82.66,82.66,0,0,1-9.21-16.95c-1.84-4.42.37-11.42,4.79-12.89a12.48,12.48,0,0,1,7.37-.37c3.31.74,6.63,1.48,9.94,1.11a9.14,9.14,0,0,0,2.95-.37v4.05a15.92,15.92,0,0,0,4.79,10.32,11,11,0,0,1,2.94,7.36Z"/><path class="fe3b3832-adcc-47ae-b351-d13f828013ae" d="M428.82,218.83a28.2,28.2,0,0,1-1.1,7.73A84.82,84.82,0,0,1,421.08,245a2.86,2.86,0,0,0-.73,1.48c-1.48,2.21-2.21,2.21-4.42.73-.74-.73-1.84-1.47-2.58-2.21-3-2.94-5.9-2.94-9.58-1.1a15.71,15.71,0,0,1-3.68,1.47c-.74.37-1.48,0-1.84-1.1-.37-1.48-.37-2.95-.74-4.06h.37c-.74-4.42,1.1-7.36,3.68-10.68a24.14,24.14,0,0,0,5.16-14c0-1.1.37-1.47,1.47-1.47a81.1,81.1,0,0,1,9.21-1.84c2.21-.37,4.42-.74,6.63,0C426.61,212.57,428.82,215.51,428.82,218.83Z"/><path class="fe3b3832-adcc-47ae-b351-d13f828013ae" d="M113.5,243.88A10.48,10.48,0,0,1,105,249.4a59.51,59.51,0,0,1-8.11.37H81.45c1.11-5.89,2.58-11.42,4-17.31,7,0,14.37.37,21.37.37a8.69,8.69,0,0,1,2.95.73A6.76,6.76,0,0,1,113.5,243.88Z"/><path class="fe3b3832-adcc-47ae-b351-d13f828013ae" d="M114.24,217.72a14.18,14.18,0,0,1-7.37,2.95c-1.47,0-3,.37-4.42.37H87.72c1.1-5.16,2.21-10.32,3.68-15.47h18a4.65,4.65,0,0,1,2.21.37c2.58.73,4.42,1.84,4.79,4.42C117.55,213.3,116.45,215.88,114.24,217.72Z"/><path class="fe3b3832-adcc-47ae-b351-d13f828013ae" d="M582.8,248.67c-4.79,4.42-12.52,3.68-16.21-1.11-1.84-2.21-2.21-4.79-2.21-7.37.37-5.15,1.48-10.31,5.16-14.36a12,12,0,0,1,12.52-4.42,9.39,9.39,0,0,1,8.11,8.47C590.54,237.25,588.33,243.51,582.8,248.67Z"/><path class="fe3b3832-adcc-47ae-b351-d13f828013ae" d="M198.22,238a37.33,37.33,0,0,1-2.58,7.74c-1.84,4.05-8.1,7-12.52,5.89-2.58-.73-4.05-2.21-4.42-4.42-.37-2.58.74-4.79,3.32-5.52a31.6,31.6,0,0,1,8.47-2.21A56.88,56.88,0,0,1,198.22,238Z"/></g></svg>