<svg id="a6ca8b94-d951-4534-9a90-d1fd1d513297" data-name="Calque 1" xmlns="http://www.w3.org/2000/svg" xmlns:xlink="http://www.w3.org/1999/xlink" viewBox="0 0 800 450"><defs><style>.bfb73e85-76af-477c-933b-902a88f9b1d5{fill:#fff;}.b1630c26-4712-4bd9-a9ea-f5d35bb8cc8e{fill:none;}.a06f62c6-cbc2-4a2b-ae70-ed13a03d8aca{clip-path:url(#f56d2400-e348-440d-a626-afe446829d84);}.edbcaa0c-42b9-40ce-b93d-54922657fad1{fill:#577590;}.be4e70c4-8b6c-4769-b3a7-55acbba9b8cf{mask:url(#f429f942-4283-4c4c-af01-774d6c7745d5);}.bcd2b838-0be8-4851-8214-b64c1545e640{mask:url(#e54cfa39-7b88-4dcb-a87a-598ebfdc5453);}.a3a295db-3525-4d62-8a8f-37d32b5a1c23{mask:url(#b5e0f108-906f-48b0-aee0-80192cbc90f4);}.e975a2c1-e560-4fbd-a7f4-c5de7197ef0d{mask:url(#b2bdbc12-4506-40fe-a206-14dae1ffbf87);}.b646f6de-e59f-445d-b912-b0d81a6308cd{mask:url(#afe77d78-037e-4921-b0ed-cfe7a8af5c77);}.bbfe7a6a-0b67-461a-8a22-0375faeddde2{mask:url(#f532adeb-715b-4f13-a598-5f1f38a29eb7);}.f6b1809d-f595-44be-8e3c-aa0e4390f579{mask:url(#a908c7f7-ee0b-47f3-ad4f-af9a34bae475);}.aec36075-31bd-4855-a6d0-8e6c446a7b13{mask:url(#aef4d7d8-1907-4b97-a3a1-f1205eb2b772);}</style><clipPath id="f56d2400-e348-440d-a626-afe446829d84"><rect class="b1630c26-4712-4bd9-a9ea-f5d35bb8cc8e" x="40" y="169.55" width="724.71" height="110.89"/></clipPath><mask id="f429f942-4283-4c4c-af01-774d6c7745d5" x="186.22" y="190.68" width="118.13" height="67.63" maskUnits="userSpaceOnUse"><g id="a2003786-abe6-4cff-b422-66be617875b5" data-name="mask0 4 290"><path class="bfb73e85-76af-477c-933b-902a88f9b1d5" d="M272,207.81c5.16,0,14.83-.47,14.79,8.72a12.19,12.19,0,0,1-.39,2.82L282.91,233c-.5,2-2.81,7.94-8.76,8.17h-55.9c-6,0-14-.39-14-8.56a16,16,0,0,1,.82-4.5l3.33-12.91c.31-1.13,1.92-7.43,8.25-7.43H272Zm-74.67,2.54s-5.09,20.26-5.75,22.73c-2,7.59,4,20.14,22.92,20.22h59.69c11-.35,17.56-7.63,19.4-14.16l4-15.8c.59-2.27,1.61-5.4,1.69-8.14.11-8.25-5-19.44-22.11-19.44h-56.6C209.73,195.76,200.3,199.4,197.33,210.35Z"/></g></mask><mask id="e54cfa39-7b88-4dcb-a87a-598ebfdc5453" x="412.5" y="190.68" width="124.62" height="67.67" maskUnits="userSpaceOnUse"><g id="a0fb66aa-6fbe-491f-9d8d-4b55b6b5a491" data-name="mask1 4 290"><path class="bfb73e85-76af-477c-933b-902a88f9b1d5" d="M441.41,207.81h52.5c13.84,0,20.49,2.46,23,6.49,0,0,6.06,8.69-4.23,19.29a23.06,23.06,0,0,1-7.35,4.3,42.22,42.22,0,0,1-8.49,2,169.6,169.6,0,0,1-20.69,1.33h-43.3Zm-9.23-12.09L417.51,253.3h58.32c10-.08,20.42-.16,27.11-1.45a44.58,44.58,0,0,0,11.19-3.52,29.67,29.67,0,0,0,9.78-7.63c13.73-18.85,5.94-34.42,5.94-34.42-4.1-8.13-14.27-10.56-27.53-10.56Z"/></g></mask><mask id="b5e0f108-906f-48b0-aee0-80192cbc90f4" x="654.91" y="195.72" width="104.75" height="57.62" maskUnits="userSpaceOnUse"><g id="a8a233bf-86ea-4be0-8281-a5334f1841f5" data-name="mask2 4 290"><path class="bfb73e85-76af-477c-933b-902a88f9b1d5" d="M759.66,195.72H654.91v57.62H759.66Z"/></g></mask><mask id="b2bdbc12-4506-40fe-a206-14dae1ffbf87" x="654.87" y="194.74" width="104.83" height="59.46" maskUnits="userSpaceOnUse"><g id="e32165f5-af21-42c6-8fc8-9e0bc89e38f2" data-name="mask3 4 290"><path class="bfb73e85-76af-477c-933b-902a88f9b1d5" d="M759.7,194.74H654.87V254.2H759.7Z"/></g></mask><mask id="afe77d78-037e-4921-b0ed-cfe7a8af5c77" x="649.86" y="190.68" width="114.81" height="67.71" maskUnits="userSpaceOnUse"><g id="b7543dc9-6424-4cc8-8430-dbac0da66c25" data-name="mask4 4 290"><path class="bfb73e85-76af-477c-933b-902a88f9b1d5" d="M733.73,195.72H671.1a7.73,7.73,0,0,0-7.43,5.32l-8.76,35.28a21,21,0,0,0,3.87,7.16,17.24,17.24,0,0,0,4.89,4.27c9.7,5.82,24.64,5.67,40.68,5.55h46.12l8.25-33H731.93l-2.5,9.7h14.2l-2.86,11.22H690.31s-15.49,1.14-22.92-6.57L673.68,210a2.63,2.63,0,0,1,2.12-2.11h83.63a10.27,10.27,0,0,0,.23-1.92c0-2.35-.7-5.59-4.85-8.14-3.13-1.91-9.16-2.07-16-2.07Z"/></g></mask><mask id="f532adeb-715b-4f13-a598-5f1f38a29eb7" x="535.13" y="190.68" width="118.13" height="67.63" maskUnits="userSpaceOnUse"><g id="e2c0ca88-c6b3-4b6a-a573-281266ebc298" data-name="mask5 4 290"><path class="bfb73e85-76af-477c-933b-902a88f9b1d5" d="M621,207.81c5.17,0,14.83-.47,14.79,8.72a11.67,11.67,0,0,1-.39,2.82L631.87,233c-.51,2-2.82,7.94-8.76,8.17h-55.9c-6,0-14-.39-14-8.56a15.65,15.65,0,0,1,.82-4.5l3.32-12.91c.32-1.13,1.92-7.43,8.26-7.43H621Zm-74.67,2.54s-5.08,20.26-5.75,22.73c-2,7.59,4,20.14,22.93,20.22h59.69c11-.35,17.56-7.63,19.4-14.16l4-15.8c.58-2.27,1.64-5.4,1.68-8.14.12-8.25-5-19.44-22.1-19.44h-56.6C558.68,195.76,549.26,199.4,546.28,210.35Z"/></g></mask><mask id="a908c7f7-ee0b-47f3-ad4f-af9a34bae475" x="288.12" y="190.71" width="73.3" height="67.59" maskUnits="userSpaceOnUse"><g id="a0392ec9-a4ad-4015-9f4b-746699223206" data-name="mask6 4 290"><path class="bfb73e85-76af-477c-933b-902a88f9b1d5" d="M339,220.64l-45.81,32.58h21.36S346.09,231,355,224.55c1.09-.78,1.29-1.1,1.4-1.68.08-.35.12-.9-.62-1.76-5-5.67-23.51-25.35-23.51-25.35h-17L339,220.68Z"/></g></mask><mask id="aef4d7d8-1907-4b97-a3a1-f1205eb2b772" x="356.76" y="190.75" width="68.26" height="67.59" maskUnits="userSpaceOnUse"><g id="f6c8ec76-bb10-4868-a089-af04f6f5a9c1" data-name="mask7 4 290"><path class="bfb73e85-76af-477c-933b-902a88f9b1d5" d="M398.7,195.8s-26.95,19.09-36.26,25.78a1.61,1.61,0,0,0-.32,2.23c.28.35,27.31,29.49,27.31,29.49H406.6l-26.76-29.14L420,195.8H398.7Z"/></g></mask></defs><title>logo</title><g class="a06f62c6-cbc2-4a2b-ae70-ed13a03d8aca"><path class="edbcaa0c-42b9-40ce-b93d-54922657fad1" d="M99.38,225,62.06,179.92H82L119.33,225,82,270h-20ZM40,169.55,85.92,225,40,280.45H86.7l46-55.59L86.86,169.55Z"/><path class="edbcaa0c-42b9-40ce-b93d-54922657fad1" d="M132.36,169.55l-15.77,19,6.77,8.18,22.49-27.23Z"/><path class="edbcaa0c-42b9-40ce-b93d-54922657fad1" d="M164.9,169.55l-32.16,39.31,6.58,8.06,38.76-47.37Z"/><path class="edbcaa0c-42b9-40ce-b93d-54922657fad1" d="M132.74,241.17l32.78,39.28H179.1L139.51,233Z"/><path class="edbcaa0c-42b9-40ce-b93d-54922657fad1" d="M116.59,261.36l15.8,19.09h13.46l-22.53-27.23Z"/><g class="be4e70c4-8b6c-4769-b3a7-55acbba9b8cf"><path class="edbcaa0c-42b9-40ce-b93d-54922657fad1" d="M304.35,190.68H186.22v67.63H304.35Z"/></g><g class="bcd2b838-0be8-4851-8214-b64c1545e640"><path class="edbcaa0c-42b9-40ce-b93d-54922657fad1" d="M537.13,190.68H412.5v67.67H537.13Z"/></g><g class="a3a295db-3525-4d62-8a8f-37d32b5a1c23"><g class="e975a2c1-e560-4fbd-a7f4-c5de7197ef0d"><g class="b646f6de-e59f-445d-b912-b0d81a6308cd"><path class="edbcaa0c-42b9-40ce-b93d-54922657fad1" d="M764.67,190.68H649.86v67.71H764.67Z"/></g></g></g><g class="bbfe7a6a-0b67-461a-8a22-0375faeddde2"><path class="edbcaa0c-42b9-40ce-b93d-54922657fad1" d="M653.26,190.68H535.13v67.63H653.26Z"/></g><g class="f6b1809d-f595-44be-8e3c-aa0e4390f579"><path class="edbcaa0c-42b9-40ce-b93d-54922657fad1" d="M361.42,190.71h-73.3v67.6h73.3Z"/></g><g class="aec36075-31bd-4855-a6d0-8e6c446a7b13"><path class="edbcaa0c-42b9-40ce-b93d-54922657fad1" d="M425,190.75H356.76v67.6H425Z"/></g></g></svg>