<?xml version="1.0" encoding="UTF-8" standalone="no"?>
<!-- Created with Inkscape (http://www.inkscape.org/) -->

<svg
   version="1.1"
   id="svg1"
   width="1024"
   height="534"
   viewBox="0 0 1024 534"
   sodipodi:docname="Nike.svg"
   inkscape:version="1.3 (0e150ed6c4, 2023-07-21)"
   xmlns:inkscape="http://www.inkscape.org/namespaces/inkscape"
   xmlns:sodipodi="http://sodipodi.sourceforge.net/DTD/sodipodi-0.dtd"
   xmlns="http://www.w3.org/2000/svg"
   xmlns:svg="http://www.w3.org/2000/svg">
  <defs
     id="defs1" />
  <sodipodi:namedview
     id="namedview1"
     pagecolor="#ffffff"
     bordercolor="#000000"
     borderopacity="0.25"
     inkscape:showpageshadow="2"
     inkscape:pageopacity="0.0"
     inkscape:pagecheckerboard="0"
     inkscape:deskcolor="#d1d1d1"
     inkscape:zoom="0.89111329"
     inkscape:cx="246.32109"
     inkscape:cy="446.07123"
     inkscape:window-width="2560"
     inkscape:window-height="1369"
     inkscape:window-x="5112"
     inkscape:window-y="4"
     inkscape:window-maximized="1"
     inkscape:current-layer="g1" />
  <g
     inkscape:groupmode="layer"
     inkscape:label="Image"
     id="g1">
    <path
       style="fill:#577590;fill-opacity:1.0;stroke:none;stroke-width:0.717992;stroke-opacity:0"
       d="m 208.7449,446.57801 c -21.90216,-1.87496 -41.61334,-9 -58.78767,-21.25008 -10.75584,-7.67192 -17.95379,-16.83835 -21.7963,-27.75715 -11.89734,-33.80717 9.17918,-84.65359 61.44972,-148.24534 7.39587,-8.99781 26.73051,-30.70431 31.86372,-35.77264 l 2.39475,-2.36448 -1.89784,3.45937 c -12.30115,22.42221 -18.90357,46.73026 -17.75721,65.37654 0.78246,12.72755 5.61623,25.78807 12.7464,34.43993 11.72128,14.22274 31.75041,24.0283 54.71973,26.78892 8.70752,1.04652 30.18114,0.48975 38.36175,-0.99466 3.14769,-0.57115 66.39479,-15.55722 140.54904,-33.30238 l 134.82603,-32.26391 -35.02078,-0.17562 -35.0208,-0.17561 -0.36483,-2.18889 c -0.34087,-2.04528 -2.04534,-62.9269 -2.0078,-71.71657 0.01,-2.19843 -0.24045,-3.76932 -0.55521,-3.49087 -0.31476,0.27844 -7.98015,17.73354 -17.03413,38.78913 l -16.4618,38.28286 -25.0207,0.17821 c -23.64204,0.16841 -24.99124,0.11258 -24.4867,-1.01335 0.62671,-1.39853 76.50719,-181.363552 77.62517,-184.102882 l 0.7582,-1.85783 h 25.10685 c 13.80875,0 25.10684,0.11632 25.10684,0.25848 0,0.14216 -4.84355,11.46644 -10.76347,25.165092 -12.84401,29.7208 -13.00716,30.1162 -12.25712,29.7058 0.32392,-0.17718 12.07444,-12.6439 26.11234,-27.70378 l 25.52357,-27.381592 76.11672,-0.022 c 41.8642,-0.0121 76.11673,0.17573 76.11673,0.4174 0,0.40149 -8.81641,21.074862 -11.85314,27.794102 l -1.2848,2.84286 h -25.31135 -25.31135 l -7.94093,19.08493 c -4.36747,10.4967 -8.0857,19.46493 -8.26274,19.92939 -0.25288,0.66358 4.76267,0.84446 23.41512,0.84446 13.05536,0 23.74139,0.22801 23.74674,0.50668 0.008,0.27867 -3.16769,8.03087 -7.05119,17.22711 l -7.06105,16.72042 h -24.10187 -24.10195 l -8.96278,21.22322 c -4.92954,11.67276 -9.15003,21.85702 -9.37888,22.63168 l -0.41602,1.40846 h 28.70436 c 23.73338,0 28.70429,0.15959 28.70429,0.92144 0,0.50678 -1.19147,3.7587 -2.64772,7.22649 -1.45626,3.46778 -2.56432,6.37893 -2.4623,6.46924 0.10196,0.0903 45.84754,-10.76861 101.6567,-24.13093 135.85649,-32.52788 124.71801,-29.98295 126.05335,-28.80075 0.97296,0.86143 0.84204,1.14732 -1.0524,2.29744 -1.18993,0.72245 -21.73646,8.78672 -45.65885,17.92058 -23.9224,9.13386 -85.73147,32.78147 -137.35349,52.55025 C 437.98797,380.69113 332.87713,420.49792 303.93736,430.25806 263.69012,443.8317 234.70731,448.80057 208.7449,446.57802 Z M 601.18643,175.8459 c 19.58395,-46.19101 35.48634,-84.074542 35.33862,-84.185622 -0.14766,-0.1111 -17.09434,16.143142 -37.6592,36.120512 l -37.39069,36.32251 0.2161,10.36883 c 0.11882,5.70286 0.53745,19.64107 0.93034,30.97381 0.39284,11.33273 0.94684,28.4494 1.23116,38.03705 0.28424,9.58765 0.78902,17.18784 1.12171,16.88932 0.33264,-0.29853 16.62809,-38.33541 36.21196,-84.52641 z m -368.28335,93.28198 c 1.20468,-2.88471 8.20475,-19.38127 15.55568,-36.65904 7.35093,-17.27776 24.01671,-56.49476 37.03508,-87.14887 13.01835,-30.65412 23.90409,-56.266762 24.19053,-56.917002 0.48197,-1.09395 2.47168,-1.18226 26.63812,-1.18226 14.36451,0 26.26763,0.13313 26.45139,0.29582 0.18381,0.16271 -0.95538,17.567152 -2.53159,38.676542 -1.57612,21.1094 -2.78521,39.59675 -2.68693,41.08301 0.14834,2.24277 3.1341,-4.24508 17.5582,-38.15332 9.55866,-22.47058 17.65023,-41.095352 17.98117,-41.388352 0.33095,-0.29301 11.60439,-0.45245 25.05206,-0.35433 l 24.45031,0.17842 -26.95694,63.503832 c -14.82631,34.9271 -32.6802,76.95618 -39.67538,93.39793 l -12.71849,29.89409 h -26.60217 -26.60217 v -2.96138 c 0,-1.62877 1.20185,-19.14463 2.67077,-38.92413 1.46893,-19.7795 2.65535,-36.91534 2.63649,-38.07965 -0.0207,-1.29312 -6.78548,13.78849 -17.38291,38.75523 l -17.34882,40.87214 -24.95232,0.17811 -24.95232,0.1781 z m 137.4218,4.91554 c 0,-0.72391 78.773,-185.856122 79.28082,-186.325552 0.30705,-0.28391 11.57799,-0.43591 25.04648,-0.33779 l 24.48808,0.17842 -13.18083,31.076352 c -17.19459,40.5397 -64.9904,153.01425 -65.67023,154.53725 -0.48745,1.092 -2.41453,1.18225 -25.24603,1.18225 -13.59509,0 -24.71829,-0.13992 -24.71829,-0.31093 z"
       id="path1" />
  </g>
</svg>
