<?xml version="1.0" encoding="UTF-8" standalone="no"?>
<!-- Created with Inkscape (http://www.inkscape.org/) -->

<svg
   version="1.1"
   id="svg1"
   width="1024"
   height="534"
   viewBox="0 0 1024 534"
   sodipodi:docname="580b57fcd9996e24bc43c4f3.svg"
   inkscape:version="1.3 (0e150ed6c4, 2023-07-21)"
   xmlns:inkscape="http://www.inkscape.org/namespaces/inkscape"
   xmlns:sodipodi="http://sodipodi.sourceforge.net/DTD/sodipodi-0.dtd"
   xmlns="http://www.w3.org/2000/svg"
   xmlns:svg="http://www.w3.org/2000/svg">
  <defs
     id="defs1" />
  <sodipodi:namedview
     id="namedview1"
     pagecolor="#ffffff"
     bordercolor="#000000"
     borderopacity="0.25"
     inkscape:showpageshadow="2"
     inkscape:pageopacity="0.0"
     inkscape:pagecheckerboard="0"
     inkscape:deskcolor="#d1d1d1"
     inkscape:zoom="0.89111329"
     inkscape:cx="246.32109"
     inkscape:cy="446.07123"
     inkscape:window-width="2560"
     inkscape:window-height="1369"
     inkscape:window-x="5112"
     inkscape:window-y="4"
     inkscape:window-maximized="1"
     inkscape:current-layer="g1" />
  <g
     inkscape:groupmode="layer"
     inkscape:label="Image"
     id="g1">
    <path
       style="fill:#c8ab37;fill-opacity:1;stroke:none;stroke-opacity:0"
       d="M 109.08261,533.86403 C 80.380109,531.08866 54.548859,520.54199 32.042109,502.4091 17.946719,491.05294 8.5138991,477.48454 3.4783391,461.32227 -12.112971,411.28003 15.507539,336.01587 84.007409,241.88571 c 9.6922,-13.31879 35.030001,-45.44931 41.757001,-52.95157 l 3.1383,-3.5 -2.4871,5.12068 c -16.1205,33.18991 -24.7729,69.17132 -23.2706,96.77203 1.0254,18.83965 7.36,38.17215 16.704,50.97885 15.3606,21.05288 41.6085,35.56731 71.7095,39.65365 11.4111,1.5491 39.552,0.72495 50.2726,-1.47231 4.125,-0.84544 87.0095,-23.02821 184.1877,-49.29503 l 176.6878,-47.75787 -45.8943,-0.25996 -45.8943,-0.25996 -0.4781,-3.24004 c -0.4467,-3.02746 -2.6804,-93.14602 -2.6312,-106.15671 0.012,-3.25416 -0.3151,-5.57944 -0.7276,-5.16728 -0.4125,0.41216 -10.4579,26.24966 -22.323,57.41667 l -21.573,56.66728 -32.7893,0.26381 c -30.9826,0.24927 -32.7507,0.16662 -32.0895,-1.5 0.8213,-2.07016 100.2617,-268.4589811 101.7268,-272.5138111 l 0.9936,-2.75 h 32.9022 c 18.0962,0 32.9022,0.17217 32.9022,0.3826 0,0.21043 -6.3474,16.9729301 -14.1054,37.2500001 -16.8319,43.9935 -17.0457,44.57878 -16.0628,43.97131 0.4245,-0.2623 15.8234,-18.71584 34.2199,-41.00785 l 33.4483,-40.5309401 99.75,-0.0326 c 54.8625,-0.0179 99.75,0.26012 99.75,0.61784 0,0.59429 -11.5538,31.1955401 -15.5334,41.1415301 l -1.6837,4.20807 h -33.1702 -33.1702 l -10.4065,28.25 c -5.7235,15.5375 -10.5962,28.812501 -10.8282,29.500001 -0.3314,0.98225 6.2414,1.25 30.6852,1.25 17.1089,0 31.1128,0.3375 31.1198,0.75 0.01,0.4125 -4.1512,11.8875 -9.2405,25.5 l -9.2534,24.75 h -31.5852 -31.5853 l -11.7456,31.41515 c -6.4601,17.27833 -11.991,32.35333 -12.2909,33.5 l -0.5452,2.08485 h 37.6167 c 31.1023,0 37.6166,0.2362 37.6166,1.36392 0,0.75016 -1.5614,5.56373 -3.4698,10.69684 -1.9084,5.1331 -3.3605,9.44227 -3.2268,9.57594 0.1336,0.13366 60.0826,-15.93998 133.2198,-35.71921 178.03819,-48.14862 163.44129,-44.38154 165.19129,-42.63162 1.2751,1.27511 1.1035,1.69829 -1.3791,3.40072 -1.5594,1.0694 -28.48539,13.00634 -59.83539,26.52651 -31.35,13.52018 -112.35,48.52398 -180,77.78623 -370.8284,160.4031 -508.5748,219.32613 -546.5,233.77334 -52.7435,20.09205 -90.7251,27.44709 -124.7485,24.15722 z M 623.37221,133.1194 c 25.6645,-68.373101 46.5044,-124.4492711 46.3108,-124.6137111 -0.1935,-0.16444 -22.4019,23.8954901 -49.3519,53.4665201 l -49,53.765511 0.2832,15.34821 c 0.1557,8.44151 0.7043,29.07321 1.2192,45.84821 0.5148,16.775 1.2408,42.11154 1.6134,56.30342 0.3725,14.19188 1.034,25.44188 1.47,25 0.4359,-0.44188 21.7909,-56.74505 47.4553,-125.11816 z m -482.6306,138.07838 c 1.5787,-4.27 10.7522,-28.68864 20.3855,-54.26364 9.6333,-25.575 31.4736,-83.625 48.534,-129.000001 17.0604,-45.375 31.326,-83.2875001 31.7014,-84.2500001 0.6316,-1.61929 3.2391,-1.75 34.9089,-1.75 18.8245,0 34.4234,0.19705 34.6642,0.43788 0.2409,0.24084 -1.252,26.0033401 -3.3176,57.2500001 -2.0655,31.24667 -3.65,58.612121 -3.5212,60.812121 0.1944,3.31981 4.1072,-6.28369 23.0098,-56.475521 12.5265,-33.26154 23.1304,-60.8303901 23.5641,-61.2641001 0.4337,-0.43372 15.2074,-0.66973 32.8304,-0.52448 l 32.0418,0.2641 -35.3267,94.0000001 c -19.4297,51.700001 -42.827,113.912501 -51.9941,138.250001 l -16.6674,44.25 h -34.8618 -34.8618 v -4.38352 c 0,-2.41094 1.575,-28.33836 3.5,-57.61648 1.925,-29.27813 3.4798,-54.64304 3.4551,-56.36648 -0.027,-1.91411 -8.8923,20.41007 -22.7801,57.36648 l -22.7354,60.5 -32.6997,0.26364 -32.6997,0.26364 z m 180.0895,7.27612 c 0,-1.07156 103.231,-275.1089911 103.8965,-275.8038611 0.4024,-0.42025 15.1728,-0.64525 32.8231,-0.5 l 32.0913,0.2641 -17.2733,46.0000001 c -22.5333,60.007901 -85.1691,226.495611 -86.06,228.750001 -0.6388,1.61642 -3.1642,1.75 -33.0846,1.75 -17.8162,0 -32.393,-0.20711 -32.393,-0.46024 z"
       id="path1" />
  </g>
</svg>
