<?xml version="1.0" encoding="UTF-8" standalone="no"?>
<!-- Created with Inkscape (http://www.inkscape.org/) -->

<svg
   version="1.1"
   id="svg1"
   width="430"
   height="267"
   viewBox="0 0 430 267"
   sodipodi:docname="bullpadelOr.svg"
   inkscape:version="1.3 (0e150ed6c4, 2023-07-21)"
   xmlns:inkscape="http://www.inkscape.org/namespaces/inkscape"
   xmlns:sodipodi="http://sodipodi.sourceforge.net/DTD/sodipodi-0.dtd"
   xmlns="http://www.w3.org/2000/svg"
   xmlns:svg="http://www.w3.org/2000/svg">
  <defs
     id="defs1" />
  <sodipodi:namedview
     id="namedview1"
     pagecolor="#ffffff"
     bordercolor="#000000"
     borderopacity="0.25"
     inkscape:showpageshadow="2"
     inkscape:pageopacity="0.0"
     inkscape:pagecheckerboard="0"
     inkscape:deskcolor="#d1d1d1"
     inkscape:zoom="4.244186"
     inkscape:cx="215"
     inkscape:cy="133.47671"
     inkscape:window-width="2560"
     inkscape:window-height="1369"
     inkscape:window-x="5112"
     inkscape:window-y="4"
     inkscape:window-maximized="1"
     inkscape:current-layer="g1" />
  <g
     inkscape:groupmode="layer"
     inkscape:label="Image"
     id="g1">
    <path
       style="fill:#c8ab37;fill-opacity:1;fill-rule:nonzero;stroke-width:0.235616"
       d="m 174.31843,124.97565 c -2.6225,0.16447 -5.45687,-0.0487 -7.88073,1.10031 -0.79743,0.8507 -1.36568,-0.6969 -2.19556,-0.65991 -4.10987,-0.30086 -8.26058,-0.19495 -12.37906,-0.0515 -1.09932,-0.0345 -1.51982,1.01773 -2.19878,1.65208 -0.36079,0.72293 -0.17131,1.54203 -0.92774,2.07361 -0.16246,0.98447 -1.1944,1.31153 -1.48043,2.202 -1.08605,0.55968 -0.68995,1.9662 -1.58489,2.68106 -0.14351,0.9035 -0.91915,1.25341 -1.3686,1.95119 -0.41238,0.70912 -1.08443,1.3674 -1.06763,2.26781 -0.71363,0.59716 -1.13425,1.39009 -1.72939,2.09202 -0.54785,1.17326 -2.02029,1.84209 -2.20016,3.277 -0.15455,0.69821 -0.92857,1.08245 -1.04003,1.79427 -0.94237,0.49143 -0.83168,1.70184 -1.65944,2.30325 -0.10538,1.04769 -1.19206,1.58525 -1.38746,2.63227 -0.81279,0.30387 -0.76706,1.28859 -1.51725,1.65944 -0.47577,0.62174 -0.11749,1.49573 -0.95397,1.83616 -0.37278,0.90297 -1.1484,1.60195 -1.44177,2.54576 -0.98256,0.3814 -0.8495,1.57565 -1.65069,2.13527 -0.50898,1.40515 -1.50239,2.56037 -2.30278,3.79518 -1.73404,0.55341 -1.28375,3.76977 0.71053,3.41137 3.99499,0.0122 8.04089,0.20019 12.00585,-0.27059 0.76143,-0.56102 0.35898,-0.5537 0.89599,-1.01103 0.54991,-0.81928 1.57965,-1.2655 1.67002,-2.34558 0.68251,-0.70388 1.0622,-1.54656 1.77035,-2.20016 0.32082,-0.70906 0.43929,-1.42564 1.03956,-1.96317 0.46336,-1.07928 1.18858,-2.0679 1.99446,-2.936 0.28622,-0.6992 0.37334,-1.42326 0.97698,-1.96224 0.24893,-0.65284 1.10513,-0.90691 1.21397,-1.68107 0.9605,0.1967 1.35088,1.32971 2.43394,1.3571 0.96131,0.47382 1.90322,1.09 3.05473,1.09846 0.6961,0.62949 1.61586,1.03173 2.61427,0.91837 1.60886,-0.004 3.42833,0.23457 4.75519,-0.85992 1.20132,-0.0784 2.50521,-0.0646 3.4666,-0.91255 0.96601,-0.32643 2.11826,-0.37838 2.76113,-1.26138 1.13186,-0.84421 2.18659,-1.68739 3.32072,-2.48364 0.58288,-0.81296 1.71878,-1.17517 1.72156,-2.37319 0.72497,-0.46589 1.06863,-1.30903 1.74319,-1.86698 0.72936,-1.09707 1.84789,-2.03399 2.31659,-3.3129 0.97627,-0.90074 1.3018,-2.37464 2.4459,-3.11041 0.54674,-0.73306 0.28252,-1.73254 1.05107,-2.33822 0.31187,-0.80708 0.61633,-1.52402 1.12148,-2.21397 0.11153,-0.87163 0.58224,-1.46932 0.9756,-2.20016 0.28229,-1.43205 0.32121,-3.21961 -0.9374,-4.18725 -1.56997,-2.95793 -5.3629,-2.44067 -8.15592,-2.58212 z m -7.27466,4.73764 c 0.7227,0.19775 2.35526,-0.50136 2.32303,0.76345 0.48977,1.41985 -0.99098,2.11172 -1.34467,3.30048 -0.62439,1.07836 -1.6226,1.9708 -1.83983,3.24018 -0.81922,1.0139 -1.52296,2.13371 -2.45925,3.07268 -0.48588,1.09809 -1.31923,1.98086 -1.76022,3.13066 -0.83374,0.85532 -1.19547,2.03761 -2.18543,2.69486 -0.46093,0.5795 -0.28653,1.60602 -1.27334,1.52461 -0.91703,0.42444 -1.7307,1.12441 -2.82832,0.89875 -0.98587,-0.0412 -2.45251,-0.29388 -2.81635,-1.21306 0.49438,-1.27563 1.75176,-2.12285 1.88861,-3.5614 0.67504,-0.76211 1.06839,-1.70263 1.79703,-2.40678 0.35132,-0.70025 1.13076,-1.24138 1.14541,-2.13896 0.89115,-0.93493 1.14781,-2.37743 2.41599,-2.92588 0.89887,-0.76422 0.23364,-2.15458 1.24251,-2.86467 0.17736,-0.6917 1.02697,-0.87591 1.24251,-1.55498 0.79482,-0.41431 1.14703,-1.23521 2.00458,-1.5697 0.55658,-0.69645 1.70519,-0.23017 2.44774,-0.39024 z m 2.84074,20.33849 c -0.0862,-0.005 -0.237,-0.16875 0,0 z m -24.81151,7.64695 c -0.0451,0.0131 0.0433,-0.0164 0,0 z m -4.35246,6.82919 c -0.0196,0.103 0.0175,-0.3577 0,0 z"
       id="path1" />
    <path
       style="fill:#c8ab37;fill-opacity:1;fill-rule:nonzero;stroke-width:0.235616"
       d="m 209.0875,124.29964 c -2.47158,0.10434 -5.0477,-0.13548 -7.39983,0.69994 -2.39815,0.48893 -5.04425,-0.0548 -7.32021,1.03497 -0.76612,0.6361 -1.95286,0.41456 -2.62216,1.27886 -1.67599,0.45971 -2.56075,2.25004 -3.75329,3.29771 -0.6521,0.70381 -1.88992,1.88625 -0.71882,2.75607 2.49433,0.58334 5.15561,0.15261 7.70948,0.26663 1.76502,-0.17169 3.70897,0.25964 5.36493,-0.4774 1.05856,-1.11618 2.30395,-2.16044 3.52965,-3.13388 1.61621,-0.53561 3.44141,-0.30846 5.11039,-0.20387 0.67695,0.39598 0.53135,1.64629 -0.19834,1.83984 -0.44792,0.62513 -0.6091,1.33498 -1.20662,1.89505 -0.43765,1.23041 -1.78568,1.86384 -3.03494,1.72295 -2.07633,0.1356 -4.33877,-0.18299 -6.18769,0.94385 -1.60037,0.09 -3.26522,0.0302 -4.69944,0.86469 -1.49083,0.33623 -3.07311,0.35732 -4.45003,1.05935 -1.78745,0.2539 -3.71499,0.20193 -5.26869,1.2195 -1.05411,0.0796 -1.60664,1.08005 -2.48318,1.49101 -0.61806,0.69724 -1.89921,0.78804 -2.15736,1.86423 -0.55698,0.90338 -1.33735,1.72716 -1.87205,2.6401 -1.38061,0.68373 -0.72407,2.63947 -1.90886,3.43438 -0.83504,2.07569 1.19526,4.13275 2.99445,4.85407 0.9922,-0.14333 1.29266,1.07683 2.31797,0.96778 2.21346,-0.0217 4.55288,0.2689 6.68607,-0.3884 1.14182,-0.93103 2.99148,-0.31319 4.20981,-1.29635 1.07304,-0.34331 2.2922,-0.35208 3.17069,-1.104 0.85136,-0.27272 0.0874,2.36604 1.72249,1.91945 4.38843,-0.0544 8.81584,0.10885 13.17987,-0.0818 1.66195,-0.49311 0.13263,-2.68321 1.41822,-3.56844 0.3667,-0.8437 1.36542,-1.2786 1.47077,-2.30509 0.91102,-0.56155 0.89783,-1.7046 1.66311,-2.38884 0.18875,-0.93131 0.99229,-1.51118 1.32029,-2.36582 0.78054,-0.89112 1.15032,-2.02793 1.92082,-2.89459 0.15655,-0.61466 0.97945,-0.89586 1.09571,-1.57476 0.87749,-0.51491 1.09487,-1.59823 1.79381,-2.31429 0.17703,-0.98877 1.15566,-1.5582 1.24389,-2.58258 0.88678,-0.42241 0.83791,-1.48677 1.54348,-2.07545 0.85103,-1.68401 0.12544,-3.80298 -1.52829,-4.693 -1.07732,-0.4851 -1.8255,-1.50819 -3.12054,-1.45005 -2.07673,-0.20977 -4.22775,-0.17465 -6.14903,-1.04739 -1.12104,-0.15516 -2.25844,-0.10058 -3.38653,-0.10446 z m -7.03766,15.68183 c 0.91392,0.0673 0.41673,1.43865 -0.0764,1.87251 -0.61724,1.15732 -1.34108,2.24055 -2.36031,3.05887 -0.50916,1.62907 -2.55774,1.35939 -3.64377,2.3824 -0.86741,0.10491 -1.86001,0.0768 -2.44728,0.78876 -0.71477,0.24648 -1.28323,-0.52452 -1.78875,-0.81407 -0.45989,-1.75457 1.21899,-3.12571 1.96408,-4.53194 0.80598,-0.009 1.50435,-0.51613 2.03265,-1.00321 1.09225,0.17742 1.91057,-0.56081 2.81728,-0.95259 1.14549,-0.15537 2.31786,-0.36393 3.35431,-0.80211 z m 14.52953,1.02669 c -0.0524,0.0103 0.0317,-0.0101 0,0 z m -23.00666,7.89453 c -0.0623,-0.12385 -6.9e-4,-0.50697 0,0 z m 1.19327,2.77769 c -0.23211,0.44602 0.0595,-0.17246 0,0 z"
       id="path2" />
    <path
       style="fill:#c8ab37;fill-opacity:1;fill-rule:nonzero;stroke-width:0.235616"
       d="m 263.81632,116.27947 c -1.98854,0.17914 -4.21035,-0.31049 -6.04089,0.63598 -0.77613,1.33639 -2.08792,2.41191 -2.53288,3.94428 -0.65827,0.71706 -0.92881,1.60837 -1.72893,2.1661 -0.38642,1.54146 -1.9027,2.46467 -2.36168,3.99122 -0.70288,0.81909 -1.55868,-0.23659 -1.653,-0.97146 -0.97754,-1.04036 -2.66987,-0.44226 -3.84257,-1.2333 -2.3305,-0.65169 -4.8541,-0.47403 -7.23186,-0.1896 -1.73394,0.96161 -4.07676,0.45111 -5.65986,1.88907 -0.86672,0.63979 -1.82343,1.13809 -2.67093,1.7662 -1.09453,-0.14819 -1.71138,0.78761 -1.99262,1.67509 -0.7622,1.31321 -2.59326,1.71878 -2.77861,3.38837 -0.53298,0.60337 -0.88882,1.32305 -1.29682,1.99721 -0.9394,0.67175 -1.48557,1.66514 -1.88769,2.69487 -0.75528,0.91214 -1.49901,1.83984 -2.14356,2.79564 -0.65135,1.09097 -1.70817,1.94584 -1.68152,3.33637 -0.14394,1.21657 -1.16485,2.14985 -0.95169,3.45912 -0.14984,1.80216 -0.0623,3.99533 1.78463,4.93011 1.15672,0.51992 2.23293,1.33814 3.60312,1.16364 2.72881,-0.11884 5.60531,0.42867 8.23246,-0.47612 1.31281,-0.68289 3.35492,-0.54751 4.39158,-1.19879 -0.34317,1.54432 1.29383,1.95834 2.48179,1.7027 3.60667,-0.0556 7.25298,0.1102 10.83522,-0.0818 0.97986,-0.29758 0.99011,-1.59037 1.76336,-2.20261 0.17817,-0.80262 0.89836,-1.31288 1.38609,-1.90288 0.64835,-0.51629 0.9448,-1.25381 1.51356,-1.83937 0.17895,-0.72076 0.42254,-1.24585 1.00919,-1.69303 0.40752,-0.66458 0.33398,-1.45817 1.03957,-1.8992 0.24848,-0.83263 1.2701,-1.25998 1.28254,-2.23283 0.69207,-1.1823 1.59031,-2.22523 2.30693,-3.41506 0.7791,-0.90772 0.78731,-2.24665 1.84811,-2.98202 0.6572,-0.74299 0.73203,-1.78495 1.58535,-2.36859 0.34858,-1.40723 1.67849,-2.31196 2.2494,-3.566 0.89325,-0.61977 1.07627,-1.75091 1.86377,-2.4505 0.14501,-0.88099 1.17169,-1.31059 1.18636,-2.28714 0.73891,-1.08496 1.80363,-1.96534 2.05106,-3.33084 0.48799,-0.48777 0.81597,-1.15485 1.05613,-1.74734 0.61796,-0.57807 1.0611,-1.28512 1.49009,-1.98893 0.0476,-1.89145 -2.32296,-1.37483 -3.54805,-1.47803 -1.65236,-0.0118 -3.30478,-0.006 -4.95715,-5.6e-4 z m -32.2026,11.07858 c 0.007,-0.003 0.0344,-0.005 0,0 z m 13.43382,2.35524 c 1.28507,-0.14118 2.52145,-0.10568 2.97143,1.28945 -0.57635,0.91986 -1.11909,1.78239 -1.61572,2.74686 -0.16901,0.77833 -1.3004,1.06184 -1.1431,2.0506 -0.48133,0.49157 -0.76773,1.17447 -1.03405,1.74596 -0.82538,0.90297 -1.74739,1.82525 -1.9627,3.11133 -0.72236,0.66911 -1.03217,1.65122 -1.74365,2.38286 -0.39112,0.65116 -1.16089,1.0558 -1.21904,1.9084 -0.6221,0.67225 -0.8262,1.6155 -1.7073,1.98019 -0.57505,0.62378 -1.56173,1.00634 -2.42105,1.25861 -1.17985,0.19501 -3.48366,0.20169 -3.55496,-1.4321 0.44097,-0.53065 1.01446,-1.20315 1.10583,-2.01241 0.62347,-0.46395 0.99942,-1.24032 1.07224,-1.9673 1.08067,-0.55692 1.03638,-2.01211 1.86239,-2.84949 0.972,-0.74948 0.96837,-2.13724 1.88907,-2.91299 0.91058,-1.19469 1.84285,-2.54997 2.20568,-4.08003 0.59987,-0.91193 1.36689,-1.67127 2.12837,-2.37733 0.68845,-0.63016 1.41311,-1.01659 2.39068,-0.83939 0.25863,-0.001 0.51725,-0.002 0.77588,-0.003 z m -9.27602,9.99207 c -0.0898,0.0437 0.0334,-0.0227 0,0 z m -16.58657,2.41783 c 0.086,-0.0723 0.34565,-0.17129 0,0 z m 21.06973,2.11641 c -0.0161,-0.0304 -0.007,-0.12756 0,0 z"
       id="path3" />
    <path
       style="fill:#c8ab37;fill-opacity:1;fill-rule:nonzero;stroke-width:0.235616"
       d="m 286.2864,124.4041 c -2.70036,-0.0864 -5.24489,1.04708 -7.95766,0.93876 -1.43664,0.13589 -3.11296,-0.0262 -4.26863,0.93651 -0.90424,0.0348 -1.64648,0.63391 -2.3129,1.0842 -0.96965,0.17587 -1.59205,1.04407 -2.5904,1.12056 -0.77348,0.49703 -1.20323,1.40021 -1.78001,2.03587 -0.64034,0.40531 -1.00043,0.99112 -1.66312,1.35756 -0.51728,0.60283 -0.30761,1.49919 -1.02714,1.93509 -0.46297,1.38024 -1.98009,2.12866 -2.543,3.43024 -0.80831,0.51227 -0.70559,1.55989 -1.49654,2.08374 -0.20196,0.86804 -0.98997,1.36394 -1.29497,2.15828 -1.20544,0.82699 -0.84378,2.5041 -1.64149,3.5301 -0.46736,0.74139 -0.36112,1.69111 -1.1155,2.25769 -0.55881,0.88089 -0.0791,2.01015 0.70455,2.50296 0.25731,1.02647 0.99708,1.82339 1.68521,2.54439 1.12702,0.44009 2.38561,0.38462 3.4123,1.07592 1.58156,0.49808 3.42537,0.0498 4.79148,1.07177 3.16647,0.4106 6.40494,0.21187 9.59263,0.12103 1.12368,-0.11485 1.9672,-1.00555 3.17445,-0.83358 1.41383,-0.014 2.78372,-0.33412 4.02335,-0.96437 1.30668,-0.22406 2.83781,-0.1732 3.81496,-1.16842 1.04663,0.0174 1.48942,-1.06528 2.41876,-1.26184 0.66897,-1.14516 2.2883,-1.48052 2.63641,-2.90885 0.51418,-0.52207 0.92348,-1.00816 1.47905,-1.48733 0.78033,-1.27762 -0.7475,-2.43235 -1.97973,-2.09707 -3.8726,0.35087 -7.77639,-0.10358 -11.62804,0.46847 -1.20191,0.25415 -1.39219,1.62926 -2.17807,2.39666 -0.17724,0.71989 -0.74113,1.25074 -1.36446,1.57706 -0.827,-0.13454 -1.55157,0.38721 -2.03173,0.89185 -1.13393,-0.0148 -2.62389,0.27283 -3.67415,-0.12287 -0.50832,-0.46316 -1.07567,-0.90754 -0.68982,-1.67049 0.81719,-0.57622 0.96798,-1.6018 1.57477,-2.35662 0.25366,-1.00542 0.56912,-1.9084 1.30463,-2.66817 0.53651,-1.1544 2.15641,-0.33132 3.15722,-0.60781 6.2143,-0.17302 12.45251,0.15401 18.65295,-0.26885 0.94803,-0.18556 1.22134,-1.17946 1.92589,-1.71604 0.60179,-0.58445 1.18064,-1.27215 1.50021,-2.09524 0.86671,-0.5397 0.72527,-1.70438 1.51172,-2.34144 0.42515,-1.38248 1.25705,-2.60898 2.0009,-3.80484 0.2962,-1.1941 0.22015,-2.71003 -0.92636,-3.37318 -0.57238,-0.58215 -1.06632,-1.17693 -1.71834,-1.65529 -0.7925,-0.34515 -1.47283,-1.10031 -2.47354,-1.05984 -1.84147,-0.36205 -3.79587,-0.0336 -5.55307,-0.65022 -1.78138,-0.44195 -3.63003,-0.4024 -5.45277,-0.40635 z m 6.75188,1.24527 c 0.13785,0.34979 -0.0996,-0.15885 0,0 z m -7.3354,4.06392 c 0.7832,0.16249 1.9176,-0.27135 2.56831,0.24068 0.42794,0.95422 -0.0663,1.86176 -0.67694,2.56647 -0.31195,1.01384 -1.06988,1.78631 -1.6599,2.62307 -0.87251,1.11425 -2.23492,1.26921 -3.54989,1.14863 -1.27692,-0.0779 -2.77691,0.12392 -3.92172,-0.20248 0.0147,-0.79705 0.23528,-1.37084 0.88954,-1.79243 0.36578,-1.07674 0.86827,-2.10241 1.78329,-2.86968 0.74766,-0.68788 1.59635,-1.4474 2.58022,-1.65029 0.66111,-0.0507 1.32429,-0.0619 1.98709,-0.064 z m 15.86223,2.78046 c -0.1511,0.05 0.36641,-0.17006 0,0 z m -9.17984,15.11627 c -0.0226,0.004 0.0216,-0.006 0,0 z"
       id="path4" />
    <path
       style="fill:#c8ab37;fill-opacity:1;fill-rule:nonzero;stroke-width:0.235616"
       d="m 142.91103,116.26567 c -1.66136,0.21194 -3.63277,-0.40565 -5.08508,0.59916 -0.45997,0.94113 -1.34531,1.64115 -1.53795,2.72846 -0.36489,1.11586 -1.41199,1.69273 -1.9176,2.66219 -0.45136,0.51331 -1.16101,1.16468 -1.0253,1.97973 -0.38833,0.69314 -0.91678,1.3304 -1.16704,2.1072 -0.8777,0.61106 -1.15613,1.79687 -2.18773,2.1974 -0.92241,0.6191 -0.34784,1.93812 -1.28945,2.57706 -0.43688,0.8764 -1.20655,1.58522 -1.53289,2.51999 -0.78812,0.37273 -0.66322,1.42974 -1.08789,1.92727 -0.86977,0.64319 -0.74498,1.91505 -1.72314,2.52631 -0.85501,0.85337 -0.99401,2.11267 -1.8631,2.93014 -0.33052,0.56994 -1.24939,0.81701 -1.15001,1.68935 -0.20856,0.8365 -1.05476,1.46071 -1.0566,2.41783 -0.75463,0.58533 -1.34952,1.41641 -1.89919,2.22271 -0.45053,0.50316 -0.88576,1.09451 -1.22917,1.69487 -0.80115,0.72762 -0.66745,1.90526 -1.4864,2.62722 -0.7588,1.09927 0.51192,2.18901 1.62262,1.97605 3.81846,0.12281 7.67993,0.1738 11.47626,0.0158 1.15153,-0.6287 1.99925,-1.78262 2.75,-2.86344 0.23272,-0.83751 0.81645,-1.59723 1.27933,-2.27563 0.64714,-0.48899 0.78345,-1.29143 1.39161,-1.81728 0.45262,-1.02019 0.87307,-2.0125 1.46708,-2.94521 0.49895,-0.65897 1.09292,-1.24623 1.68613,-1.83753 0.36264,-0.80826 0.36434,-1.7193 1.06579,-2.35156 0.2372,-0.78042 0.95537,-1.24355 1.29727,-1.93003 1.27977,-0.44303 0.64125,-2.09616 1.68337,-2.79749 1.1,-1.12511 1.54718,-2.73079 2.89045,-3.65021 0.58065,-0.65757 0.0784,-1.69322 1.0345,-2.03219 0.37448,-1.69007 2.2699,-2.57089 2.49146,-4.32255 0.60417,-0.79892 1.21012,-1.50541 1.75792,-2.34972 0.43205,-0.90143 1.14185,-1.66008 1.179,-2.73398 0.81008,-0.48047 1.43793,-1.5087 1.33271,-2.43624 -0.71519,-1.47388 -2.73626,-0.74377 -4.03534,-1.00534 -1.71014,-0.0423 -3.42098,-0.0543 -5.13162,-0.0503 z m 6.86417,5.53514 c -0.12683,0.058 0.049,-0.0299 0,0 z m -7.24934,11.16187 c -0.005,0.0476 7.1e-4,-0.054 0,0 z m -18.91973,7.12234 c 0.005,-0.002 0.0235,-0.004 0,0 z"
       id="path5" />
    <path
       style="fill:#c8ab37;fill-opacity:1;fill-rule:nonzero;stroke-width:0.235616"
       d="m 125.64109,116.27763 c -2.25484,0.20021 -4.71015,-0.40557 -6.84761,0.49148 -0.94417,0.56745 -1.28444,1.66017 -2.14217,2.27149 -0.28185,0.6781 -0.25965,1.43552 -0.91118,1.93372 -0.36726,0.92278 -1.1924,1.61498 -1.54255,2.49652 -1.07853,0.49637 -0.56264,1.90719 -1.51678,2.43669 -0.76204,0.92124 -0.95473,2.21476 -2.01056,2.85087 -0.44092,0.83485 -0.67745,1.73466 -1.2761,2.48916 -0.55249,0.37654 -0.88903,0.99091 -1.25954,1.5559 -0.59499,0.70902 -0.81369,1.60418 -1.53335,2.23191 -0.29608,0.551 -0.18117,1.18104 -0.8403,1.45926 -0.43897,0.75654 -0.65915,1.60936 -1.43717,2.15138 -1.07665,0.87987 -0.75855,2.47191 -1.87849,3.30047 -0.47409,0.54274 -1.13079,0.98097 -1.22226,1.77771 -0.80398,0.62519 -0.61914,1.79304 -1.439929,2.35294 -0.386521,0.90364 -1.007349,1.69928 -1.642872,2.37135 -0.824803,0.34594 -0.658061,1.37411 -1.387928,1.81728 -0.344525,0.93553 -1.356793,2.12411 -0.300503,2.95856 1.771466,0.79828 3.880902,0.32741 5.783652,0.5131 2.55163,-0.14318 5.21494,0.32977 7.70079,-0.33455 0.74839,-0.66576 1.91883,-1.16662 1.77402,-2.40357 0.0228,-0.62621 0.72333,-0.99506 0.96548,-1.51954 0.98046,-0.50185 0.76151,-1.84926 1.75378,-2.32303 0.24082,-0.70671 0.37186,-1.37356 1.01011,-1.861 0.1635,-1.01303 1.28184,-1.41495 1.30141,-2.52183 0.93213,-0.63003 0.87714,-1.96357 1.79382,-2.60651 0.29019,-0.66654 0.96648,-1.14158 1.30693,-1.77356 0.73501,-0.61041 0.89903,-1.57761 1.5697,-2.26229 0.39683,-1.02781 1.07311,-1.93232 1.50252,-2.93278 0.89427,-0.81041 1.63714,-1.78283 1.8992,-2.96776 0.73029,-1.495 2.09674,-2.56855 2.78736,-4.05886 0.10322,-0.79428 1.07716,-1.1512 1.14356,-2.03863 0.95167,-1.49615 2.35824,-2.73946 2.93693,-4.44312 0.69142,-0.57045 1.27958,-1.59122 0.89567,-2.57438 -0.55872,-1.50069 -2.59305,-0.60053 -3.81372,-0.84224 -1.04064,0.001 -2.08128,0.003 -3.12192,0.004 z"
       id="path6" />
    <path
       style="fill:#c8ab37;fill-opacity:1;fill-rule:nonzero;stroke-width:0.235616"
       d="m 76.702815,125.46207 c -1.683738,0.17994 -3.595573,-0.32682 -5.140304,0.50299 -0.594042,0.68145 -1.159018,1.43942 -1.327183,2.34972 -0.818257,0.28793 -0.723394,1.33151 -1.531967,1.53979 -0.432676,0.62867 -0.365443,1.44186 -1.032663,1.94982 -0.536265,1.13631 -1.087539,2.31226 -1.811762,3.34051 -0.904586,0.50345 -1.731452,1.32064 -1.556357,2.46706 0.01082,1.01756 -1.382203,1.16898 -1.591331,2.16151 -0.315931,0.72986 -1.103897,1.12111 -1.431186,1.87113 -0.947412,0.43714 -0.85071,1.54816 -1.096629,2.35892 -0.822997,0.79078 -0.779766,2.02962 -1.553135,2.8228 -0.251159,1.58816 -0.51451,3.46075 0.326273,4.9079 0.693955,0.70159 1.483084,1.22604 2.22363,1.83432 1.166878,0.37565 2.618492,-0.0895 3.46798,0.96087 1.358309,0.19734 3.079887,0.32645 4.135712,-0.66359 1.773255,-0.20072 3.619269,-0.18444 5.241546,-1.00735 1.059229,-0.13655 2.275967,-0.45426 3.279762,-0.16751 1.219118,1.85424 3.646735,0.78857 5.469297,1.0533 2.634913,-0.12442 5.354629,0.19987 7.938752,-0.32345 0.991917,-0.40498 0.782192,-1.63445 1.566479,-2.23881 0.629961,-1.49053 2.161503,-2.49973 2.504346,-4.09706 0.682838,-0.64034 0.905248,-1.50216 1.61296,-2.08695 0.14894,-0.73233 0.34391,-1.40253 0.990786,-1.87849 0.581701,-0.70314 1.419973,-1.31125 1.487329,-2.34052 0.602673,-0.54742 0.790893,-1.35666 1.49423,-1.80624 0.48498,-0.7885 1.24641,-1.47493 1.36078,-2.49238 0.56502,-0.80547 1.04396,-1.60718 1.69073,-2.34098 0.15573,-0.91286 1.32854,-1.24507 1.19971,-2.30646 0.46724,-0.63651 0.79498,-1.36954 1.18176,-2.03541 0.5055,-0.62562 0.96396,-1.16683 1.59272,-1.63597 0.74633,-1.12968 0.14912,-3.15585 -1.48549,-2.70223 -3.85982,0.0553 -7.759102,-0.10975 -11.59453,0.0818 -1.786053,0.74837 -2.082748,3.07224 -3.679582,4.03968 -0.386385,0.72232 -0.05812,1.71369 -0.971918,2.069 -0.311952,0.92731 -1.206227,1.54424 -1.328563,2.55681 -0.938289,0.82636 -1.126329,2.14842 -1.954422,3.07636 -0.382406,1.1982 -2.208539,1.2953 -2.0552,2.7754 -0.987176,1.23034 -1.403699,2.91177 -2.737661,3.85868 -0.331708,1.30393 -1.305038,2.25507 -2.3465,3.05657 -0.596569,0.52277 -1.401385,0.70966 -2.067166,1.12792 -0.835629,0.0932 -2.449797,0.67111 -2.632278,-0.59226 -0.132843,-0.95241 0.202705,-2.08144 0.232395,-3.10121 0.552777,-1.02846 1.58652,-1.77927 2.035413,-2.8679 0.654079,-0.57152 0.891146,-1.43388 1.554056,-2.04001 0.302227,-0.70162 0.413312,-1.41063 1.040486,-1.93187 0.552627,-1.43472 2.285084,-2.18539 2.277472,-3.88767 0.217774,-0.61733 0.790911,-1.14787 1.089728,-1.71881 0.889369,-0.35708 0.682204,-1.44923 1.461557,-1.89781 0.434729,-0.82059 0.599297,-1.73882 1.320281,-2.3916 0.81701,-1.27189 -0.687524,-2.36618 -1.892294,-2.14954 -2.3176,-0.0943 -4.639104,-0.053 -6.958049,-0.0607 z m 15.680458,2.13528 c -0.004,-0.0237 0.05303,-0.16025 0,0 z m -0.09434,1.65529 c 0.06912,0.0426 -0.04573,-0.0204 0,0 z M 74.56708,142.24882 c 0.156528,0.14343 -0.548741,-0.21374 0,0 z m -0.903349,4.45877 c 0.09614,0.0495 -0.162645,-0.0551 0,0 z m -12.500557,6.16652 c -0.05534,0.006 0.09609,-0.0238 0,0 z m 2.797025,0.4947 c 0.07825,-0.48518 0.10508,-0.45555 0,0 z"
       id="path7" />
    <path
       style="fill:#c8ab37;fill-opacity:1;fill-rule:nonzero;stroke-width:0.235616"
       d="m 35.338785,116.27349 c -2.164309,0.16009 -4.475541,-0.30672 -6.549862,0.42337 -0.623214,0.65906 -1.552545,1.1951 -1.512179,2.2425 -0.635229,0.73261 -0.966847,1.59435 -1.63873,2.31521 -0.840185,0.5978 -1.254232,1.60773 -1.41738,2.6355 -0.345348,0.85008 -0.936094,1.43609 -1.600075,1.9986 -0.134799,0.85011 -1.156605,0.96267 -1.181304,1.92036 0.05502,0.92826 -1.287929,1.08341 -1.1721,2.11595 0.03875,0.62261 -0.958303,0.7373 -0.972838,1.4114 -1.161901,0.93073 -1.832989,2.23056 -2.32257,3.59545 -0.756109,0.97541 -1.231274,2.19169 -2.263667,2.84626 -0.46567,0.64831 -0.152298,1.5892 -0.955351,2.04922 -0.469681,1.14782 -1.408613,2.01346 -2.27287,2.82188 -0.134698,0.8692 -0.320766,1.68334 -0.924979,2.36997 -0.523058,0.78414 -1.1744057,1.56489 -1.627686,2.43439 -0.4358146,0.66891 -1.0698246,1.0696 -1.4735232,1.75976 -0.024462,0.72215 -0.44178,1.02809 -0.8932256,1.53197 -0.1531237,0.82145 -1.2963126,1.38063 -0.5918022,2.30232 1.3490697,1.06505 3.3204691,0.42014 4.918953,0.65071 9.316928,-0.0255 18.646448,0.21069 27.955522,-0.1919 2.475502,-0.95384 5.173982,-0.76581 7.757396,-1.07638 0.668639,-0.20344 0.767669,-1.00409 1.564641,-0.88356 0.78612,-0.26389 1.253131,-1.02053 2.132972,-1.03358 0.717631,-0.54801 1.433034,-0.98724 2.345581,-1.16198 0.648454,-0.591 1.503513,-0.9991 1.95948,-1.79657 1.014718,-0.36762 1.086604,-1.60149 1.775408,-2.32764 0.234827,-0.92912 1.148321,-1.38652 1.380564,-2.3534 1.391282,-1.38704 0.850985,-3.58801 0.821436,-5.35107 -0.218056,-0.90078 -1.073812,-1.32968 -1.626764,-2.00228 -0.640507,-0.13713 -1.529042,-1.04824 -0.508969,-1.36492 1.292686,-0.7284 3.020636,-0.1981 4.132953,-1.38563 0.979872,-0.41606 1.747159,-1.21429 2.626294,-1.7754 0.364331,-0.57081 1.151693,-0.74613 1.44499,-1.38885 1.051934,-0.40183 0.92237,-1.74465 1.795195,-2.30923 0.267519,-0.81263 0.410943,-1.58887 0.99907,-2.22823 0.494163,-1.39633 0.148924,-3.00781 -0.75839,-4.12329 0.06026,-1.11265 -1.040447,-1.55938 -1.632749,-2.28253 -0.939968,-0.56794 -2.265657,0.0619 -2.87986,-1.01288 -1.404125,-0.47807 -3.107026,0.0115 -4.309203,-1.03542 -3.999579,-0.56163 -8.087261,-0.19474 -12.119975,-0.32717 -3.468128,-0.008 -6.936263,-0.0158 -10.404403,-0.0129 z m 8.744037,6.48912 c 1.531048,0.13946 3.284145,-0.26118 4.691621,0.26461 0.440965,0.7441 1.936371,0.11711 1.624005,1.24849 -0.06299,1.3837 0.224359,2.98142 -0.923598,4.00548 -0.843697,0.37809 -1.37686,1.18646 -2.034031,1.80623 -0.55082,0.73797 -1.424316,1.31476 -2.427495,1.13253 -3.481049,0.0535 -7.09939,0.19338 -10.638174,0.0317 0.260876,-0.92011 1.335002,-1.40156 1.301413,-2.50526 0.274667,-0.80679 0.978062,-1.37126 1.258616,-2.17715 0.878368,-0.8115 1.595337,-1.78586 1.887231,-2.94383 0.695728,-1.55511 2.645449,-0.6038 3.976948,-0.86285 0.427821,0 0.855644,0 1.283464,0 z m -21.126786,3.80714 c 0.63138,0.16005 -0.581574,-0.0759 0,0 z m 42.529687,1.35387 c -0.444055,0.0383 -0.479928,-0.0636 0,0 z m -46.161954,3.53839 c -0.0017,-0.003 0.0054,-0.02 0,0 z m 16.082662,6.26592 c 1.964494,0.11317 4.037066,-0.22347 5.903297,0.22872 0.688893,0.55529 1.669137,0.89606 2.009643,1.77632 0.121595,0.91422 0.101873,1.86488 -0.644265,2.50481 -0.171924,0.91285 -0.927332,1.40729 -1.472603,2.04692 -0.670538,0.39663 -0.726584,1.36115 -1.663579,1.36952 -0.653513,0.5292 -1.327859,0.84919 -2.084654,1.15645 -0.744652,0.82667 -2.172209,0.26327 -3.188185,0.60054 -0.870763,0.0481 -1.605681,0.77201 -2.406325,0.12288 -2.616149,-0.34236 -5.394549,-0.003 -7.903735,-0.30787 0.547479,-1.16654 1.723775,-2.00921 1.819585,-3.37456 0.38775,-0.77355 0.905474,-1.30276 1.545312,-1.82557 0.290826,-1.07178 1.106338,-1.88336 1.519542,-2.92081 0.679039,-0.36888 0.551285,-1.55277 1.500213,-1.29774 1.658015,-0.0835 3.353263,-0.0714 5.065754,-0.0796 z m -22.293364,4.47441 c 0.156113,0.10233 -0.440263,-0.211 0,0 z m 40.330448,6.28065 c -0.02167,0.0597 0.0095,-0.0359 0,0 z m -20.590207,0.34883 c -0.06532,0.37499 -9.9e-5,-0.6081 0,0 z m 14.608678,2.27241 c 0.02076,0.43052 -0.06077,-0.43662 0,0 z"
       id="path8" />
    <path
       style="fill:#c8ab37;fill-opacity:1;fill-rule:nonzero;stroke-width:0.235616"
       d="m 398.68418,94.361622 c -2.01411,0.14341 -4.16146,-0.217457 -6.09664,0.348549 -2.35353,1.113044 -5.26789,0.01317 -7.66759,1.209189 -0.95502,0.739791 -2.45545,0.336937 -3.4169,1.203393 -1.74722,0.355073 -3.30555,1.46313 -5.15411,1.277022 -1.03331,0.03762 -1.446,1.125978 -2.49928,1.167498 -1.09428,0.741937 -2.3548,1.049727 -3.49053,1.766667 -1.08702,0.19786 -1.82259,1.09726 -2.96315,1.16795 -0.74465,0.44161 -1.40461,0.85012 -2.2784,1.02162 -0.66017,0.49386 -1.12569,1.11319 -1.97282,1.36032 -0.85837,0.67316 -2.26299,0.46541 -2.90977,1.52138 -0.83085,0.20479 -1.26183,1.07058 -2.16565,1.06902 -0.64477,0.31947 -0.85793,1.02014 -1.65346,0.99723 -1.15336,0.60669 -1.8868,1.87818 -3.19693,2.19095 -0.67619,0.73061 -1.60662,1.29124 -2.41829,1.84536 -1.06324,0.0599 -1.31522,1.21768 -2.19095,1.61066 -0.37674,0.47552 -1.05534,0.70698 -1.36124,1.22272 -1.01126,0.0722 -1.26516,1.15238 -2.14954,1.50574 -1.26102,1.29044 -2.72178,2.29494 -4.01054,3.55725 -1.68948,1.34967 -3.17042,3.08817 -4.55311,4.80023 -0.83858,0.65252 -1.69385,1.44584 -2.25446,2.35202 -0.86003,0.80873 -1.65783,1.67144 -2.29588,2.68612 -0.59463,0.56226 -0.78735,1.32049 -1.42106,1.8587 -0.27702,0.70662 -1.15844,0.99751 -1.27058,1.84351 -0.50517,0.76575 -1.02849,1.40469 -1.72893,1.95626 -0.42971,0.69802 -0.11887,1.64968 -0.90427,2.16565 -0.49497,0.64809 -1.47533,1.09169 -1.28162,2.13666 -0.95315,1.11129 -1.10343,2.69252 -1.90794,3.90792 -0.20211,0.68512 -0.10109,1.34054 -0.80165,1.70913 -0.53898,0.68138 -0.0748,1.67457 -0.89369,2.18912 -0.77275,1.77145 -0.0786,3.90906 -1.15553,5.5715 -0.27964,2.78129 -0.3381,5.65112 0.07,8.42007 1.12629,1.5433 0.0142,3.99981 1.63229,5.30091 0.0938,1.13077 1.25931,1.68897 1.43993,2.77355 0.92764,0.88557 1.48116,2.26763 2.75054,2.7892 0.57543,0.42311 0.87099,0.89993 1.24803,1.48181 0.54063,0.32167 1.10032,0.40849 1.50528,0.94201 0.91117,0.56896 2.11089,0.17885 2.86191,1.04969 0.82235,0.19717 1.4462,0.56905 2.11273,1.04186 1.60273,0.0769 2.77747,1.53071 4.44956,1.34007 1.07954,-0.32265 1.5253,0.97157 2.6088,0.84813 4.15776,0.10433 8.3517,0.25635 12.49642,-0.1017 0.73154,-0.18845 1.01901,-1.01075 1.89183,-0.74321 2.07442,0.20396 3.83106,-1.11037 5.8467,-1.25953 0.9451,-0.36335 1.77537,-0.89983 2.8435,-0.86746 1.18848,-0.15279 2.05812,-1.0609 3.32854,-0.92084 1.05359,0.0145 2.39593,0.0404 2.96177,-0.98848 1.26705,0.51819 1.61571,-1.31771 2.85179,-1.14909 0.91089,-0.29604 1.55967,-1.03227 2.60651,-0.89875 1.01238,0.0998 2.08046,-0.23774 2.60282,-1.09617 0.74074,-0.37353 1.33373,-0.93119 2.18452,-1.02806 0.65427,-0.46903 1.12553,-1.03814 2.0032,-1.0207 0.95385,-0.21944 1.5558,-1.01367 2.4979,-1.20477 0.56746,-0.69859 1.54211,-1.00267 2.16197,-1.61572 0.87262,-0.23982 1.31334,-1.14339 2.32855,-1.11182 1.22942,-0.59018 2.04855,-1.71093 3.25169,-2.30094 0.53087,-0.76915 1.66591,-0.76623 2.19234,-1.58166 0.79568,-0.46247 1.4481,-1.05906 2.28253,-1.46432 0.63887,-0.71647 1.83101,-0.65956 2.22869,-1.62585 0.77104,-0.44663 1.14173,-1.27088 1.91761,-1.74825 0.53801,-0.68386 1.01961,-1.24667 1.90334,-1.39806 0.9661,-0.54443 1.21817,-1.85917 2.30922,-2.13251 1.04039,-1.11339 2.21077,-2.22385 3.45188,-3.14309 0.31656,-0.61759 0.95255,-1.04054 1.40035,-1.53749 0.65188,-0.5018 0.89056,-1.2838 1.5223,-1.82924 0.62862,-0.25923 1.34194,-0.75034 1.44039,-1.51633 0.92268,-0.56165 0.75259,-1.77015 1.58167,-2.4169 0.83697,-0.52773 1.3835,-1.43278 1.98249,-2.25309 0.11021,-0.79297 0.7535,-0.97773 1.15967,-1.56326 0.0648,-0.83477 1.00909,-1.10152 1.17395,-1.93003 0.9092,-1.11165 1.88893,-2.20602 2.09891,-3.68887 0.60319,-0.85771 0.92514,-1.81801 1.61205,-2.60972 0.13618,-1.15295 1.1145,-1.93001 1.20523,-3.11916 0.19115,-1.51076 1.13883,-2.77081 1.30141,-4.3069 0.9916,-1.19701 0.68104,-2.79643 0.90703,-4.22407 1.25487,-1.82247 0.75667,-4.21528 0.72342,-6.29538 -0.0433,-0.95192 -1.21848,-1.36364 -0.84708,-2.4201 0.13412,-0.9662 -0.51522,-1.75079 -0.93247,-2.46848 -0.13695,-1.33938 -1.26521,-2.25814 -1.31844,-3.62306 -0.36772,-0.75495 -1.04483,-1.23468 -1.61296,-1.82373 -0.51888,-0.64688 -1.25365,-1.08953 -1.68199,-1.84443 -0.53962,-0.50321 -0.84708,-1.22996 -1.57338,-1.508502 -0.73082,-0.809564 -1.95747,-0.723721 -2.61249,-1.579366 -1.17692,-0.109699 -1.94468,-1.123295 -3.07912,-1.408637 -1.82038,-1.490505 -4.42744,-0.523212 -6.42699,-1.600535 -2.89595,-0.406034 -5.86471,-0.171896 -8.78178,-0.238378 z m -6.60324,1.066717 c 0.12382,-0.461269 0.42184,-0.722463 0,0 z m 25.61224,3.402173 c -2.7e-4,0.03309 -10e-4,-0.01862 0,0 z m -25.23903,0.838463 c -0.0182,-0.01184 -0.0579,-0.06908 0,0 z m -0.30326,0.215828 c 0.79164,0.130967 1.57362,0.234607 2.37319,0.290837 1.55108,0.90662 3.51172,0.20748 5.03998,1.24205 1.04809,0.16401 2.00901,0.44002 2.89367,1.04279 1.14614,0.15532 1.90036,1.25249 3.12652,1.28622 0.75345,0.56405 1.54646,0.97441 2.18819,1.65852 0.80303,0.16236 0.90891,1.07717 1.67785,1.33455 0.84054,0.51367 1.09902,1.37058 1.15645,2.26228 0.45235,0.50174 0.99828,0.70934 1.33271,1.32075 1.17575,0.96079 1.42393,2.71831 1.52539,4.19076 0.008,1.27999 1.07362,2.17986 0.83905,3.48058 -0.0771,2.46927 0.25391,5.13814 -0.2034,7.53742 -1.09412,1.59601 -0.44868,3.7847 -1.04278,5.48545 -0.87129,0.88296 -0.66094,2.27144 -1.47859,3.1845 -0.0978,0.86115 -0.64701,1.38774 -1.01702,2.10812 -0.046,1.19805 -0.93322,2.17571 -1.37918,3.1799 -0.96903,0.55106 -0.86255,1.85278 -1.77817,2.50251 -0.94813,0.7686 -0.92559,2.0901 -1.80164,2.88814 -0.21213,0.67774 -1.03728,1.06331 -1.3686,1.67279 -0.98669,0.45584 -0.74849,1.75415 -1.65207,2.33085 -0.42098,0.45506 -1.08992,0.74891 -1.32765,1.38609 -0.8801,0.3953 -1.03941,1.45796 -1.81682,2.02436 -0.70057,0.63327 -1.55093,1.24049 -2.0644,2.06257 -1.09633,0.22482 -1.69816,1.31787 -2.3442,1.9963 -1.04913,0.54468 -1.58571,1.81851 -2.82326,2.17347 -1.12393,0.6738 -1.88876,1.78171 -3.08464,2.31796 -0.43056,0.70025 -1.4663,0.54321 -1.86331,1.33823 -1.20223,0.47097 -2.08831,1.38259 -3.29494,1.86745 -0.71341,0.50483 -1.91221,0.27357 -2.35939,1.25217 -0.93706,0.20274 -1.35165,1.13934 -2.28253,1.36538 -0.88983,0.61637 -1.93044,1.00386 -2.80761,1.61802 -1.13183,0.0744 -2.50713,-0.0492 -3.22776,1.03358 -0.80273,0.081 -1.44184,0.64741 -2.11871,0.92452 -1.72071,0.56327 -3.44117,1.17184 -5.2871,1.18407 -1.35905,-0.003 -2.34656,1.182 -3.73903,0.91636 -1.25821,-0.0341 -2.60917,-0.016 -3.66402,0.72421 -2.5232,0.19257 -5.11857,0.26659 -7.61842,0.0764 -1.19701,-1.05716 -2.85274,-0.65688 -4.2954,-0.9167 -1.28976,-1.31188 -3.4075,-0.40451 -4.68748,-1.63182 -0.98672,-0.15485 -1.67783,-0.91133 -2.44682,-1.41278 -0.57754,-0.84469 -1.79849,-0.75245 -2.29312,-1.6958 -0.72417,-0.20385 -0.8392,-1.05809 -1.38839,-1.47996 -0.25766,-1.32299 -1.76725,-1.71593 -2.12975,-2.94291 -0.0821,-0.9366 -1.24823,-1.36855 -0.92084,-2.41 0.0436,-0.89473 -0.0706,-2.01255 -0.97237,-2.44176 0.10349,-0.71034 -0.31972,-1.85483 0.0115,-2.3442 7.03412,-0.49044 14.12816,-0.12718 21.19397,-0.23826 6.29965,-0.1 12.62277,0.20688 18.90822,-0.24264 0.87214,-0.24363 1.59139,-0.91726 2.57844,-0.69949 1.08542,0.10693 2.14542,-0.19816 2.97097,-0.86975 1.15625,-0.12563 2.30141,-0.38863 3.27655,-1.00091 1.28923,-0.16258 2.66621,-0.35458 3.67414,-1.20754 0.94093,-0.0867 1.35937,-1.18042 2.36537,-1.05843 1.25867,-0.99251 2.80808,-1.71627 3.87215,-3.01802 0.84109,-0.80883 1.11582,-1.93633 1.8802,-2.76931 0.33676,-1.06842 1.51704,-1.77623 1.26138,-3.05013 0.0359,-1.72888 -0.0257,-3.71474 -1.63367,-4.77997 -0.58599,-0.89572 -1.35994,-1.77823 -2.57199,-1.58397 -0.5727,0.10862 -1.18214,-0.88428 -0.16429,-0.67648 1.19593,0.13208 2.31191,-0.26535 3.26412,-0.92912 1.74422,-0.13727 3.25479,-1.16149 4.9912,-1.38747 1.23971,-0.50384 2.10181,-1.64506 3.30461,-2.20522 0.41939,-0.71833 1.66857,-0.55219 1.73261,-1.62124 1.11159,-1.07765 1.99388,-2.51466 2.30324,-4.03723 0.93412,-1.36965 1.0125,-3.51247 -0.0106,-4.85131 -0.60397,-0.9971 -1.46702,-2.00806 -2.68428,-2.28622 -0.79551,-0.85349 -1.94139,-0.99611 -2.9903,-1.2425 -1.61262,-1.13433 -3.79866,-0.52036 -5.64512,-0.74685 -13.46303,-0.0954 -26.92724,0.0328 -40.38983,-0.13948 0.43061,-0.69463 1.19057,-1.18242 1.91945,-1.53841 1.10287,0.007 1.53808,-1.12064 2.32441,-1.63643 0.22181,-0.61137 1.077,-0.69123 1.35526,-1.30739 0.99035,-0.39402 1.74743,-1.17908 2.84948,-1.19557 0.74227,-0.19411 0.8141,-1.1597 1.67555,-1.11504 0.65563,-0.52809 1.45025,-0.67862 2.11042,-1.16565 0.75501,-1.12504 2.62506,-0.23064 3.29587,-1.58167 0.751,0.0201 1.47075,-0.37483 1.91347,-0.95075 1.36705,-0.11074 2.33086,-1.44079 3.82094,-1.17716 1.32201,0.20591 2.13604,-1.04806 3.42288,-0.9825 1.06661,-0.256 1.89163,-1.00829 3.05151,-0.93603 1.60628,-0.34514 3.10798,-1.15773 4.81035,-0.91347 1.03274,0.15772 1.90294,-0.40037 2.7869,-0.66774 1.16708,-0.08743 2.36861,-0.175576 3.59131,-0.174867 z m 13.14022,3.330847 c -0.007,-0.004 -0.0127,-0.0457 0,0 z m -52.51302,8.074 c -0.001,-0.005 0.0135,-0.0276 0,0 z m 27.73049,9.79879 c 1.04594,0.51042 1.17268,1.70714 1.80164,2.5904 0.1266,0.85245 0.15444,1.76667 -0.5918,2.30002 -0.33064,0.91155 -0.87267,1.67923 -1.44729,2.39989 -0.73296,0.35379 -1.09005,1.12515 -1.95028,1.25769 -0.57422,0.39291 -0.86376,0.9517 -1.58075,1.10445 -1.16407,0.88772 -2.91684,0.26507 -4.29884,0.51441 -11.41973,0.14735 -22.90436,0.2064 -34.32615,-0.0786 0.41325,-0.80118 0.73993,-1.58668 1.40266,-2.2448 0.35826,-0.53672 0.86466,-1.08334 1.30923,-1.49745 0.63567,-0.49667 1.11639,-1.09838 1.63827,-1.72387 0.36744,-1.30263 1.577,-2.04534 2.38608,-2.95855 0.70086,-0.45692 0.7148,-1.35141 1.53473,-1.66358 1.1088,-0.4874 2.59069,-0.13669 3.83149,-0.28065 9.96868,-0.0757 19.93786,-0.0329 29.90676,-0.0511 0.12808,0.11059 0.25617,0.22119 0.38425,0.33179 z m 1.09295,6.0409 c 0.0107,-0.005 0.0457,-0.009 0,0 z m -5.31333,4.36764 c -0.004,-0.0188 0.0349,-0.10128 0,0 z m 15.25248,4.84671 c 0.035,0.11294 -0.0409,-0.10301 0,0 z m -35.24123,0.9015 c 4.89871,0.0549 9.83964,-0.07 14.70302,0.1965 0.57225,0.26417 1.35602,0.22979 1.39805,1.06626 0.40481,0.75663 1.13625,1.28105 0.80533,2.24986 -0.0777,0.9543 -0.91658,1.66399 -0.90703,2.67738 -1.09804,0.39192 -0.81274,2.08846 -2.1141,2.20706 -1.02238,0.77344 -2.04847,1.65272 -3.32302,1.99906 -0.96904,1.18653 -2.65432,0.48206 -3.99803,0.68579 -0.95969,-0.1006 -1.8482,0.27623 -2.64341,0.67407 -8.90881,0.30045 -17.86365,0.21274 -26.7944,0.18792 -0.76874,-0.0816 -2.10464,0.29669 -1.76489,-0.94908 0.0239,-1.09036 -0.0638,-2.32712 0.82282,-3.07958 0.47189,-1.5698 -0.13293,-3.38424 0.95995,-4.77583 0.096,-1.07493 1.28871,-1.54311 1.23422,-2.71925 2.07201,-0.59079 4.32806,-0.18002 6.47942,-0.35549 5.04715,-0.0542 10.09467,-0.0663 15.14207,-0.0647 z m 50.23969,6.84715 c 0.0266,-0.0137 0.12047,-0.017 0,0 z m 2.06394,6.57655 c -0.0872,0.0145 0.0376,-0.0108 0,0 z m -4.98982,3.50249 c -0.0337,-2e-4 -0.12668,-0.0793 0,0 z m -0.72388,1.04049 c -0.005,0.0132 0.007,-0.0324 0,0 z m -8.65292,2.96729 c -0.15319,-0.18201 -0.13571,-0.46343 0,0 z m -8.7491,5.40169 c 1.8e-4,-0.009 0.0133,-0.0315 0,0 z m 0.44915,3.83429 c -0.002,0.007 0.002,-0.0107 0,0 z m -19.9754,8.43756 c -0.0195,0.0236 0.0397,-0.0595 0,0 z"
       id="path9" />
    <path
       style="fill:#c8ab37;fill-opacity:1;fill-rule:nonzero;stroke-width:0.235616"
       d="m 321.35275,116.28039 c -1.93024,0.16692 -4.01939,-0.26781 -5.85452,0.40037 -1.34064,1.27147 -1.72106,3.24823 -3.02297,4.50524 -1.25793,0.78428 -1.07037,2.55903 -2.02759,3.63549 -0.50847,0.52648 -0.91549,1.11989 -1.24619,1.72709 -0.77814,0.62444 -0.57169,1.83961 -1.47031,2.28713 -0.50821,0.81263 -1.27242,1.54294 -1.62722,2.42704 -0.60353,0.65736 -1.28481,1.29754 -1.62032,2.12837 0.0607,1.33453 -1.29753,2.07367 -1.71835,3.26043 -0.43522,0.81485 -1.57439,1.14819 -1.43486,2.27839 -0.69343,0.73741 -0.96195,1.72465 -1.75746,2.39482 -0.81256,0.77784 -1.09914,1.86742 -1.50712,2.83523 -0.46803,0.66252 -0.74125,1.31035 -1.43073,1.7616 -0.37321,0.89 -1.13905,1.61984 -1.52736,2.47305 -0.84858,0.66792 -0.87358,1.82688 -1.59179,2.61295 -0.41914,0.63387 -1.33601,1.37602 -0.55545,2.19556 1.41583,0.92535 3.3127,0.31361 4.91021,0.52576 2.75935,-0.0933 5.59288,0.2272 8.3032,-0.1454 0.66994,-0.48773 1.26878,-1.06941 2.03861,-1.41533 0.44492,-0.78144 0.70529,-1.64465 1.24205,-2.4054 0.20446,-0.86905 1.1343,-1.39611 1.3594,-2.24756 0.63015,-0.41199 0.90992,-1.06341 1.55911,-1.43901 0.4583,-0.89148 0.1219,-2.0414 1.04831,-2.73214 0.50879,-1.35355 2.15066,-1.92162 2.2853,-3.48132 0.20881,-0.62567 1.07385,-0.97346 1.00689,-1.80946 0.4076,-0.74942 0.85288,-1.39078 1.54393,-1.85917 0.38167,-1.13204 0.73853,-2.38489 1.82005,-3.10351 0.4949,-0.66283 0.74048,-1.40899 1.34881,-2.0032 0.39029,-0.81504 1.17746,-1.42582 1.35848,-2.38745 0.57803,-0.86757 1.14462,-1.69881 1.76804,-2.54208 0.60474,-0.56048 1.11413,-1.30635 1.12102,-2.19004 0.65305,-0.79128 1.13566,-1.64207 1.77863,-2.45142 0.29859,-0.89437 1.27689,-1.31979 1.32626,-2.33362 0.72091,-0.74311 1.36405,-2.35576 -0.0488,-2.7372 -2.44531,-0.24065 -4.92226,-0.13607 -7.37728,-0.16521 z m -7.79605,4.01331 c 0.0178,-0.008 0.0852,-0.0126 0,0 z m -8.20332,12.06383 c 0.0141,-0.009 0.0632,-0.0157 0,0 z"
       id="path10" />
  </g>
</svg>
