<?xml version="1.0" encoding="UTF-8" standalone="no"?>
<svg
   width="800"
   height="450"
   viewBox="0 0 800 450"
   fill="none"
   version="1.1"
   id="svg12"
   sodipodi:docname="corkOr.svg"
   inkscape:version="1.3 (0e150ed6c4, 2023-07-21)"
   xmlns:inkscape="http://www.inkscape.org/namespaces/inkscape"
   xmlns:sodipodi="http://sodipodi.sourceforge.net/DTD/sodipodi-0.dtd"
   xmlns="http://www.w3.org/2000/svg"
   xmlns:svg="http://www.w3.org/2000/svg">
  <defs
     id="defs12" />
  <sodipodi:namedview
     id="namedview12"
     pagecolor="#ffffff"
     bordercolor="#000000"
     borderopacity="0.25"
     inkscape:showpageshadow="2"
     inkscape:pageopacity="0.0"
     inkscape:pagecheckerboard="0"
     inkscape:deskcolor="#d1d1d1"
     inkscape:zoom="2.28125"
     inkscape:cx="400"
     inkscape:cy="225.09589"
     inkscape:window-width="2560"
     inkscape:window-height="1369"
     inkscape:window-x="5112"
     inkscape:window-y="4"
     inkscape:window-maximized="1"
     inkscape:current-layer="g12" />
  <mask
     id="mask0_30_24"
     style="mask-type:luminance"
     maskUnits="userSpaceOnUse"
     x="95"
     y="48"
     width="610"
     height="355">
    <path
       d="M705 48H95V402.449H705V48Z"
       fill="white"
       id="path1" />
  </mask>
  <g
     mask="url(#mask0_30_24)"
     id="g12">
    <path
       fill-rule="evenodd"
       clip-rule="evenodd"
       d="M609.52 191.084H192.271C192.268 191.019 192.265 190.955 192.256 190.89C234.598 185.618 276.938 180.346 319.281 175.068C319.383 174.876 319.489 174.679 319.591 174.49C276.184 132.765 232.775 91.0419 189.364 49.3166C189.428 49.2106 189.493 49.1014 189.554 48.9954C193.778 50.5437 198.003 52.0833 202.222 53.642C246.775 70.1357 291.325 86.6255 335.875 103.12C361.003 112.424 386.134 121.72 411.243 131.072C412.325 131.478 413.335 132.266 414.173 133.084C432.131 150.615 450.057 168.178 467.991 185.731C468.463 186.194 468.952 186.648 469.616 187.282C471.993 184.521 474.307 181.845 476.606 179.16C481.025 174.004 485.452 168.853 489.843 163.675C490.544 162.846 491.103 162.504 492.335 162.803C508.407 166.702 524.501 170.499 540.588 174.337C561.28 179.266 581.973 184.205 602.66 189.149C604.964 189.698 607.26 190.308 609.556 190.89L609.52 191.084Z"
       fill="#587591"
       id="path2"
       style="fill:#c8ab37" />
    <path
       fill-rule="evenodd"
       clip-rule="evenodd"
       d="M285.197 300.74C285.855 300.789 286.125 300.822 286.389 300.822C303.139 300.828 319.887 300.816 336.638 300.866C337.883 300.869 338.372 300.347 338.864 299.353C345.448 286.129 352.065 272.926 358.672 259.713C360.587 255.887 362.496 252.061 364.464 248.119H300.792C300.762 248.258 300.735 248.397 300.704 248.538C303.616 249.638 306.531 250.736 309.605 251.898C301.462 268.191 293.394 284.337 285.197 300.74ZM245.463 305.255C252.315 291.562 259.088 278.024 265.861 264.489C268.981 258.251 272.074 252.001 275.258 245.797C275.679 244.978 276.448 244.164 277.257 243.751C286.424 239.08 295.624 234.472 304.84 229.894C305.584 229.523 306.501 229.36 307.338 229.36C333.967 229.331 360.598 229.322 387.23 229.387C388.158 229.387 389.308 229.879 389.981 230.531C394.238 234.644 398.364 238.891 402.594 243.031C403.499 243.918 403.673 244.568 403.07 245.769C393.481 264.831 383.963 283.93 374.368 302.985C373.929 303.861 373.074 304.713 372.195 305.161C363.234 309.705 354.238 314.182 345.219 318.626C344.304 319.077 343.202 319.376 342.184 319.38C315.553 319.422 288.921 319.419 262.296 319.38C261.497 319.38 260.494 319.175 259.94 318.672C255.114 314.292 250.369 309.823 245.463 305.255Z"
       fill="#587591"
       id="path3"
       style="fill:#c8ab37" />
    <path
       fill-rule="evenodd"
       clip-rule="evenodd"
       d="M516.755 319.41C508.043 319.41 499.647 319.418 491.251 319.387C490.684 319.384 490.079 319.146 489.554 318.886C485.352 316.807 481.15 314.71 476.979 312.557C476.311 312.215 475.59 311.657 475.265 311.01C469.278 299.14 463.348 287.247 457.413 275.357C457.33 275.186 457.316 274.982 457.209 274.569H459.223C466.554 274.569 473.887 274.528 481.218 274.607C482.431 274.619 483.734 274.956 484.834 275.478C488.829 277.369 492.766 279.372 496.691 281.405C497.935 282.05 498.533 281.791 499.15 280.546C504.233 270.276 509.388 260.039 514.507 249.787C514.764 249.272 514.925 248.706 515.185 248.004H451.493C451.432 248.172 451.372 248.336 451.314 248.502C454.22 249.621 457.129 250.739 460.255 251.939C457.933 256.58 455.657 261.114 453.388 265.651C447.179 278.077 440.989 290.512 434.728 302.912C434.284 303.789 433.458 304.664 432.59 305.104C423.521 309.71 414.413 314.233 405.304 318.755C404.662 319.073 403.93 319.376 403.237 319.38C398.665 319.438 394.095 319.41 389.222 319.41C390.776 316.264 392.229 313.288 393.711 310.327C406.958 283.858 420.212 257.398 433.419 230.909C434.024 229.693 434.682 229.304 436.011 229.304C469.979 229.345 503.944 229.327 537.907 229.383C538.846 229.383 540.005 229.861 540.681 230.511C544.985 234.667 549.167 238.955 553.433 243.156C554.247 243.954 554.491 244.541 553.907 245.682C549.95 253.432 546.116 261.247 542.159 269C541.717 269.868 540.901 270.735 540.04 271.176C531.083 275.733 522.091 280.23 513.067 284.667C512.037 285.171 510.79 285.413 509.632 285.452C506.501 285.558 503.368 285.485 499.819 285.485C505.526 296.916 511.055 307.991 516.755 319.41Z"
       fill="#587591"
       id="path4"
       style="fill:#c8ab37" />
    <path
       fill-rule="evenodd"
       clip-rule="evenodd"
       d="M149.796 248.544C152.677 249.636 155.558 250.727 158.739 251.928C150.625 268.151 142.549 284.306 134.326 300.754H224.516C223.785 302.902 223.024 304.428 221.037 305.395C212.076 309.75 203.198 314.277 194.263 318.692C193.403 319.114 192.37 319.38 191.415 319.38C164.781 319.417 138.149 319.42 111.515 319.372C110.622 319.368 109.524 318.967 108.861 318.379C104.454 314.433 100.166 310.357 95.7761 306.384C94.8561 305.55 94.8081 304.882 95.3485 303.8C105.049 284.485 114.694 265.147 124.413 245.84C124.857 244.966 125.716 244.117 126.594 243.671C135.62 239.075 144.681 234.552 153.759 230.063C154.619 229.635 155.661 229.366 156.617 229.366C183.18 229.33 209.746 229.322 236.313 229.39C237.295 229.393 238.501 229.947 239.22 230.64C243.201 234.461 247.099 238.363 250.923 242.337C251.661 243.102 253.344 243.488 252.475 245.341C251.673 247.057 250.9 248.052 248.671 247.989C241.614 247.786 234.549 247.913 227.488 247.913H152.234H150.027C149.95 248.125 149.875 248.332 149.796 248.544Z"
       fill="#587591"
       id="path5"
       style="fill:#c8ab37" />
    <path
       fill-rule="evenodd"
       clip-rule="evenodd"
       d="M642.053 286.129C642.983 286.546 643.9 286.993 644.841 287.375C647.618 288.512 650.946 289.024 653.028 290.916C655.072 292.763 655.853 296.006 657.174 298.641C660.595 305.463 664.011 312.293 667.574 319.41H662.798C656.206 319.41 649.615 319.433 643.021 319.39C642.121 319.38 641.128 319.239 640.326 318.853C636.116 316.816 631.937 314.704 627.781 312.555C627.116 312.212 626.407 311.654 626.084 311.008C620.106 299.155 614.185 287.267 608.251 275.384C608.17 275.212 608.118 275.023 607.949 274.569H610.16C623.812 274.569 637.463 274.546 651.118 274.598C652.44 274.607 653.11 274.224 653.706 273.02C660.62 259.054 667.617 245.124 674.539 231.162C675.209 229.807 675.945 229.223 677.548 229.288C681.312 229.439 685.081 229.27 688.843 229.388C689.728 229.409 690.805 229.822 691.435 230.433C695.736 234.595 699.907 238.887 704.188 243.073C705.119 243.977 705.222 244.675 704.636 245.826C700.732 253.519 696.932 261.27 693.005 268.948C692.527 269.88 691.628 270.789 690.697 271.262C681.705 275.834 672.668 280.325 663.62 284.784C662.758 285.206 661.721 285.448 660.763 285.461C655.185 285.519 649.603 285.486 644.021 285.492C643.401 285.492 642.779 285.542 642.163 285.572C642.13 285.758 642.089 285.945 642.053 286.129Z"
       fill="#587591"
       id="path6"
       style="fill:#c8ab37" />
    <path
       fill-rule="evenodd"
       clip-rule="evenodd"
       d="M540.01 319.41C543.011 313.407 545.868 307.66 548.739 301.922C560.554 278.29 572.38 254.661 584.164 231.012C584.782 229.773 585.45 229.259 586.881 229.297C590.708 229.41 594.543 229.274 598.374 229.383C599.264 229.41 600.355 229.799 600.984 230.407C605.28 234.569 609.457 238.861 613.733 243.047C614.644 243.945 614.767 244.611 614.169 245.789C604.6 264.843 595.092 283.929 585.514 302.983C585.074 303.862 584.205 304.708 583.327 305.153C574.307 309.728 565.248 314.226 556.181 318.713C555.484 319.062 554.683 319.37 553.926 319.38C549.423 319.444 544.917 319.41 540.01 319.41Z"
       fill="#587591"
       id="path7"
       style="fill:#c8ab37" />
    <path
       fill-rule="evenodd"
       clip-rule="evenodd"
       d="M425.951 366.245C417.049 366.245 408.519 366.219 399.986 366.307C399.429 366.31 398.661 367.056 398.361 367.649C394.353 375.528 390.406 383.438 386.458 391.345C386.201 391.861 386.033 392.413 385.8 393.003C386.169 393.121 386.348 393.225 386.526 393.225C394.796 393.235 403.064 393.268 411.329 393.194C411.919 393.185 412.744 392.524 413.051 391.943C414.815 388.629 416.462 385.246 418.143 381.884C420.688 376.792 423.227 371.696 425.951 366.245ZM362.117 402.496C363.474 399.758 364.671 397.305 365.894 394.864C371.908 382.818 377.944 370.788 383.922 358.726C384.553 357.443 385.24 356.901 386.768 356.909C403.314 356.981 419.854 356.931 436.395 357.01C437.383 357.013 438.561 357.565 439.314 358.234C441.478 360.151 443.459 362.258 445.634 364.407C443.344 368.991 441.076 373.536 438.807 378.081C436.233 383.238 433.688 388.42 431.055 393.549C430.663 394.306 429.924 395.035 429.171 395.429C424.961 397.613 420.706 399.71 416.447 401.795C415.746 402.138 414.941 402.469 414.187 402.469C396.972 402.507 379.756 402.496 362.117 402.496Z"
       fill="#587591"
       id="path8"
       style="fill:#c8ab37" />
    <path
       fill-rule="evenodd"
       clip-rule="evenodd"
       d="M285.813 402.458C287.263 399.519 288.576 396.825 289.912 394.147C294.229 385.507 298.515 376.854 302.917 368.26C303.482 367.149 304.507 366.111 305.575 365.449C309.788 362.834 314.082 360.34 318.402 357.9C319.342 357.369 320.518 356.998 321.587 356.995C334.429 356.93 347.27 356.927 360.113 357.006C361.102 357.015 362.27 357.575 363.027 358.248C365.178 360.165 367.161 362.277 369.297 364.393C366.171 370.662 363.065 376.889 359.958 383.108C358.25 386.53 356.584 389.976 354.778 393.339C354.309 394.215 353.494 395.064 352.627 395.528C349.391 397.271 345.926 398.625 342.806 400.548C339.358 402.673 335.743 402.677 331.614 402.378C337.634 390.33 343.572 378.438 349.61 366.347C348.872 366.305 348.368 366.245 347.86 366.245C339.994 366.241 332.126 366.278 324.259 366.207C322.994 366.195 322.313 366.597 321.798 367.703C320.565 370.355 319.242 372.969 317.79 375.937C322.172 375.937 326.197 376.181 330.172 375.863C333.814 375.577 336.602 376.503 338.676 380.134C338.161 380.647 337.555 381.498 336.738 381.987C335.128 382.944 333.426 383.764 331.707 384.507C330.817 384.893 329.806 385.181 328.848 385.195C324.21 385.264 319.569 385.271 314.927 385.195C313.624 385.177 312.719 385.419 312.318 386.764C310.425 393.096 306.067 396.92 299.954 399.014C298.699 399.442 297.465 400.075 296.378 400.829C293.184 403.046 289.644 402.461 285.813 402.458Z"
       fill="#587591"
       id="path9"
       style="fill:#c8ab37" />
    <path
       fill-rule="evenodd"
       clip-rule="evenodd"
       d="M471.274 374.208H473.837C479.552 374.208 485.264 374.205 490.985 374.208C492.218 374.212 495.944 376.701 495.915 377.754C495.897 378.467 495.294 379.493 494.662 379.819C491.081 381.69 487.656 383.743 483.209 383.354C478.407 382.924 473.531 383.319 468.693 383.216C467.171 383.183 466.386 383.71 465.794 385.06C464.884 387.145 463.78 389.14 462.783 391.186C462.5 391.761 462.305 392.38 461.975 393.213H507.163L507.463 393.649C506.915 394.201 506.456 394.936 505.801 395.277C501.346 397.576 496.864 399.827 492.359 402.013C491.615 402.369 490.68 402.477 489.835 402.482C477.061 402.51 464.287 402.527 451.514 402.459C450.56 402.452 449.427 402.001 448.694 401.382C446.426 399.494 444.308 397.422 442.016 395.311C444.76 389.811 447.492 384.33 450.224 378.849C452.343 374.597 454.406 370.323 456.624 366.126C457.113 365.198 458.027 364.333 458.96 363.842C462.986 361.704 467.071 359.685 471.173 357.704C472.039 357.284 473.062 356.989 474.014 356.986C486.924 356.939 499.831 356.927 512.742 357.004C513.676 357.007 514.795 357.496 515.511 358.122C517.372 359.762 519.095 361.568 520.798 363.383C521.214 363.822 521.703 364.845 521.514 365.08C521.062 365.633 520.229 366.194 519.549 366.197C505.633 366.258 491.712 366.297 477.797 366.187C475.805 366.165 474.763 366.736 474.057 368.542C473.356 370.341 472.363 372.028 471.274 374.208Z"
       fill="#587591"
       id="path10"
       style="fill:#c8ab37" />
    <path
       fill-rule="evenodd"
       clip-rule="evenodd"
       d="M292.998 364.35C290.829 368.679 288.826 372.767 286.716 376.802C286.379 377.442 285.654 377.983 284.979 378.328C280.821 380.464 276.638 382.562 272.432 384.608C271.683 384.972 270.781 385.194 269.95 385.197C262.55 385.245 255.152 385.23 247.752 385.222C246.661 385.222 243.033 382.616 243.083 381.634C243.121 380.918 243.685 379.932 244.306 379.581C248.152 377.439 251.969 375.339 256.728 375.864C260.116 376.236 263.581 375.976 267.01 375.9C267.639 375.885 268.57 375.591 268.825 375.13C270.377 372.325 271.769 369.43 273.33 366.347C272.606 366.301 272.106 366.244 271.607 366.244C263.737 366.241 255.864 366.286 247.998 366.203C246.612 366.187 246.022 366.699 245.447 367.866C241.224 376.401 236.95 384.908 232.623 393.388C232.206 394.199 231.433 394.984 230.627 395.413C227.383 397.158 223.938 398.563 220.794 400.466C217.297 402.59 213.632 402.775 209.546 402.348C210.3 400.798 211.013 399.309 211.746 397.835C218.285 384.741 224.837 371.661 231.347 358.551C231.918 357.403 232.528 356.911 233.91 356.916C250.525 356.976 267.139 356.932 283.753 357.01C284.745 357.014 285.919 357.571 286.683 358.242C288.848 360.15 290.847 362.243 292.998 364.35Z"
       fill="#587591"
       id="path11"
       style="fill:#c8ab37" />
    <path
       fill-rule="evenodd"
       clip-rule="evenodd"
       d="M518.361 395.304C524.601 382.775 530.768 370.367 536.995 357.997C537.247 357.501 538.079 357.292 538.646 356.956C538.701 356.929 538.782 356.962 538.847 356.952C543.2 356.201 545.968 357.813 548.487 361.656C550.773 365.157 551.33 367.613 549.132 371.384C545.439 377.724 542.467 384.487 539.195 391.073C538.886 391.701 538.638 392.364 538.261 393.246H583.484C583.587 393.388 583.684 393.533 583.784 393.677C583.236 394.223 582.779 394.944 582.122 395.281C577.671 397.581 573.185 399.821 568.684 402.012C567.991 402.346 567.14 402.478 566.363 402.482C553.458 402.51 540.556 402.522 527.65 402.455C526.761 402.454 525.715 401.997 525.027 401.412C522.735 399.46 520.571 397.349 518.361 395.304Z"
       fill="#587591"
       id="path12"
       style="fill:#c8ab37" />
  </g>
</svg>
