<svg id="ba065ccf-d611-406c-91a5-0d1a2ff2b113" data-name="Calque 1" xmlns="http://www.w3.org/2000/svg" xmlns:xlink="http://www.w3.org/1999/xlink" viewBox="0 0 800 450"><defs><style>.e15473c8-79c6-41d3-bc18-df08e2ce3a48{fill:none;}.ee388382-2f34-45f1-be96-65bca819546c{clip-path:url(#b6af04b5-92a3-4ac7-9faa-47c5b5ca9389);}.b3313774-15be-453c-80a4-d84b1d9dd3e2{fill:#577590;}</style><clipPath id="b6af04b5-92a3-4ac7-9faa-47c5b5ca9389"><rect class="e15473c8-79c6-41d3-bc18-df08e2ce3a48" x="159" y="60.68" width="482" height="328.64"/></clipPath></defs><title>logo</title><g class="ee388382-2f34-45f1-be96-65bca819546c"><path class="b3313774-15be-453c-80a4-d84b1d9dd3e2" d="M633,327.93H612.42c-.67-3.56-1.59-6-3-7.4-2.25-2.32-6-3.42-11.14-3.42s-8.61.82-10.6,2.6a7.13,7.13,0,0,0-2.25,5.48c0,3.28,4.37,5.75,12.85,7.8a214.11,214.11,0,0,1,21.21,5.61,14.2,14.2,0,0,1,2.78,1.23c8.75,4.24,13,10.68,13,19.3,0,10.54-4.24,18.2-12.72,23.13l-3.18,1.64a45.59,45.59,0,0,1-19,3.7c-10.73,0-19.35-1.92-26-5.89a24,24,0,0,1-9.27-9.44A26.7,26.7,0,0,1,562.05,359h21.6c0,3.84,1.33,6.85,4,8.9s7.16,3.28,13.39,3.28c4.77,0,8.35-1.09,10.6-3a7,7,0,0,0,2.65-5.47c0-3.42-4.24-6.16-12.72-8.08-12.6-2.73-20.55-5.06-23.86-6.7-8.62-4.11-12.86-10.68-12.86-19.57a26.13,26.13,0,0,1,6.76-18.21c5.7-6.29,14.18-9.3,25.45-9.3,9.28,0,16.7,1.37,22.4,4.1a12.47,12.47,0,0,1,1.33.69,24.53,24.53,0,0,1,9.14,9A27.13,27.13,0,0,1,633,327.93Z"/><path class="b3313774-15be-453c-80a4-d84b1d9dd3e2" d="M511,175.32l58.32,100.19H475.75L420.07,179.7l-42.15-72.4,42.15-26.14,26.51-16.43Z"/><path class="b3313774-15be-453c-80a4-d84b1d9dd3e2" d="M553.29,345V386.1H533.93v-4.51a40.47,40.47,0,0,1-22.66,7H511c-23.06-.14-41.88-19.57-41.88-43.53s18.82-43.38,41.88-43.52h.27a40.47,40.47,0,0,1,22.66,7v-4.79h19.36Zm-19.36,4.66v-9c-2.12-10.94-11.53-19.29-22.66-19.29H511c-12.72.13-22.93,10.81-22.93,23.81S498.41,369,511,369.13h.27C522.53,369.13,532,360.65,533.93,349.7Z"/><path class="b3313774-15be-453c-80a4-d84b1d9dd3e2" d="M462.36,345.05v41.06H443v-4.52a40.85,40.85,0,0,1-22.67,7h-.26c-23.07-.14-41.89-19.57-41.89-43.52s18.82-43.39,41.89-43.52h.26a40.53,40.53,0,0,1,22.67,7v-33h19.35ZM443,349.7v-9c-2.12-10.95-11.53-19.3-22.67-19.3h-.26c-12.73.14-22.93,10.81-22.93,23.82s10.34,23.81,22.93,23.95h.26C431.48,369.14,441,360.65,443,349.7Z"/><path class="b3313774-15be-453c-80a4-d84b1d9dd3e2" d="M420.08,236.1,443,275.52H349.43l-52-89.23-2.25-3.84,2.25-1.37L364,139.75Z"/><path class="b3313774-15be-453c-80a4-d84b1d9dd3e2" d="M370.63,301.65H349.55v84.58h21.08Z"/><path class="b3313774-15be-453c-80a4-d84b1d9dd3e2" d="M370.63,275.92H349.55v19.16h21.08Z"/><path class="b3313774-15be-453c-80a4-d84b1d9dd3e2" d="M339.89,345.05v41.06H320.53v-4.52a41.21,41.21,0,0,1-22.79,7h-.27c-23.06-.14-41.89-19.57-41.89-43.52s18.83-43.39,41.89-43.52h.27a41.21,41.21,0,0,1,22.79,7v-33h19.36Zm-19.36,4.65v-9c-2.12-10.95-11.53-19.3-22.79-19.3h-.27c-12.72.14-22.93,10.81-22.93,23.82s10.34,23.81,22.93,23.95h.27C309,369.14,318.41,360.65,320.53,349.7Z"/><path class="b3313774-15be-453c-80a4-d84b1d9dd3e2" d="M297.47,242.52l19.22,33H223.11l-10.47-18.07,68.66-42.7Z"/><path class="b3313774-15be-453c-80a4-d84b1d9dd3e2" d="M248,345V386.1H228.68v-4.51a41.27,41.27,0,0,1-22.8,7h-.27c-23.06-.14-41.88-19.57-41.88-43.53s18.82-43.38,41.88-43.52h.27a41.27,41.27,0,0,1,22.8,7v-4.79H248Zm-19.35,4.66v-9c-2.12-10.94-11.53-19.29-22.8-19.29h-.27c-12.59.13-22.93,10.81-22.93,23.81S193,369,205.61,369.13h.27C217.15,369.13,226.56,360.65,228.68,349.7Z"/><path class="b3313774-15be-453c-80a4-d84b1d9dd3e2" d="M619.31,266.17a12.47,12.47,0,1,1-11.52,7.67,12.45,12.45,0,0,1,11.52-7.67Zm0,22.48a10,10,0,0,0,2.26-19.8,10.13,10.13,0,0,0-5.81.52,10,10,0,0,0-4.53,3.67,10.11,10.11,0,0,0-1.72,5.57,9.78,9.78,0,0,0,.62,3.86,9.6,9.6,0,0,0,9.18,6.18ZM614.58,271h5.5c3.36,0,5,1.34,5,4.32a4,4,0,0,1-.16,1.57,3.81,3.81,0,0,1-2,2.3,3.69,3.69,0,0,1-1.53.36l4.2,6h-2.92l-4.17-5.91h-1.41v5.91h-2.49Zm2.49,6.34h1.73c2,0,3.82-.09,3.82-2,0-1.7-1.69-2.06-3.33-2.06h-2.24Z"/></g></svg>