<svg id="bee42da3-b0ec-48e6-9be7-e832b71dda41" data-name="Calque 1" xmlns="http://www.w3.org/2000/svg" xmlns:xlink="http://www.w3.org/1999/xlink" viewBox="0 0 800 450"><defs><style>.fc12c60f-9f3b-43c3-ac38-68c5f161872a{fill:#fff;}.b385bf45-56a8-477e-bce9-16b86bf84224{fill:none;}.ff7598c5-4cca-4f89-af80-1532fff17e4c{clip-path:url(#a4601b11-0830-4724-bfde-2015e495fd31);}.e3038c3e-db4e-4e0c-839b-67a433396a7b{mask:url(#b930af2f-b58e-413d-a518-14780a75d52a);}.be44f403-09cf-4d3e-8e98-fa0905b33503,.f01af5b6-4d3d-4c51-9f2e-6190b58fa4b5{fill:#577590;}.be44f403-09cf-4d3e-8e98-fa0905b33503{fill-rule:evenodd;}</style><clipPath id="a4601b11-0830-4724-bfde-2015e495fd31"><rect class="b385bf45-56a8-477e-bce9-16b86bf84224" x="39" y="161.51" width="722" height="126.99"/></clipPath><mask id="b930af2f-b58e-413d-a518-14780a75d52a" x="39" y="161.51" width="722.7" height="126.99" maskUnits="userSpaceOnUse"><g id="e3fc6b46-2752-42f8-87f1-1ea473e067df" data-name="mask0 564 27172"><path class="fc12c60f-9f3b-43c3-ac38-68c5f161872a" d="M761,161.51H39v127H761Z"/></g></mask></defs><title>logo</title><g class="ff7598c5-4cca-4f89-af80-1532fff17e4c"><g class="e3038c3e-db4e-4e0c-839b-67a433396a7b"><path class="f01af5b6-4d3d-4c51-9f2e-6190b58fa4b5" d="M466.27,200.36h-.38c-11.52,0-15.93,2.56-20.83,6.1l.86-4.13H431.14l-12,60.59-.1.59h15.74l6.72-33.74c1.34-7,5.56-15.44,17.75-15.44h.1c4.32,0,7.39,1.18,9.21,3.44,2.11,2.66,2.6,6.69,1.44,12.49L463.58,263l-.1.59h15.84l7.29-37c1.16-5.8,1.54-14-3-19.57C480.09,202.62,474.33,200.46,466.27,200.36Z"/><path class="f01af5b6-4d3d-4c51-9f2e-6190b58fa4b5" d="M549.29,262.92l-.19.69h15.83l11.42-58,.1-.59H560.71Z"/><path class="f01af5b6-4d3d-4c51-9f2e-6190b58fa4b5" d="M580.48,184.72H564.64L562.05,198h15.84Z"/><path class="f01af5b6-4d3d-4c51-9f2e-6190b58fa4b5" d="M624.63,200.36a40.92,40.92,0,0,0-21,6.1l4.31-21.84H592.09l-8.16,41.31-7.29,36.89-.1.59h15.17l.95-4.62c5.09,4.33,11.71,6.59,19.2,6.59,18.72,0,36.85-14.56,40.4-32.56,1.64-8.46-.09-16.43-5-22.53C642.09,204,634,200.36,624.63,200.36Zm12.86,32.56c-2,10.33-12.58,18.69-23.61,18.69a16.85,16.85,0,0,1-13.35-5.91A15.06,15.06,0,0,1,597.75,233c2-10.33,12.58-18.69,23.61-18.69,5.47,0,10.37,2.16,13.34,5.9A15.73,15.73,0,0,1,637.49,232.92Z"/><path class="f01af5b6-4d3d-4c51-9f2e-6190b58fa4b5" d="M404.85,244.72a23,23,0,0,1-16.51,6.79c-5.38,0-9.89-2-12.67-5.41S372,238,373.08,232.92a24,24,0,0,1,8-13.48,22.11,22.11,0,0,1,14.2-5.21h.67c6.14,0,10.94,2.46,13.53,6.88l.29.5,12.48-8.36-.29-.4c-5.38-8-13.92-12.39-23.9-12.39-19.29,0-37.14,14.26-40.79,32.46-1.63,8.46.1,16.42,4.9,22.43,5.18,6.49,13.63,10.13,23.61,10.13a43.21,43.21,0,0,0,29-11.61l.38-.39-9.78-9Z"/><path class="f01af5b6-4d3d-4c51-9f2e-6190b58fa4b5" d="M694.11,214.33a12.36,12.36,0,0,1,1.92.1h.48l2.78-14.07h-.67c-9.21.3-13.44,2.16-18.72,6.1l.87-4.13H666l-12,60.59-.1.59h15.75l6.71-33.74C677.7,222.79,681.92,214.33,694.11,214.33Z"/><path class="f01af5b6-4d3d-4c51-9f2e-6190b58fa4b5" d="M490,262.92l-.1.69h15.84l11.42-58,.09-.59H501.4Z"/><path class="f01af5b6-4d3d-4c51-9f2e-6190b58fa4b5" d="M521.26,184.72H505.43L502.84,198h15.74Z"/><path class="f01af5b6-4d3d-4c51-9f2e-6190b58fa4b5" d="M324.71,200.46c-22.65,0-38.2,16.62-41.27,32.36v.1c-1.63,8.36.1,16.62,4.9,22.62,5.18,6.49,13.34,9.84,23.61,9.84a41.24,41.24,0,0,0,29-11.41l.38-.4-9.79-9.14-.28.29A23.52,23.52,0,0,1,315,251.51c-9.22,0-15.84-5.61-16-13.57h52.5l.09-.3a30.11,30.11,0,0,0,1.25-4.62c1.73-8.56-.1-16.82-4.8-22.82C342.94,203.8,334.88,200.46,324.71,200.46ZM322,214.23c10.08,0,15.45,4.23,15.55,12.2h-36A23.94,23.94,0,0,1,322,214.23Z"/><path class="f01af5b6-4d3d-4c51-9f2e-6190b58fa4b5" d="M314.25,184.72H234.78L232.19,198h29.27L248.7,262.92l-.1.69h15.74l13-65.61h29.46Z"/><path class="f01af5b6-4d3d-4c51-9f2e-6190b58fa4b5" d="M556.77,205H544.68c1.34-6.29,4.42-7,11.23-7h.38l2.59-13.28h-.57c-12.29,0-25.82,1.57-29.37,19.57l-11.52,58.63-.09.59h15.83l9.31-47.12h7.87Z"/><path class="f01af5b6-4d3d-4c51-9f2e-6190b58fa4b5" d="M756.21,210.1c-5.09-6.3-13.06-9.64-23.23-9.64-22.65,0-38.2,16.62-41.27,32.36v.1c-1.63,8.36.09,16.62,4.89,22.62,5.19,6.49,13.35,9.84,23.61,9.84a41.25,41.25,0,0,0,29-11.41l.38-.4-9.79-9.14-.29.29a23.48,23.48,0,0,1-16.22,6.79c-9.21,0-15.83-5.61-16-13.57h52.49l.1-.3A30.11,30.11,0,0,0,761.1,233C762.73,224.36,761,216.1,756.21,210.1Zm-25.92,4.13c10.08,0,15.45,4.23,15.55,12.2h-36A23.94,23.94,0,0,1,730.29,214.23Z"/><path class="be44f403-09cf-4d3e-8e98-fa0905b33503" d="M176.15,224.36l13.34-23.61H133.34L97.26,264.89l13.24,23.6,36.18-64.13Z"/><path class="be44f403-09cf-4d3e-8e98-fa0905b33503" d="M211.56,161.51H39l13.34,23.6H97.83L75.09,225.64l13.34,23.61,36.08-64.14h73.71Z"/></g></g></svg>