<?xml version="1.0" encoding="UTF-8" standalone="no"?>
<!-- Uploaded to: SVG Repo, www.svgrepo.com, Generator: SVG Repo Mixer Tools -->

<svg
   version="1.1"
   viewBox="0 0 500 500"
   xml:space="preserve"
   id="svg7"
   sodipodi:docname="default4.svg"
   inkscape:version="1.3 (0e150ed6c4, 2023-07-21)"
   xmlns:inkscape="http://www.inkscape.org/namespaces/inkscape"
   xmlns:sodipodi="http://sodipodi.sourceforge.net/DTD/sodipodi-0.dtd"
   xmlns="http://www.w3.org/2000/svg"
   xmlns:svg="http://www.w3.org/2000/svg"><defs
   id="defs7" /><sodipodi:namedview
   id="namedview7"
   pagecolor="#ffffff"
   bordercolor="#000000"
   borderopacity="0.25"
   inkscape:showpageshadow="2"
   inkscape:pageopacity="0.0"
   inkscape:pagecheckerboard="0"
   inkscape:deskcolor="#d1d1d1"
   inkscape:zoom="2.346"
   inkscape:cx="250"
   inkscape:cy="250"
   inkscape:window-width="2560"
   inkscape:window-height="1369"
   inkscape:window-x="2552"
   inkscape:window-y="-8"
   inkscape:window-maximized="1"
   inkscape:current-layer="svg7" />&#10;<style
   type="text/css"
   id="style1">&#10;	.st0{fill:#FFFFFF;stroke:#FFFFFF;stroke-width:10;stroke-miterlimit:10;}&#10;	.st1{fill:#856240;}&#10;	.st2{fill:#ABE2FF;}&#10;	.st3{fill:#90D683;}&#10;	.st4{fill:#FFFFFF;}&#10;	.st5{fill:#69AB5C;}&#10;</style>&#10;<g
   id="border">&#10;	<rect
   x="69.681"
   y="119.045"
   class="st0"
   width="372.34"
   height="275.208"
   id="rect1" />&#10;</g>&#10;<g
   id="object"
   transform="rotate(-90,255.851,256.649)">&#10;	<g
   id="g7">&#10;		<rect
   x="69.681"
   y="119.045"
   class="st1"
   width="372.34"
   height="275.20801"
   id="rect2" />&#10;		<rect
   x="84.573997"
   y="130.05299"
   class="st2"
   width="342.55301"
   height="253.19099"
   id="rect3" />&#10;		<path
   class="st3"
   d="M 307.447,355.053 C 218.01,304.338 177.66,265.691 177.66,265.691 c -14.052,-14.052 -25.436,-26.197 -43.617,-27.66 -18.398,-1.48 -35.868,8.951 -49.468,22.244 v 122.969 h 285.547 c -16.59,-5.519 -37.59,-13.967 -62.675,-28.191 z"
   id="path3" />&#10;		<path
   class="st4"
   d="m 427.128,133.643 c -4.302,-1.091 -8.891,-1.95 -13.707,-2.531 -0.22,-0.356 -0.456,-0.708 -0.701,-1.058 H 231.469 c -2.641,4.309 -4.121,9.076 -4.121,14.097 0,16.992 16.818,31.122 39.021,34.112 -3.75,3.915 -5.857,8.281 -5.857,12.889 0,16.827 27.937,30.467 62.4,30.467 13.641,0 26.25,-2.143 36.518,-5.769 7.672,7.425 22.245,12.443 38.973,12.443 10.938,0 20.954,-2.147 28.725,-5.706 z"
   id="path4" />&#10;		<path
   class="st4"
   d="m 219.873,189.05 c 0,-5.455 -9.182,-9.877 -20.509,-9.877 -11.327,0 -20.509,4.422 -20.509,9.877 0,5.455 9.182,9.877 20.509,9.877 2.642,0 5.159,-0.249 7.478,-0.687 0.598,4.299 6.2,7.669 13.031,7.669 7.23,0 13.091,-3.774 13.091,-8.43 0,-4.655 -5.861,-8.429 -13.091,-8.429 z"
   id="path5" />&#10;		<path
   class="st4"
   d="m 111.655,135.685 c 0,11.809 21.295,21.382 47.564,21.382 26.269,0 47.564,-9.573 47.564,-21.382 0,-1.95 -0.592,-3.837 -1.68,-5.632 h -91.768 c -1.089,1.795 -1.68,3.682 -1.68,5.632 z"
   id="path6" />&#10;		<path
   class="st5"
   d="M 407.447,362.5 C 318.01,311.785 277.66,273.138 277.66,273.138 c -14.052,-14.052 -25.436,-26.197 -43.617,-27.66 -19.409,-1.561 -37.784,10.134 -51.672,24.461 12.973,11.349 53.145,44.325 125.077,85.113 25.085,14.224 46.085,22.671 62.675,28.192 h 57.006 V 372.94 c -6.253,-3.088 -12.812,-6.544 -19.682,-10.44 z"
   id="path7" />&#10;	</g>&#10;</g>&#10;</svg>
