<?xml version="1.0" encoding="UTF-8" standalone="no"?>
<!-- Uploaded to: SVG Repo, www.svgrepo.com, Transformed by: SVG Repo Mixer Tools -->

<svg
   version="1.1"
   id="Layer_1"
   viewBox="0 0 512 512"
   xml:space="preserve"
   width="800px"
   height="800px"
   fill="#000000"
   sodipodi:docname="invoice-cancelled.svg"
   inkscape:version="1.3 (0e150ed6c4, 2023-07-21)"
   xmlns:inkscape="http://www.inkscape.org/namespaces/inkscape"
   xmlns:sodipodi="http://sodipodi.sourceforge.net/DTD/sodipodi-0.dtd"
   xmlns="http://www.w3.org/2000/svg"
   xmlns:svg="http://www.w3.org/2000/svg"><defs
   id="defs21" /><sodipodi:namedview
   id="namedview21"
   pagecolor="#ffffff"
   bordercolor="#000000"
   borderopacity="0.25"
   inkscape:showpageshadow="2"
   inkscape:pageopacity="0.0"
   inkscape:pagecheckerboard="0"
   inkscape:deskcolor="#d1d1d1"
   inkscape:zoom="2.9325"
   inkscape:cx="454.04945"
   inkscape:cy="586.01876"
   inkscape:window-width="2560"
   inkscape:window-height="1369"
   inkscape:window-x="2552"
   inkscape:window-y="-8"
   inkscape:window-maximized="1"
   inkscape:current-layer="Layer_1" />&#10;&#10;<g
   id="SVGRepo_bgCarrier"
   stroke-width="0" />&#10;&#10;<g
   id="SVGRepo_tracerCarrier"
   stroke-linecap="round"
   stroke-linejoin="round" />&#10;&#10;<g
   id="SVGRepo_iconCarrier"> <path
   style="fill:#ffffff;"
   d="M354.338,42.221H80.701c-14.168,0-25.653,11.485-25.653,25.653v359.148 c0,14.168,11.485,25.653,25.653,25.653h273.637c14.168,0,25.653-11.485,25.653-25.653V67.875 C379.992,53.707,368.506,42.221,354.338,42.221z"
   id="path1" /> <rect
   x="89.253"
   y="76.426"
   style="fill:#F1F4FB;"
   width="256.534"
   height="342.046"
   id="rect1" />  <path
   style="fill:#ffffff;"
   d="M268.827,25.119h-21.846c-5.925-10.181-16.833-17.102-29.461-17.102s-23.536,6.921-29.461,17.102 h-21.846c-9.446,0-17.102,7.656-17.102,17.102v34.205h136.818V42.221C285.929,32.775,278.273,25.119,268.827,25.119z"
   id="path3" /> <circle
   style="fill:#ed5050;"
   cx="371.441"
   cy="418.472"
   r="85.511"
   id="circle3" /> <g
   id="g6"> <circle
   style="fill:#ffffff;"
   cx="157.662"
   cy="161.937"
   r="17.102"
   id="circle4" /> <circle
   style="fill:#ffffff;"
   cx="157.662"
   cy="332.96"
   r="17.102"
   id="circle5" /> <circle
   style="fill:#ffffff;"
   cx="157.662"
   cy="247.449"
   r="17.102"
   id="circle6" /> </g> <path
   style="fill:#db3d3d;"
   d="M385.805,451.626c-23.852-4.434-43.104-23.696-47.524-47.551c-1.475-7.959-1.341-15.679,0.107-22.925 c1.068-5.341-5.181-9.003-9.054-5.175c-12.837,12.696-19.962,31.145-17.138,51.188c3.643,25.855,24.696,46.908,50.551,50.551 c20.043,2.824,38.493-4.3,51.189-17.139c3.83-3.873,0.168-10.121-5.172-9.054C401.507,452.976,393.775,453.107,385.805,451.626z"
   id="path6" /> <path
   d="M251.724,444.66H80.701c-9.725,0-17.637-7.912-17.637-17.637V67.875c0-9.725,7.912-17.637,17.637-17.637h60.394v26.188 c0,4.427,3.589,8.017,8.017,8.017H285.93c4.427,0,8.017-3.589,8.017-8.017V50.238h60.391c9.725,0,17.637,7.912,17.637,17.637 v230.881c0,4.427,3.589,8.017,8.017,8.017c4.427,0,8.017-3.589,8.017-8.017V67.875c0-18.566-15.105-33.67-33.67-33.67h-61.71 c-3.354-9.93-12.752-17.102-23.8-17.102h-17.547C243.359,6.451,230.813,0,217.521,0c-13.292,0-25.839,6.451-33.76,17.102h-17.547 c-11.048,0-20.446,7.172-23.8,17.102H80.701c-18.566,0-33.67,15.105-33.67,33.67v359.148c0,18.566,15.105,33.67,33.67,33.67h171.023 c4.427,0,8.017-3.589,8.017-8.017C259.741,448.249,256.152,444.66,251.724,444.66z M166.214,33.136h21.846 c2.854,0,5.493-1.517,6.929-3.985c4.781-8.213,13.204-13.117,22.532-13.117c9.328,0,17.751,4.904,22.532,13.117 c1.436,2.467,4.075,3.985,6.929,3.985h21.846c4.999,0,9.067,4.059,9.085,9.055c0,0.011-0.001,0.02-0.001,0.031 c0,0.021,0.003,0.041,0.003,0.062v26.126H157.129V42.252c0-0.011,0.001-0.02,0.001-0.031c0-0.005-0.001-0.011-0.001-0.015 C157.138,37.203,161.209,33.136,166.214,33.136z"
   id="path7" /> <path
   d="M114.909,84.443c4.427,0,8.017-3.589,8.017-8.017s-3.589-8.017-8.017-8.017H89.253c-4.427,0-8.017,3.589-8.017,8.017 v342.046c0,4.427,3.589,8.017,8.017,8.017h162.47c4.427,0,8.017-3.589,8.017-8.017c0-4.427-3.589-8.017-8.017-8.017H97.269V84.443 H114.909z"
   id="path8" /> <path
   d="M345.787,306.77c4.427,0,8.017-3.589,8.017-8.017V76.426c0-4.427-3.589-8.017-8.017-8.017h-25.653 c-4.427,0-8.017,3.589-8.017,8.017s3.589,8.017,8.017,8.017h17.637v214.311C337.77,303.181,341.36,306.77,345.787,306.77z"
   id="path9" /> <path
   d="M294.48,171.023h-85.511c-4.427,0-8.017,3.589-8.017,8.017s3.589,8.017,8.017,8.017h85.511c4.427,0,8.017-3.589,8.017-8.017 S298.908,171.023,294.48,171.023z"
   id="path10" /> <path
   d="M208.969,152.852h59.858c4.427,0,8.017-3.589,8.017-8.017c0-4.427-3.589-8.017-8.017-8.017h-59.858 c-4.427,0-8.017,3.589-8.017,8.017C200.952,149.262,204.541,152.852,208.969,152.852z"
   id="path11" /><path
   d="m 134.32423,147.94671 36.30129,36.30129 c 2.68479,2.68478 6.667,3.05692 8.89401,0.82991 2.2265,-2.2265 1.85548,-6.20861 -0.82992,-8.89401 l -36.30128,-36.30128 c -2.68479,-2.68479 -6.66701,-3.05693 -8.89401,-0.82992 -2.22651,2.2265 -1.85548,6.20862 0.82991,8.89401 z"
   id="path11-9"
   style="stroke-width:0.781037" /><path
   d="m 170.35753,140.12489 -36.30129,36.30129 c -2.68478,2.68479 -3.05692,6.667 -0.82991,8.89401 2.2265,2.2265 6.20861,1.85548 8.89401,-0.82992 l 36.30128,-36.30128 c 2.68479,-2.68479 3.05693,-6.66701 0.82992,-8.89401 -2.2265,-2.22651 -6.20862,-1.85548 -8.89401,0.82991 z"
   id="path11-9-4"
   style="stroke-width:0.781037" /><path
   d="m 134.70102,233.11392 36.30129,36.30129 c 2.68479,2.68478 6.667,3.05692 8.89401,0.82991 2.2265,-2.2265 1.85548,-6.20861 -0.82992,-8.89401 l -36.30128,-36.30128 c -2.68479,-2.68479 -6.66701,-3.05693 -8.89401,-0.82992 -2.22651,2.2265 -1.85548,6.20862 0.82991,8.89401 z"
   id="path11-9-7"
   style="stroke-width:0.781037"
   inkscape:transform-center-x="-0.13399967"
   inkscape:transform-center-y="1.7307274" /><path
   d="m 170.73432,225.2921 -36.30129,36.30129 c -2.68478,2.68479 -3.05692,6.667 -0.82991,8.89401 2.2265,2.2265 6.20861,1.85548 8.89401,-0.82992 l 36.30128,-36.30128 c 2.68479,-2.68479 3.05693,-6.66701 0.82992,-8.89401 -2.2265,-2.22651 -6.20862,-1.85548 -8.89401,0.82991 z"
   id="path11-9-4-7"
   style="stroke-width:0.781037"
   inkscape:transform-center-x="0.13398826"
   inkscape:transform-center-y="1.9730045" /><path
   d="m 134.67831,318.91934 36.30129,36.30129 c 2.68479,2.68478 6.667,3.05692 8.89401,0.82991 2.2265,-2.2265 1.85548,-6.20861 -0.82992,-8.89401 l -36.30128,-36.30128 c -2.68479,-2.68479 -6.66701,-3.05693 -8.89401,-0.82992 -2.22651,2.2265 -1.85548,6.20862 0.82991,8.89401 z"
   id="path11-9-5"
   style="stroke-width:0.781037" /><path
   d="m 170.71161,311.09752 -36.30129,36.30129 c -2.68478,2.68479 -3.05692,6.667 -0.82991,8.89401 2.2265,2.2265 6.20861,1.85548 8.89401,-0.82992 l 36.30128,-36.30128 c 2.68479,-2.68479 3.05693,-6.66701 0.82992,-8.89401 -2.2265,-2.22651 -6.20862,-1.85548 -8.89401,0.82991 z"
   id="path11-9-4-6"
   style="stroke-width:0.781037" />  <path
   d="M371.441,324.944c-51.572,0-93.528,41.956-93.528,93.528S319.869,512,371.441,512s93.528-41.956,93.528-93.528 S423.012,324.944,371.441,324.944z M371.441,495.967c-42.731,0-77.495-34.764-77.495-77.495s34.764-77.495,77.495-77.495 s77.495,34.764,77.495,77.495S414.172,495.967,371.441,495.967z"
   id="path13" />  <path
   d="M208.969,272.568h85.511c4.427,0,8.017-3.589,8.017-8.017c0-4.427-3.589-8.017-8.017-8.017h-85.511 c-4.427,0-8.017,3.589-8.017,8.017C200.952,268.979,204.541,272.568,208.969,272.568z"
   id="path15" /> <path
   d="M208.969,238.363h59.858c4.427,0,8.017-3.589,8.017-8.017s-3.589-8.017-8.017-8.017h-59.858 c-4.427,0-8.017,3.589-8.017,8.017S204.541,238.363,208.969,238.363z"
   id="path16" />  <path
   d="M268.827,342.046h-59.858c-4.427,0-8.017,3.589-8.017,8.017c0,4.427,3.589,8.017,8.017,8.017h59.858 c4.427,0,8.017-3.589,8.017-8.017C276.843,345.635,273.254,342.046,268.827,342.046z"
   id="path18" /> <path
   d="M268.827,307.841h-59.858c-4.427,0-8.017,3.589-8.017,8.017c0,4.427,3.589,8.017,8.017,8.017h59.858 c4.427,0,8.017-3.589,8.017-8.017C276.843,311.431,273.254,307.841,268.827,307.841z"
   id="path19" />  <path
   d="M217.607,50.238c4.427,0,8.017-3.589,8.017-8.017s-3.589-8.017-8.017-8.017h-0.086c-4.427,0-7.974,3.589-7.974,8.017 S213.179,50.238,217.607,50.238z"
   id="path21" /> <path
   style="fill:#ed5050;fill-opacity:1;stroke-width:0.482255"
   d="m 213.95556,214.32385 c -5.44293,-0.16092 -9.63434,5.59387 -8.14653,10.76691 1.12671,5.83416 6.73247,9.19273 10.32026,13.46861 4.8379,4.88535 9.6871,9.75981 14.53095,14.63971 -7.78936,8.20751 -16.41518,15.68721 -23.5024,24.53003 -4.05013,4.78341 -1.57309,13.21855 4.63825,14.6123 5.23453,1.55534 9.90592,-2.53247 13.24234,-6.03675 6.54384,-6.36382 12.97308,-12.84461 19.46405,-19.2624 8.11401,7.71757 15.57732,16.17241 24.19377,23.33475 4.5588,3.21872 12.21871,2.12108 14.14929,-3.62633 2.37369,-5.13374 -1.29804,-10.4144 -4.9772,-13.76842 -6.41337,-6.69621 -13.01797,-13.20622 -19.52269,-19.81332 7.8413,-8.14773 16.30523,-15.77259 23.49959,-24.50365 2.87871,-4.81086 0.8201,-12.12794 -4.90639,-13.59263 -5.09149,-1.59882 -9.95327,1.64882 -13.21333,5.29375 -6.48752,6.2433 -12.81765,12.64813 -19.23058,18.96784 -8.37981,-7.97423 -16.09729,-16.73644 -25.17335,-23.93192 -1.65339,-0.8169 -3.53096,-1.13973 -5.36603,-1.07848 z"
   id="path22"
   transform="scale(0.64)" /><path
   style="fill:#ed5050;fill-opacity:1;stroke-width:0.482255"
   d="m 214.44253,347.35001 c -5.90468,-0.0595 -9.53146,6.55115 -7.76224,11.79735 2.73492,5.98233 8.37402,9.9917 12.66743,14.80728 4.09567,4.10634 8.19435,8.20967 12.29116,12.31487 -8.24973,8.62004 -17.29181,16.56118 -24.79564,25.85529 -2.29327,4.58124 -0.83077,11.29839 4.50513,12.92387 4.75666,2.29075 9.89536,-1.13542 13.06069,-4.57066 7.00664,-6.70112 13.7072,-13.71971 20.84035,-20.28903 8.4978,7.71569 16.03023,16.50819 24.94352,23.74825 5.1662,3.38591 13.45295,0.0332 13.82717,-6.38518 1.01407,-6.10185 -4.81623,-10.12848 -8.29739,-14.20285 -5.59938,-5.72935 -11.28163,-11.37649 -16.91835,-17.06933 7.67018,-8.10481 16.2885,-15.39568 23.15579,-24.22014 3.71684,-4.87829 1.16202,-13.18192 -5.21815,-14.11444 -4.46516,-1.1568 -8.46439,1.67441 -11.30815,4.80861 -6.80289,6.48541 -13.29639,13.26231 -20.20611,19.62628 -8.43194,-7.54567 -15.83634,-16.22228 -24.5969,-23.38749 -1.80039,-1.20535 -4.04003,-1.71254 -6.18831,-1.64268 z"
   id="path23"
   transform="scale(0.64)" /><path
   style="fill:#ed5050;fill-opacity:1;stroke-width:0.482255"
   d="m 214.35776,481.40001 c -6.03447,0.17021 -10.02139,7.32497 -7.47967,12.70442 1.98293,4.56586 6.36208,7.56032 9.48582,11.31616 4.88529,5.01682 9.85258,9.95314 14.77671,14.9319 -7.81335,8.27162 -16.57295,15.7309 -23.58624,24.71841 -3.39706,4.62301 -1.83719,12.59638 4.14344,14.18037 4.38493,1.54164 9.06052,-0.75299 11.9375,-4.08661 7.28186,-6.81397 14.23174,-13.97132 21.34282,-20.96146 8.36758,7.97429 16.12427,16.69531 25.1677,23.90743 4.89719,2.77156 12.60934,0.63967 13.56154,-5.40748 0.82839,-3.85365 -0.40677,-7.98728 -3.52272,-10.49847 -6.90078,-7.4934 -14.21258,-14.59206 -21.36335,-21.84371 7.7084,-8.17464 16.33843,-15.55754 23.2773,-24.41983 4.0433,-5.3015 -0.0995,-14.58531 -7.06429,-14.04286 -4.30251,-0.387 -7.61436,2.5967 -10.42771,5.42692 -6.70345,6.22551 -13.09889,12.77127 -19.62847,19.17658 -8.0344,-7.67866 -15.46418,-16.03542 -23.95641,-23.2123 -1.9164,-1.31956 -4.36223,-1.8748 -6.66397,-1.88947 z"
   id="path24"
   transform="scale(0.64)" /></g><g
   id="g18-5-2"
   transform="matrix(-0.823633,-0.823633,0.62082111,-0.62082111,414.90262,788.97774)">&#10;	<g
   id="g17-1-2">&#10;		<path
   d="m 294.48,256.534 h -85.511 c -4.427,0 -8.017,3.589 -8.017,8.017 0,4.428 3.589,8.017 8.017,8.017 h 85.511 c 4.427,0 8.017,-3.589 8.017,-8.017 0,-4.428 -3.589,-8.017 -8.017,-8.017 z"
   id="path16-5-4" />&#10;	</g>&#10;</g>&#10;&#10;<g
   id="g18-5-2-8"
   transform="matrix(0.823633,-0.823633,0.62082111,0.62082111,0.53250036,460.44505)">&#10;	<g
   id="g17-1-2-2">&#10;		<path
   d="m 294.48,256.534 h -85.511 c -4.427,0 -8.017,3.589 -8.017,8.017 0,4.428 3.589,8.017 8.017,8.017 h 85.511 c 4.427,0 8.017,-3.589 8.017,-8.017 0,-4.428 -3.589,-8.017 -8.017,-8.017 z"
   id="path16-5-4-5" />&#10;	</g>&#10;</g></svg>
