<svg xmlns="http://www.w3.org/2000/svg" width="575" height="463" viewBox="0 0 575 463" version="1.1">
	<path d="M 362.243 72.959 C 329.767 81.704, 295.975 114.642, 273.186 159.767 C 264.455 177.056, 259.593 189.370, 255.724 204 C 253.067 214.047, 252.678 217.206, 252.652 229 C 252.626 240.525, 252.954 243.445, 254.893 248.962 C 257.990 257.772, 261.462 263.420, 267.477 269.427 C 282.893 284.824, 307.124 288.105, 331.167 278.052 C 350.945 269.781, 374.753 246.866, 389.506 221.900 C 395.066 212.491, 395.976 209.376, 393.800 207.200 C 390.799 204.199, 388.136 205.848, 381.763 214.653 C 363.236 240.251, 350.257 253.377, 333.500 263.462 C 321.741 270.539, 307.038 272.936, 296.795 269.446 C 280.062 263.744, 272.360 241.459, 277.582 213.860 C 285.608 171.446, 322.018 111.821, 351.559 92.715 C 368.489 81.766, 385.948 81.019, 394.252 90.887 C 397.568 94.829, 398.384 98.991, 397.766 108.820 C 397.213 117.621, 392.866 129.519, 385.451 142.531 C 383.003 146.827, 381 150.907, 381 151.599 C 381 153.711, 383.995 156, 386.760 156 C 392.436 156, 398.505 149.129, 405.839 134.402 C 411.629 122.774, 413.457 115.502, 413.479 104 C 413.498 94.524, 413.240 93.012, 410.836 88.500 C 407.396 82.042, 401.779 76.675, 395.500 73.846 C 388.393 70.643, 372.425 70.217, 362.243 72.959 M 497.831 71.959 C 481.372 74.964, 470.327 80.576, 459.463 91.453 C 450.276 100.653, 445.918 108.091, 442.975 119.596 C 439.580 132.871, 440.626 142.167, 447.013 155.500 C 450.795 163.395, 456.885 171.377, 472.178 188.487 C 481.923 199.388, 486.309 206.012, 488.923 213.772 C 493.853 228.405, 489.867 242.906, 477.281 256.132 C 461.913 272.280, 435.725 275.455, 420.082 263.065 C 406.891 252.617, 407.116 227.288, 420.562 209.022 C 425.379 202.480, 426.155 198.689, 423.023 197.012 C 416.989 193.783, 403.089 207.245, 396.693 222.513 C 382.804 255.670, 402.902 282.921, 441.292 282.985 C 462.722 283.021, 481.367 275.092, 495.338 260.001 C 505.581 248.938, 511.020 234.975, 510.976 219.856 C 510.924 202.066, 506.799 193.843, 485.915 169.899 C 468.946 150.445, 464.359 140.434, 465.187 124.667 C 465.556 117.619, 466.197 115.037, 468.988 109.345 C 473.313 100.523, 481.339 92.587, 490.520 88.054 C 496.471 85.116, 498.753 84.555, 506 84.245 C 519.655 83.660, 525.074 87.791, 525.809 99.346 C 526.481 109.898, 522.172 123.051, 514.190 134.810 C 510.051 140.906, 510.503 143.282, 515.903 143.817 C 518.693 144.094, 519.902 143.320, 525.302 137.799 C 535.534 127.340, 540.966 114.233, 540.988 99.946 C 541.008 87.079, 535.045 78.410, 523.097 73.937 C 516.968 71.642, 504.788 70.688, 497.831 71.959 M 198 72.612 C 189.599 73.647, 174.036 77.403, 164.747 80.636 C 142.535 88.368, 124.399 99.462, 109.413 114.485 C 101.306 122.612, 98.529 126.189, 95.270 132.701 C 84.690 153.838, 88.434 175.059, 104.157 183.080 C 112.670 187.423, 115.143 183.718, 110.384 173.751 C 107.939 168.630, 107.500 166.475, 107.500 159.605 C 107.500 152.364, 107.883 150.700, 111.088 144 C 119.833 125.722, 139.103 108.004, 162.138 97.062 C 175.204 90.855, 182.455 88.443, 194.186 86.400 C 217.435 82.351, 235.104 88.531, 242.724 103.377 C 245.914 109.591, 246.990 122.946, 245.021 131.886 C 239.478 157.050, 214.973 183.152, 187.042 193.643 C 173.898 198.580, 155.490 201.311, 148.320 199.388 C 146.148 198.806, 146.153 198.776, 149.444 191.652 C 156.378 176.645, 162.742 163.461, 178.115 132.259 C 186.852 114.526, 194 99.204, 194 98.209 C 194 95.746, 192.064 94, 189.335 94 C 183.737 94, 178.433 101.380, 156.279 140 C 133.569 179.587, 90.841 267.075, 90.766 274.139 C 90.709 279.492, 94.717 286.118, 99.393 288.401 C 103.145 290.233, 103.405 290.237, 106.590 288.521 C 110.505 286.413, 111.166 285.107, 119.482 263.049 C 125.522 247.025, 133.042 228.534, 138.675 215.849 L 141.184 210.199 150.971 210.738 C 183.887 212.552, 219.245 199.159, 243.847 175.558 C 264.800 155.457, 273.711 133.766, 269.622 112.817 C 265.678 92.615, 253.654 80.447, 232.144 74.889 C 224.655 72.954, 205.556 71.680, 198 72.612 M 78.481 324.470 C 66.372 327.106, 60 331.369, 60 336.832 C 60 340.513, 62.479 342.820, 64.834 341.330 C 65.750 340.750, 66.507 339.599, 66.515 338.773 C 66.540 336.246, 68.759 334.381, 75.156 331.511 C 83.319 327.847, 95.771 326.966, 101 329.682 C 107.560 333.089, 105.716 341.002, 96.628 348.449 C 92.456 351.867, 82.664 356.971, 80.242 356.990 C 79.492 356.996, 81.232 352.517, 84.543 345.914 C 88.958 337.112, 89.861 334.537, 88.929 333.414 C 84.699 328.318, 78.948 336.041, 66.696 363.269 C 62.022 373.655, 61.148 376.407, 62.010 378.019 C 64.658 382.967, 68.998 379.285, 73.546 368.230 L 76.361 361.389 82.277 360.265 C 101.903 356.535, 117.689 338.502, 109.945 328.657 C 105.863 323.468, 91.723 321.586, 78.481 324.470 M 266.266 325.993 C 255.292 331.533, 245.675 345.325, 243.037 359.306 C 241.914 365.257, 241.974 366.275, 243.646 369.639 C 246.352 375.085, 249.815 377.231, 255.897 377.231 C 262.518 377.231, 270.153 373.533, 277.689 366.677 C 281.111 363.564, 283.070 362.297, 282.604 363.500 C 281.026 367.577, 280.755 372, 281.993 373.492 C 284.290 376.260, 290.374 375.361, 295.423 371.507 L 300 368.013 300 370.484 C 300 373.714, 304.061 376.453, 307.552 375.576 C 308.963 375.222, 312.117 373.090, 314.559 370.839 L 319 366.745 319 369.673 C 319 371.283, 319.540 373.140, 320.200 373.800 C 322.014 375.614, 327.105 375.234, 330.750 373.011 C 333.893 371.095, 334 371.091, 334 372.908 C 334 375.733, 337.013 376.366, 339.988 374.167 C 342.554 372.270, 342.616 372.271, 345.027 374.223 C 351.870 379.764, 364.614 370.772, 368.510 357.655 C 371.523 347.509, 369.897 343, 363.228 343 C 360.109 343, 358.782 343.839, 353.799 348.963 C 350.610 352.243, 348 354.735, 348 354.501 C 348 354.266, 350.983 347.719, 354.628 339.951 C 360.272 327.923, 361.050 325.622, 359.872 324.443 C 357.640 322.211, 354.111 323.863, 351.915 328.167 C 350.817 330.318, 347.220 338.923, 343.920 347.289 C 339.047 359.644, 337.138 363.298, 333.752 366.750 C 329.662 370.920, 327.653 371.866, 326.578 370.126 C 325.965 369.135, 329.477 360.321, 333.917 351.705 C 336.883 345.949, 337.043 343.614, 334.537 342.653 C 332.204 341.757, 329.156 344.911, 325.345 352.162 C 321.202 360.047, 311.465 371, 308.598 371 C 305.951 371, 306.954 366.999, 312.622 354.948 C 317.282 345.043, 317.649 342, 314.186 342 C 311.560 342, 309.842 344.245, 305.007 354 C 302.689 358.675, 299.602 363.778, 298.147 365.339 C 294.908 368.814, 290.047 371.466, 288.991 370.335 C 287.454 368.687, 291.146 358.236, 298.574 343.211 C 302.731 334.802, 305.985 327.152, 305.806 326.211 C 305.626 325.270, 304.525 324.363, 303.357 324.196 C 300.118 323.732, 296.163 329.377, 290.500 342.548 C 285.943 353.147, 284.890 354.755, 278.617 360.696 C 267.444 371.279, 256.071 375.090, 252.397 369.484 C 247.523 362.044, 258.323 338.191, 269.885 330.858 C 274.945 327.649, 277.184 327.312, 278.989 329.487 C 280.706 331.556, 279.545 335.309, 275.908 339.452 C 272.745 343.055, 272.761 345, 275.955 345 C 278.036 345, 283.658 339.029, 285.067 335.324 C 287.736 328.304, 284.929 323.972, 277.260 323.277 C 273.375 322.925, 271.354 323.424, 266.266 325.993 M 179.828 325.023 C 178.908 325.567, 176.029 329.947, 173.430 334.756 C 170.832 339.565, 168.605 343.629, 168.482 343.787 C 168.359 343.946, 167.110 343.551, 165.706 342.912 C 159.018 339.865, 149.423 346.333, 143.856 357.641 C 139.443 366.606, 130 374.659, 130 369.459 C 130 368.611, 131.800 364.245, 134 359.757 C 136.200 355.268, 138 351.060, 138 350.404 C 138 349.748, 136.642 347.758, 134.982 345.981 C 132.743 343.584, 130.853 342.625, 127.658 342.265 C 119.179 341.309, 111.458 347.815, 107.032 359.643 C 103.247 369.762, 104.847 375.486, 111.411 375.300 C 114.992 375.198, 122 370.995, 122 368.949 C 122 368.427, 122.436 368, 122.969 368 C 123.501 368, 123.692 368.640, 123.392 369.422 C 123.092 370.204, 123.346 371.779, 123.958 372.922 C 125.733 376.238, 132.057 375.767, 136.347 372 C 140.367 368.470, 141 368.331, 141 370.977 C 141 372.064, 142.107 373.679, 143.459 374.565 C 146.921 376.833, 150.944 375.681, 156.433 370.850 L 161 366.830 161 369.715 C 161 373.591, 162.653 375, 167.197 375 C 170.155 375, 171.879 374.201, 174.997 371.384 C 177.944 368.721, 179 368.206, 179 369.429 C 179 370.343, 180.105 372.195, 181.455 373.545 C 185.754 377.845, 194.667 376.535, 201.750 370.563 L 205 367.822 205 370.256 C 205 375.702, 212.518 377.811, 218.634 374.081 C 222.538 371.701, 227.401 365.458, 226.495 363.991 C 226.075 363.313, 223.968 364.627, 220.952 367.448 C 215.382 372.658, 212 373.419, 212 369.462 C 212 365.767, 218.063 350.657, 224.594 338.076 C 230.666 326.380, 231.001 323.634, 226.288 324.183 C 222.551 324.618, 220.401 328.140, 212.503 346.771 C 208.836 355.422, 205.085 363.346, 204.167 364.380 C 201.156 367.775, 194.777 371.204, 191.289 371.303 C 187.468 371.411, 186.039 369.913, 186.015 365.775 C 186.002 363.334, 186.286 363.107, 188.750 363.597 C 194.397 364.721, 203 355.270, 203 347.943 C 203 342.300, 196.374 340.255, 190.229 344.002 C 186.325 346.382, 181.712 353.336, 179.848 359.650 C 177.727 366.837, 168 374.516, 168 369.004 C 168 365.396, 172.179 354.712, 178.699 341.651 C 182.227 334.585, 184.975 327.839, 184.807 326.662 C 184.461 324.249, 182.325 323.546, 179.828 325.023 M 411.007 325.593 C 404.633 328.357, 400 334.211, 400 339.500 C 400 343.646, 402.346 347.093, 409.404 353.315 C 415.068 358.308, 416 359.603, 416 362.488 C 416 367.089, 411.463 371.526, 405.447 372.809 C 395.586 374.912, 390.861 370.261, 396.096 363.605 C 398.187 360.947, 398.091 358, 395.914 358 C 395.282 358, 393.018 359.747, 390.882 361.882 C 386.038 366.727, 385.585 371.323, 389.583 375.076 C 391.929 377.277, 393.008 377.500, 401.333 377.500 C 409.594 377.500, 410.975 377.221, 415.313 374.671 C 421.239 371.188, 423.991 366.910, 423.996 361.177 C 424 357.134, 423.482 356.312, 416 348.500 C 408.016 340.164, 406.916 337.893, 408.987 334.024 C 410.475 331.244, 416.334 328, 419.868 328 C 422.530 328, 423 328.370, 423 330.465 C 423 331.821, 421.635 334.485, 419.966 336.385 C 414.776 342.297, 420.111 342.630, 425.701 336.743 C 429.949 332.268, 430.480 329.880, 427.945 326.657 C 426.112 324.327, 425.156 324.005, 420.177 324.039 C 417.055 324.061, 412.928 324.760, 411.007 325.593 M 444.008 327.227 C 441.323 331.642, 429.171 359.014, 426.350 367 C 424.258 372.921, 424.197 373.608, 425.665 374.711 C 428.212 376.626, 430.365 374.782, 436.412 365.505 C 442.618 355.982, 449.557 348, 451.627 348 C 453.335 348, 453.563 347.037, 449.500 357 C 444.223 369.941, 444.934 375, 452.032 375 C 455.180 375, 456.817 374.257, 459.997 371.384 C 463.411 368.299, 464 368.056, 464 369.729 C 464 372.660, 467.205 375, 471.221 375 C 474.035 375, 475.835 374.055, 479.789 370.500 C 482.542 368.025, 485.545 366, 486.463 366 C 487.381 366, 489.002 365.534, 490.066 364.965 C 492.538 363.642, 492.500 364.071, 489.633 369.783 C 485.518 377.986, 479.868 393.213, 480.413 394.634 C 481.258 396.835, 485.788 396.261, 487.382 393.750 C 488.168 392.512, 490.492 387.194, 492.548 381.931 L 496.285 372.361 499.893 374.249 C 504.315 376.564, 512.111 376.004, 518.116 372.941 C 522.643 370.631, 528.827 364.728, 530.918 360.721 C 533.507 355.759, 531.038 356.558, 525.871 362.355 C 523.067 365.501, 519.018 368.971, 516.872 370.065 L 512.971 372.056 516.401 367.562 C 520.019 362.822, 524 353.457, 524 349.685 C 524 345.577, 521.281 343, 516.946 343 C 513.798 343, 512.170 343.754, 508.850 346.750 L 504.695 350.500 506.420 347.160 C 508.496 343.139, 507.842 340.740, 504.789 341.180 C 502.171 341.557, 498.792 346.256, 496.428 352.808 C 494.702 357.592, 490.038 363, 487.638 363 C 486.592 363, 486.695 361.877, 488.121 357.750 C 490.264 351.547, 490.411 348.997, 488.829 345.523 C 486.249 339.861, 477.446 341.414, 471.072 348.656 C 468.837 351.195, 466.043 355.920, 464.863 359.157 C 462.713 365.051, 457.491 371, 454.465 371 C 452.377 371, 452.574 369.802, 456.560 358.260 C 458.631 352.260, 459.857 347.125, 459.492 345.974 C 457.656 340.190, 450.379 342.008, 444.345 349.757 C 442.230 352.473, 439.482 356.001, 438.237 357.597 C 436.803 359.438, 437.499 357.389, 440.138 352 C 447.672 336.617, 451.823 326.703, 451.301 325.341 C 450.302 322.739, 446.072 323.833, 444.008 327.227 M 125.030 347.583 C 120.232 349.665, 118.176 351.726, 115.358 357.283 C 109.862 368.123, 113.155 373.998, 120.296 366.094 C 122.286 363.892, 124.884 360.157, 126.070 357.795 C 127.255 355.433, 129.132 352.510, 130.239 351.301 C 132.318 349.030, 132.052 345.970, 129.781 346.039 C 129.077 346.061, 126.938 346.756, 125.030 347.583 M 160.500 347.412 C 156.332 349.264, 153.555 352.545, 150.490 359.241 C 147.838 365.034, 147.496 370.016, 149.700 370.740 C 152.059 371.514, 159.988 362.803, 163.626 355.442 C 168.148 346.293, 167.391 344.349, 160.500 347.412 M 194.807 347.937 C 191.173 350.796, 187.231 358.631, 188.691 360.091 C 190.461 361.861, 195.425 357.820, 197.990 352.520 C 201.004 346.294, 199.553 344.204, 194.807 347.937 M 479.766 349.301 C 475.393 353.674, 471.716 361.400, 471.595 366.469 C 471.475 371.477, 473.512 372.123, 477.867 368.459 C 480.231 366.469, 481 364.999, 481 362.468 C 481 360.204, 481.676 358.640, 483.080 357.657 C 484.634 356.568, 485.202 355.003, 485.330 351.456 C 485.545 345.456, 484.151 344.916, 479.766 349.301 M 357.719 349.006 C 353.806 352.084, 344.852 365.962, 345.201 368.407 C 345.635 371.446, 350.530 371.790, 353.508 368.992 C 356.584 366.102, 362.194 354.549, 362.364 350.753 C 362.535 346.924, 361.068 346.372, 357.719 349.006 M 508.089 351.750 C 505.852 354.363, 502.629 359.109, 500.927 362.297 C 498.442 366.952, 498.070 368.380, 499.039 369.547 C 502.453 373.660, 508.006 369.445, 512.933 359 C 518.587 347.013, 515.763 342.787, 508.089 351.750" stroke="none" fill="#fff" fill-rule="evenodd"/>
</svg>