<?xml version="1.0" standalone="no"?>
<!DOCTYPE svg PUBLIC "-//W3C//DTD SVG 20010904//EN"
 "http://www.w3.org/TR/2001/REC-SVG-20010904/DTD/svg10.dtd">
<svg version="1.0" xmlns="http://www.w3.org/2000/svg"
 width="575.000000pt" height="463.000000pt" viewBox="0 0 575.000000 463.000000"
 preserveAspectRatio="xMidYMid meet">

<g transform="translate(0.000000,463.000000) scale(0.100000,-0.100000)"
fill="#000000" stroke="none">
<path d="M3622 3900 c-207 -55 -439 -224 -624 -453 -120 -149 -199 -275 -288
-459 -239 -493 -250 -835 -36 -1052 186 -188 503 -192 777 -10 156 103 360
329 457 506 44 79 50 106 30 126 -30 30 -57 14 -121 -74 -183 -255 -314 -388
-482 -489 -118 -70 -265 -94 -367 -59 -167 57 -244 279 -192 555 80 425 444
1021 740 1212 169 109 343 117 427 18 33 -39 41 -81 35 -179 -6 -88 -49 -207
-123 -337 -50 -87 -52 -96 -29 -119 40 -40 110 -5 167 83 125 193 175 402 130
541 -22 70 -96 150 -165 181 -75 32 -233 37 -336 9z"/>
<path d="M4955 3906 c-299 -59 -521 -290 -541 -565 -13 -176 53 -315 255 -536
117 -128 167 -195 202 -270 75 -159 38 -329 -103 -472 -125 -127 -322 -173
-479 -113 -141 53 -209 187 -180 355 17 96 46 167 97 234 48 64 56 104 24 121
-60 32 -199 -102 -263 -255 -139 -332 62 -604 446 -605 214 0 401 79 540 230
103 111 157 250 157 401 -1 178 -42 261 -251 500 -171 196 -216 296 -206 454
4 70 11 99 38 153 42 87 123 166 214 211 60 30 83 35 155 39 137 5 191 -36
198 -151 7 -106 -36 -238 -116 -355 -41 -61 -37 -85 17 -90 28 -3 40 5 94 60
102 105 157 236 157 379 0 128 -60 215 -179 260 -70 26 -187 32 -276 15z"/>
<path d="M1925 3896 c-326 -55 -622 -201 -831 -411 -81 -81 -109 -117 -141
-182 -106 -211 -69 -424 88 -504 86 -43 110 -6 63 93 -25 52 -29 73 -29 142 0
72 4 89 36 156 87 183 280 360 510 469 131 62 204 87 321 107 231 40 409 -22
485 -170 32 -62 43 -195 23 -285 -29 -135 -148 -324 -269 -429 -178 -155 -426
-254 -630 -251 -104 1 -112 -30 102 414 106 220 214 439 240 487 62 115 61
158 -3 158 -53 0 -110 -79 -322 -449 -233 -409 -660 -1281 -660 -1352 -1 -54
39 -120 86 -143 37 -18 40 -18 72 -1 39 21 46 34 129 255 60 160 135 345 192
471 l25 56 111 -4 c332 -14 670 116 916 352 252 241 328 508 217 758 -51 115
-174 207 -335 248 -99 26 -289 33 -396 15z"/>
<path d="M762 1380 c-80 -21 -136 -51 -152 -80 -25 -47 3 -106 38 -83 10 6 17
17 17 25 0 26 23 44 87 73 81 37 206 45 258 18 66 -34 47 -113 -44 -187 -41
-35 -139 -86 -164 -86 -7 0 10 44 43 110 56 111 60 140 21 140 -34 0 -69 -45
-129 -165 -104 -211 -129 -272 -117 -295 27 -50 70 -13 115 98 l29 68 59 11
c196 38 354 218 276 316 -43 56 -199 73 -337 37z"/>
<path d="M2663 1370 c-110 -55 -210 -200 -234 -337 -10 -54 -9 -67 7 -99 28
-55 62 -76 123 -76 66 0 143 37 218 105 34 31 54 44 49 32 -16 -41 -18 -85 -6
-100 23 -28 84 -19 134 20 45 34 46 34 46 11 0 -26 28 -56 54 -56 26 0 57 18
99 58 l37 36 0 -30 c0 -16 5 -35 12 -42 18 -18 69 -14 106 8 31 19 32 19 32 1
0 -28 30 -35 60 -13 26 19 26 19 50 0 69 -56 196 34 235 165 30 102 14 147
-53 147 -31 0 -44 -8 -94 -60 -32 -32 -58 -57 -58 -54 0 2 30 68 67 145 58
121 65 142 52 154 -23 23 -58 7 -80 -37 -11 -21 -47 -107 -80 -191 -49 -123
-68 -160 -101 -194 -41 -42 -61 -52 -72 -34 -6 10 29 98 73 184 30 58 31 81 6
90 -23 9 -53 -22 -92 -95 -41 -78 -138 -188 -167 -188 -26 0 -16 40 40 161 47
99 50 129 16 129 -27 0 -43 -22 -95 -125 -25 -49 -56 -100 -68 -111 -41 -36
-80 -58 -88 -48 -17 17 20 120 95 270 42 84 74 160 72 170 -2 11 -13 20 -24
22 -33 5 -74 -53 -129 -184 -46 -106 -56 -122 -119 -181 -108 -103 -210 -139
-257 -92 -18 18 -21 30 -17 73 8 102 105 265 187 317 50 32 73 36 91 14 16
-19 -1 -70 -36 -106 -28 -29 -25 -49 6 -49 20 0 77 60 91 97 26 70 -2 113 -78
120 -39 4 -59 -1 -110 -27z m959 -250 c-3 -42 -56 -151 -87 -180 -30 -28 -79
-24 -83 6 -2 12 18 52 48 97 77 115 128 147 122 77z"/>
<path d="M1798 1380 c-9 -6 -38 -49 -64 -98 -26 -48 -48 -88 -49 -90 -1 -1
-14 2 -28 9 -67 30 -163 -34 -218 -147 -44 -90 -139 -171 -139 -119 0 8 18 52
40 96 22 45 40 87 40 95 0 7 -16 29 -35 49 -29 28 -43 35 -76 35 -84 0 -157
-64 -199 -176 -38 -102 -22 -159 44 -157 36 1 106 43 106 64 0 5 4 9 10 9 5 0
7 -6 4 -14 -11 -29 15 -56 53 -56 34 0 103 35 103 53 0 4 5 7 10 7 6 0 10 -9
10 -20 0 -11 11 -27 25 -36 34 -22 74 -11 129 37 l46 41 0 -29 c0 -39 17 -53
62 -53 30 0 47 8 78 36 29 27 40 32 40 20 0 -9 11 -28 25 -41 43 -43 132 -30
203 29 l32 28 0 -25 c0 -54 75 -75 136 -38 39 24 88 86 79 101 -4 7 -25 -6
-55 -34 -56 -53 -90 -60 -90 -21 0 37 61 188 126 314 59 113 63 141 21 141
-41 0 -64 -37 -154 -255 -29 -71 -61 -138 -71 -148 -31 -35 -94 -69 -129 -70
-38 -1 -53 14 -53 55 0 25 3 27 28 22 56 -11 142 83 142 157 0 56 -66 76 -128
39 -39 -24 -85 -93 -104 -156 -21 -72 -118 -149 -118 -94 0 36 42 143 107 273
35 71 63 139 61 150 -3 25 -25 32 -50 17z m-481 -226 c3 -8 -3 -25 -15 -37
-11 -12 -29 -41 -41 -65 -32 -63 -90 -124 -115 -120 -17 3 -21 9 -19 40 3 42
41 124 70 150 20 19 80 47 101 48 7 0 15 -7 19 -16z m349 5 c12 -20 -63 -154
-111 -198 -51 -47 -68 -48 -73 -8 -4 31 39 131 71 166 36 39 99 62 113 40z
m329 1 c11 -17 -34 -98 -67 -121 -22 -16 -32 -19 -41 -10 -21 21 58 141 94
141 4 0 11 -5 14 -10z"/>
<path d="M4110 1374 c-64 -28 -110 -86 -110 -139 0 -41 23 -76 94 -138 56 -50
66 -63 66 -91 0 -45 -48 -92 -107 -104 -97 -21 -144 26 -92 92 21 27 20 56 -2
56 -6 0 -29 -17 -50 -39 -49 -48 -53 -94 -13 -132 23 -22 34 -24 117 -24 83 0
97 3 140 28 59 35 87 78 87 135 0 41 -5 49 -80 127 -80 83 -91 106 -70 145 15
28 73 60 109 60 26 0 31 -4 31 -25 0 -13 -14 -40 -30 -59 -52 -59 1 -62 57 -3
42 44 48 68 22 100 -18 24 -27 27 -77 27 -31 -1 -73 -8 -92 -16z"/>
<path d="M4442 1363 c-23 -34 -147 -314 -179 -403 -20 -59 -21 -66 -6 -77 25
-19 47 -1 107 92 62 95 132 175 152 175 17 0 20 10 -21 -90 -53 -129 -46 -180
25 -180 32 0 48 7 80 36 34 31 40 33 40 17 0 -30 32 -53 72 -53 28 0 46 9 86
45 27 25 57 45 67 45 9 0 25 5 36 10 24 14 24 9 -5 -48 -41 -82 -97 -234 -92
-248 8 -21 53 -17 69 6 8 11 31 64 52 118 l38 98 36 -18 c44 -24 122 -18 182
13 45 23 107 82 128 122 26 49 1 41 -50 -17 -28 -31 -69 -66 -90 -77 l-39 -20
34 45 c36 48 76 141 76 179 0 41 -27 67 -71 67 -31 0 -47 -8 -80 -37 l-42 -38
17 33 c21 41 14 65 -16 60 -26 -4 -60 -51 -84 -116 -17 -48 -64 -102 -88 -102
-10 0 -9 11 5 53 22 62 23 87 7 122 -26 56 -114 41 -177 -32 -23 -25 -51 -72
-62 -105 -22 -59 -74 -118 -104 -118 -21 0 -19 12 21 129 29 83 34 108 26 126
-25 54 -88 35 -149 -44 -21 -26 -48 -61 -60 -77 -12 -16 14 46 57 138 45 95
77 174 74 182 -10 26 -51 19 -72 -11z m411 -248 c-1 -35 -7 -51 -22 -62 -14
-9 -21 -25 -21 -48 0 -25 -8 -40 -31 -60 -44 -36 -64 -30 -63 20 1 51 38 128
82 172 44 44 57 38 55 -22z m307 18 c0 -36 -54 -150 -88 -185 -28 -31 -63 -36
-82 -13 -9 11 -6 25 19 72 65 121 151 193 151 126z"/>
</g>
</svg>
