<?xml version="1.0" encoding="UTF-8" standalone="no"?>
<!-- Uploaded to: SVG Repo, www.svgrepo.com, Generator: SVG Repo Mixer Tools -->

<svg
   fill="#000000"
   width="800px"
   height="800px"
   viewBox="0 0 100 100"
   data-name="Layer 1"
   id="Layer_1"
   version="1.1"
   sodipodi:docname="package-delivery-box-11-svgrepo-com.svg"
   inkscape:version="1.3 (0e150ed6c4, 2023-07-21)"
   xmlns:inkscape="http://www.inkscape.org/namespaces/inkscape"
   xmlns:sodipodi="http://sodipodi.sourceforge.net/DTD/sodipodi-0.dtd"
   xmlns="http://www.w3.org/2000/svg"
   xmlns:svg="http://www.w3.org/2000/svg">
  <defs
     id="defs20" />
  <sodipodi:namedview
     id="namedview20"
     pagecolor="#ffffff"
     bordercolor="#000000"
     borderopacity="0.25"
     inkscape:showpageshadow="2"
     inkscape:pageopacity="0.0"
     inkscape:pagecheckerboard="0"
     inkscape:deskcolor="#d1d1d1"
     inkscape:zoom="0.4275"
     inkscape:cx="-414.03509"
     inkscape:cy="497.07602"
     inkscape:window-width="2560"
     inkscape:window-height="1369"
     inkscape:window-x="2552"
     inkscape:window-y="-8"
     inkscape:window-maximized="1"
     inkscape:current-layer="Layer_1" />
  <path
     d="m 69.61,84.17 c -1.712959,-0.0033 -2.083027,-2.412833 -0.45,-2.93 l 2.345276,-0.447773 c 1.951506,-0.687849 4.80623,1.479315 2.812497,2.032975 L 70.06,84.1 c -0.145216,0.04756 -0.297198,0.07121 -0.45,0.07 z"
     id="path1"
     sodipodi:nodetypes="cccccc" />
  <path
     d="m 50,90.25 c -0.82191,0.02253 -1.500309,-0.637781 -1.5,-1.46 V 40 c -0.0028,-0.655797 0.423441,-1.236346 1.05,-1.43 L 87.43,26.76 c 0.456418,-0.141354 0.952738,-0.05987 1.34,0.22 0.383052,0.284332 0.609217,0.732954 0.61,1.21 l 0,26.502436 c 0,1.999999 -3,1.534798 -3,-0.465202 L 86.38,30.23 51.54,41.13 v 47.58 c 0.0056,0.852824 -0.687176,1.545592 -1.54,1.54 z"
     id="path2"
     sodipodi:nodetypes="cccccccsscccc" />
  <path
     d="M50,90.29a1.5,1.5,0,0,1-.45-2.93l19.57-6.12a1.5,1.5,0,1,1,.89,2.86L50.49,90.22A1.41,1.41,0,0,1,50,90.29Z"
     id="path3" />
  <path
     d="M 55.793649,81.29 A 1.293253,1.5 0 0 1 55.405673,78.36 L 67.329466,74 a 1.293253,1.5 0 1 1 0.775952,2.86 l -11.889307,4.36 a 1.2156579,1.41 0 0 1 -0.422462,0.07 z"
     id="path4"
     style="stroke-width:0.92853" />
  <path
     d="m 55.874261,74.29 a 1.3740202,1.5 0 0 1 -0.412205,-2.93 l 9.645621,-3.29 a 1.3760035,1.5021652 0 1 1 0.842732,2.86 l -9.627301,3.29 a 1.2915789,1.41 0 0 1 -0.448847,0.07 z"
     id="path5"
     style="stroke-width:0.957082" />
  <path
     d="M50,90.21a1.31,1.31,0,0,1-.44-.07L11.7,78.3a1.49,1.49,0,0,1-1.06-1.43V28.11a1.5,1.5,0,0,1,1.5-1.5,1.43,1.43,0,0,1,.46.07l10.27,3.2a1.52,1.52,0,0,1,1.05,1.44V51.94a1.55,1.55,0,0,1,.15,1.3,1.52,1.52,0,0,1-1.92.92l-.23-.08a1.51,1.51,0,0,1-1-1.42V32.42l-7.28-2.28V75.77l34.9,10.9V41.05L40.37,38.5V58a1.5,1.5,0,0,1-3,0V36.46A1.5,1.5,0,0,1,39.31,35l11.18,3.5a1.48,1.48,0,0,1,1,1.43V88.71a1.48,1.48,0,0,1-.61,1.21A1.5,1.5,0,0,1,50,90.21Z"
     id="path6" />
  <path
     d="M38.87,59.53a1.5,1.5,0,0,1-1.5-1.5V36.66a1.44,1.44,0,0,1,.05-.68,1.49,1.49,0,0,1,1.88-1,1.54,1.54,0,0,1,1.07,1.44V58A1.5,1.5,0,0,1,38.87,59.53Z"
     id="path7" />
  <path
     d="M22.65,54.24a1.74,1.74,0,0,1-.5-.08l-.23-.08a1.51,1.51,0,0,1-1-1.42V31.32a1.5,1.5,0,0,1,3,0V51.94a1.55,1.55,0,0,1,.15,1.3A1.52,1.52,0,0,1,22.65,54.24Z"
     id="path8" />
  <path
     d="M50,41.49A1.48,1.48,0,0,1,48.53,40V40a1.5,1.5,0,0,1,3,0A1.52,1.52,0,0,1,50,41.49Z"
     id="path9" />
  <path
     d="M12.16,29.6a1.5,1.5,0,0,1-.58-2.88l38-15.82a1.5,1.5,0,0,1,1.16,2.77l-38,15.82A1.44,1.44,0,0,1,12.16,29.6Z"
     id="path10" />
  <path
     d="M23.62,32.85A1.5,1.5,0,0,1,23,30l17.17-7.14a1.5,1.5,0,0,1,1.15,2.77L24.19,32.73A1.46,1.46,0,0,1,23.62,32.85Z"
     id="path11" />
  <path
     d="M38.83,37.94A1.48,1.48,0,0,1,37.45,37a1.5,1.5,0,0,1,.8-2l15.12-6.29a1.5,1.5,0,0,1,1.16,2.77L39.41,37.83A1.49,1.49,0,0,1,38.83,37.94Z"
     id="path12" />
  <path
     d="M61.75,18.66a1.51,1.51,0,0,1-.58-.12L49.62,13.66a1.5,1.5,0,1,1,1.16-2.76l11.56,4.88a1.5,1.5,0,0,1,.8,2A1.52,1.52,0,0,1,61.75,18.66Z"
     id="path13" />
  <path
     d="M87.89,29.69a1.51,1.51,0,0,1-.58-.12l-26.14-11a1.5,1.5,0,1,1,1.17-2.76l26.14,11a1.5,1.5,0,0,1-.59,2.88Z"
     id="path14" />
  <path
     d="M38.87,59.53a1.51,1.51,0,0,1-1.27-.7l-8-12.55a1.5,1.5,0,0,1,2.53-1.61l8,12.55a1.51,1.51,0,0,1-1.26,2.31Z"
     id="path15" />
  <path
     d="M22.65,54.24a1.47,1.47,0,0,1-1.12-.51,1.49,1.49,0,0,1,.13-2.11l8.21-7.27a1.5,1.5,0,0,1,2,2.25l-8.21,7.26A1.45,1.45,0,0,1,22.65,54.24Z"
     id="path16" />
  <path
     d="M54,31.65a1.5,1.5,0,0,1-.62-.13L40.2,25.59a1.5,1.5,0,0,1,1.23-2.73l13.14,5.92A1.5,1.5,0,0,1,54,31.65Z"
     id="path17" />
  <path
     d="M 82.041335,86.629379 A 17.537701,17.589387 0 1 1 99.532763,68.993582 17.560838,17.612592 0 0 1 82.041335,86.629379 Z m 0,-31.698025 A 14.06718,14.108638 0 1 0 96.062242,68.993582 14.078748,14.12024 0 0 0 82.041335,54.931354 Z"
     id="path18"
     style="stroke-width:1.15854" />
  <ellipse
     style="fill:none;fill-opacity:1;stroke-width:1.2125;stroke-opacity:0"
     id="path21"
     cx="74.173851"
     cy="57.426582"
     rx="16.850643"
     ry="16.592199" />
  <ellipse
     style="fill:none;fill-opacity:1;stroke-width:1.2125;stroke-opacity:0"
     id="path22"
     cx="85.261154"
     cy="70.633148"
     rx="5.7633338"
     ry="3.3856356" />
  <ellipse
     style="fill:#55d400;fill-opacity:1;stroke-width:1.17642;stroke-opacity:0"
     id="path23"
     cy="69.160004"
     cx="82.159813"
     rx="14.472945"
     ry="14.2145" />
  <path
     d="m 81.065336,75.058176 a 1.53,1.53 0 0 1 -1.07,-0.42 l -5.28,-5.3 a 1.5,1.5 0 0 1 2.12,-2.12 l 5.29,5.3 a 1.51,1.51 0 0 1 0,2.12 1.53,1.53 0 0 1 -1.06,0.42 z"
     id="path19" />
  <path
     d="m 81.065336,75.058176 a 1.51,1.51 0 0 1 -1.06,-2.57 l 8.91,-8.91 a 1.5,1.5 0 0 1 2.12,2.12 l -8.91,8.94 a 1.53,1.53 0 0 1 -1.06,0.42 z"
     id="path20" />
  <path
     style="fill:#55d400;fill-opacity:1;stroke-width:1.2125;stroke-opacity:0"
     id="path24"
     sodipodi:type="arc"
     sodipodi:cx="87.018585"
     sodipodi:cy="57.24567"
     sodipodi:rx="0.12922274"
     sodipodi:ry="1.1113155"
     sodipodi:start="0"
     sodipodi:end="0.89845261"
     sodipodi:open="true"
     sodipodi:arc-type="arc"
     d="m 87.147808,57.24567 a 0.12922274,1.1113155 0 0 1 -0.04874,0.869454" />
</svg>
