<?xml version="1.0" encoding="UTF-8" standalone="no"?>
<!-- Created with Inkscape (http://www.inkscape.org/) -->

<svg
   width="145.46129mm"
   height="158.8474mm"
   viewBox="0 0 145.46129 158.8474"
   version="1.1"
   id="svg1"
   inkscape:version="1.3 (0e150ed6c4, 2023-07-21)"
   sodipodi:docname="restore.svg"
   inkscape:dataloss="true"
   inkscape:export-filename="restore.png"
   inkscape:export-xdpi="96"
   inkscape:export-ydpi="96"
   xmlns:inkscape="http://www.inkscape.org/namespaces/inkscape"
   xmlns:sodipodi="http://sodipodi.sourceforge.net/DTD/sodipodi-0.dtd"
   xmlns="http://www.w3.org/2000/svg"
   xmlns:svg="http://www.w3.org/2000/svg"
   xmlns:serif="http://www.serif.com/">
  <sodipodi:namedview
     id="namedview1"
     pagecolor="#ffffff"
     bordercolor="#000000"
     borderopacity="0"
     inkscape:showpageshadow="2"
     inkscape:pageopacity="0.0"
     inkscape:pagecheckerboard="0"
     inkscape:deskcolor="#d1d1d1"
     inkscape:document-units="mm"
     showgrid="false"
     inkscape:zoom="0.52248527"
     inkscape:cx="-456.4722"
     inkscape:cy="649.77908"
     inkscape:window-width="2560"
     inkscape:window-height="1369"
     inkscape:window-x="-8"
     inkscape:window-y="3"
     inkscape:window-maximized="1"
     inkscape:current-layer="layer1"
     showguides="true">
    <inkscape:grid
       id="grid1"
       units="mm"
       originx="-148.02496"
       originy="-157.16758"
       spacingx="0.99999998"
       spacingy="1"
       empcolor="#0099e5"
       empopacity="0.30196078"
       color="#0099e5"
       opacity="0.14901961"
       empspacing="5"
       dotted="false"
       gridanglex="30"
       gridanglez="30"
       visible="false" />
  </sodipodi:namedview>
  <defs
     id="defs1" />
  <g
     inkscape:label="Calque 1"
     inkscape:groupmode="layer"
     id="layer1"
     style="display:inline"
     transform="translate(-39.164937,-41.583922)">
    <g
       id="Icons1"
       serif:id="Icons"
       transform="matrix(3.3072916,0,0,3.3072918,229.10267,-26.010926)"
       style="display:inline">&#10;&#10;<g
   id="Strike">&#10;&#10;</g>
&#10;&#10;<g
   id="H1">&#10;&#10;</g>
&#10;&#10;<g
   id="H2">&#10;&#10;</g>
&#10;&#10;<g
   id="H3">&#10;&#10;</g>
&#10;&#10;<g
   id="list-ul">&#10;&#10;</g>
&#10;&#10;<g
   id="hamburger-1">&#10;&#10;</g>
&#10;&#10;<g
   id="hamburger-2">&#10;&#10;</g>
&#10;&#10;<g
   id="list-ol">&#10;&#10;</g>
&#10;&#10;<g
   id="list-task">&#10;&#10;</g>
&#10;&#10;<g
   id="trash">&#10;&#10;</g>
&#10;&#10;<g
   id="vertical-menu">&#10;&#10;</g>
&#10;&#10;<g
   id="horizontal-menu">&#10;&#10;</g>
&#10;&#10;<g
   id="sidebar-2">&#10;&#10;</g>
&#10;&#10;<g
   id="Pen">&#10;&#10;</g>
&#10;&#10;<g
   id="Pen1"
   serif:id="Pen">&#10;&#10;</g>
&#10;&#10;<g
   id="clock">&#10;&#10;</g>
&#10;&#10;<g
   id="external-link">&#10;&#10;</g>
&#10;&#10;<g
   id="hr">&#10;&#10;</g>
&#10;&#10;<g
   id="info">&#10;&#10;</g>
&#10;&#10;<g
   id="warning">&#10;&#10;</g>
&#10;&#10;<g
   id="plus-circle">&#10;&#10;</g>
&#10;&#10;<g
   id="minus-circle">&#10;&#10;</g>
&#10;&#10;<g
   id="vue">&#10;&#10;</g>
&#10;&#10;<g
   id="cog">&#10;&#10;</g>
&#10;&#10;<g
   id="logo">&#10;&#10;</g>
&#10;&#10;<path
   d="m -17.889993,32.887377 v 29.11 c -0.043,3.347 -2.864,6.296 -6.277,6.427 -7.463,0.096 -14.927,0.002 -22.391,0.002 -3.396,-0.043 -6.385,-2.959 -6.429,-6.429 v -29.11 h -4.443 v -4 h 9.106 v -1.992 c 0.043,-3.347 2.865,-6.296 6.278,-6.428 3.071,-0.039 10.144,-0.039 13.215,0 3.346,0.129 6.234,3.013 6.277,6.428 v 1.992 h 9.106 v 4 z m -4,0 h -27.099 c -0.014,9.72 -0.122,19.44 0.003,29.159 0.048,1.251 1.125,2.331 2.379,2.379 7.445,0.096 14.892,0.096 22.337,0 1.273,-0.049 2.363,-1.162 2.38,-2.454 z m -11.545,28.938 h -4.005 v -19.109 l -7.414,7.413 -2.832,-2.832 12.246,-12.246 10e-4,10e-4 0.001,-10e-4 12.247,12.246 -2.833,2.832 -7.411,-7.411 z m 6.845,-32.938 c -0.014,-0.831 0,-1.973 0,-1.973 0,0 -0.059,-2.418 -2.344,-2.448 -3.003,-0.038 -10.007,-0.038 -13.01,0 -1.273,0.049 -2.363,1.163 -2.38,2.455 v 1.966 z"
   style="fill:#44aa00;fill-rule:nonzero"
   id="path1" />
&#10;&#10;<g
   id="radio-check">&#10;&#10;</g>
&#10;&#10;<g
   id="eye-slash">&#10;&#10;</g>
&#10;&#10;<g
   id="eye">&#10;&#10;</g>
&#10;&#10;<g
   id="toggle-off">&#10;&#10;</g>
&#10;&#10;<g
   id="shredder">&#10;&#10;</g>
&#10;&#10;<g
   id="spinner--loading--dots-"
   serif:id="spinner [loading, dots]">&#10;&#10;</g>
&#10;&#10;<g
   id="react">&#10;&#10;</g>
&#10;&#10;<g
   id="check-selected">&#10;&#10;</g>
&#10;&#10;<g
   id="turn-off">&#10;&#10;</g>
&#10;&#10;<g
   id="code-block">&#10;&#10;</g>
&#10;&#10;<g
   id="user">&#10;&#10;</g>
&#10;&#10;<g
   id="coffee-bean">&#10;&#10;</g>
&#10;&#10;<g
   id="coffee-beans">&#10;&#10;<g
   id="coffee-bean1"
   serif:id="coffee-bean">&#10;&#10;</g>
&#10;&#10;</g>
&#10;&#10;<g
   id="coffee-bean-filled">&#10;&#10;</g>
&#10;&#10;<g
   id="coffee-beans-filled">&#10;&#10;<g
   id="coffee-bean2"
   serif:id="coffee-bean">&#10;&#10;</g>
&#10;&#10;</g>
&#10;&#10;<g
   id="clipboard">&#10;&#10;</g>
&#10;&#10;<g
   id="clipboard-paste">&#10;&#10;</g>
&#10;&#10;<g
   id="clipboard-copy">&#10;&#10;</g>
&#10;&#10;<g
   id="Layer1">&#10;&#10;</g>
&#10;&#10;</g>
  </g>
</svg>
