<?xml version="1.0" encoding="UTF-8" standalone="no"?>
<!-- Created with Inkscape (http://www.inkscape.org/) -->

<svg
   width="159.16341mm"
   height="185.62175mm"
   viewBox="0 0 159.16341 185.62175"
   version="1.1"
   id="svg1"
   xml:space="preserve"
   sodipodi:docname="restore2.svg"
   xmlns:inkscape="http://www.inkscape.org/namespaces/inkscape"
   xmlns:sodipodi="http://sodipodi.sourceforge.net/DTD/sodipodi-0.dtd"
   xmlns:xlink="http://www.w3.org/1999/xlink"
   xmlns="http://www.w3.org/2000/svg"
   xmlns:svg="http://www.w3.org/2000/svg"
   xmlns:serif="http://www.serif.com/"><sodipodi:namedview
   id="namedview1"
   pagecolor="#ffffff"
   bordercolor="#000000"
   borderopacity="0.25"
   inkscape:showpageshadow="2"
   inkscape:pageopacity="0.0"
   inkscape:pagecheckerboard="0"
   inkscape:deskcolor="#d1d1d1"
   inkscape:document-units="mm"><inkscape:page
     x="-1.0502394e-05"
     y="-6.8557893e-07"
     width="159.16341"
     height="185.62175"
     id="page1"
     margin="0"
     bleed="0" /></sodipodi:namedview><defs
   id="defs1"><linearGradient
     id="linearGradient1"
     inkscape:collect="always"><stop
       style="stop-color:#ffffff;stop-opacity:1;"
       offset="0"
       id="stop1" /><stop
       style="stop-color:#ffffff;stop-opacity:0;"
       offset="1"
       id="stop2" /></linearGradient><radialGradient
     inkscape:collect="always"
     xlink:href="#linearGradient1"
     id="radialGradient2"
     cx="256"
     cy="79.999733"
     fx="256"
     fy="79.999733"
     r="48.500526"
     gradientTransform="matrix(1,0,0,0.34020792,0,52.783192)"
     gradientUnits="userSpaceOnUse" /></defs><g
   inkscape:label="Calque 1"
   inkscape:groupmode="layer"
   id="layer1"
   transform="translate(-25.368427,-55.689128)"><g
     style="fill:#aa0000;stroke:#f91515"
     id="g1"
     transform="matrix(0.41341146,0,0,0.41341146,-0.88320588,42.666666)"><g
       id="SVGRepo_bgCarrier"
       stroke-width="0"
       style="fill:#aa0000" /><g
       id="SVGRepo_tracerCarrier"
       stroke-linecap="round"
       stroke-linejoin="round"
       style="fill:#aa0000" /><g
       id="SVGRepo_iconCarrier"
       style="fill:#aa0000"><title
         id="title1">ionicons-v5-e</title><path
         d="m 296,64 h -80 a 7.91,7.91 0 0 0 -8,8 v 24 h 96 V 72 a 7.91,7.91 0 0 0 -8,-8 z"
         style="fill:#aa0000;fill-opacity:0;stroke:url(#radialGradient2);stroke-opacity:1"
         id="path1" /><path
         d="M 432,96 H 336 V 72 C 336,49.90861 318.09139,32 296,32 h -80 c -22.09139,0 -40,17.90861 -40,40 V 96 H 80 c -8.836562,0 -15.999993,7.16344 -15.999993,16 0,8.83656 7.163431,16 15.999993,16 h 17 l 19,304.92 c 1.42,26.85 22,47.08 48,47.08 h 184 c 26.13,0 46.3,-19.78 48,-47 l 19,-305 h 17 c 8.83656,0 15.99999,-7.16344 15.99999,-16 0,-8.83656 -7.16343,-16 -15.99999,-16 z M 192.57,416 H 192 c -8.61866,0.005 -15.69296,-6.81681 -16,-15.43 l -8,-224 c -0.31579,-8.83721 6.5927,-16.2569 15.42994,-16.57173 8.83723,-0.31483 16.25619,6.59446 16.57006,15.43173 l 8,224 c 0.32049,8.83868 -6.59092,16.26072 -15.43,16.57 z M 304,96 H 208 V 72 c -0.0508,-4.439151 3.56085,-8.050803 8,-8 h 80 c 4.43915,-0.0508 8.0508,3.560849 8,8 z m 32,304.57 c -0.30704,8.61319 -7.38134,15.43547 -16,15.43 h -0.58 c -8.83512,-0.31466 -15.74055,-7.73509 -15.42,-16.57 l 8,-224 c 0.31387,-8.83727 7.73283,-15.74656 16.57006,-15.43173 8.83724,0.31483 15.74573,7.73452 15.42994,16.57173 z"
         id="path2"
         style="fill:#aa0000;stroke:#ffffff;stroke-opacity:1"
         sodipodi:nodetypes="scsssscsssccssccsssccccscccccccccccccccscc" /></g></g></g>&#10;&#10;&#10;&#10;<g
   id="Icons1"
   serif:id="Icons"
   transform="matrix(1.7736537,0,0,2.2119285,22.890653,35.353559)"
   style="fill:#44aa00">&#10;&#10;<g
   id="Strike"
   style="fill:#44aa00">&#10;&#10;</g>&#10;&#10;<g
   id="H1"
   style="fill:#44aa00">&#10;&#10;</g>&#10;&#10;<g
   id="H2"
   style="fill:#44aa00">&#10;&#10;</g>&#10;&#10;<g
   id="H3"
   style="fill:#44aa00">&#10;&#10;</g>&#10;&#10;<g
   id="list-ul"
   style="fill:#44aa00">&#10;&#10;</g>&#10;&#10;<g
   id="hamburger-1"
   style="fill:#44aa00">&#10;&#10;</g>&#10;&#10;<g
   id="hamburger-2"
   style="fill:#44aa00">&#10;&#10;</g>&#10;&#10;<g
   id="list-ol"
   style="fill:#44aa00">&#10;&#10;</g>&#10;&#10;<g
   id="list-task"
   style="fill:#44aa00">&#10;&#10;</g>&#10;&#10;<g
   id="trash"
   style="fill:#44aa00">&#10;&#10;</g>&#10;&#10;<g
   id="vertical-menu"
   style="fill:#44aa00">&#10;&#10;</g>&#10;&#10;<g
   id="horizontal-menu"
   style="fill:#44aa00">&#10;&#10;</g>&#10;&#10;<g
   id="sidebar-2"
   style="fill:#44aa00">&#10;&#10;</g>&#10;&#10;<g
   id="Pen"
   style="fill:#44aa00">&#10;&#10;</g>&#10;&#10;<g
   id="Pen1"
   serif:id="Pen"
   style="fill:#44aa00">&#10;&#10;</g>&#10;&#10;<g
   id="clock"
   style="fill:#44aa00">&#10;&#10;</g>&#10;&#10;<g
   id="external-link"
   style="fill:#44aa00">&#10;&#10;</g>&#10;&#10;<g
   id="hr"
   style="fill:#44aa00">&#10;&#10;</g>&#10;&#10;<g
   id="info"
   style="fill:#44aa00">&#10;&#10;</g>&#10;&#10;<g
   id="warning"
   style="fill:#44aa00">&#10;&#10;</g>&#10;&#10;<g
   id="plus-circle"
   style="fill:#44aa00">&#10;&#10;</g>&#10;&#10;<g
   id="minus-circle"
   style="fill:#44aa00">&#10;&#10;</g>&#10;&#10;<g
   id="vue"
   style="fill:#44aa00">&#10;&#10;</g>&#10;&#10;<g
   id="cog"
   style="fill:#44aa00">&#10;&#10;</g>&#10;&#10;<g
   id="logo"
   style="fill:#44aa00">&#10;&#10;</g>&#10;&#10;<path
   id="arrow-up"
   d="M 29.991,15.547 22.578,22.96 19.746,20.128 31.992,7.882 31.993,7.883 31.994,7.882 44.24,20.128 41.408,22.96 33.997,15.549 v 40.334 h -4.006 z"
   style="fill:#44aa00" />&#10;&#10;<path
   d="M 29.991,15.547 22.578,22.96 19.746,20.128 31.992,7.882 h 0.002 L 44.24,20.128 41.408,22.96 33.997,15.549 v 40.334 h -4.006 z m 2.001,-4.837 -9.418,9.418 0.004,0.004 5.999,-5.999 3.414,1.414 v 38.336 h 0.006 V 15.549 l 3.414,-1.415 5.997,5.998 0.004,-0.004 -9.418,-9.418 z"
   id="path1-4"
   style="fill:#44aa00" />&#10;&#10;<g
   id="radio-check"
   style="fill:#44aa00">&#10;&#10;</g>&#10;&#10;<g
   id="eye-slash"
   style="fill:#44aa00">&#10;&#10;</g>&#10;&#10;<g
   id="eye"
   style="fill:#44aa00">&#10;&#10;</g>&#10;&#10;<g
   id="toggle-off"
   style="fill:#44aa00">&#10;&#10;</g>&#10;&#10;<g
   id="shredder"
   style="fill:#44aa00">&#10;&#10;</g>&#10;&#10;<g
   id="spinner--loading--dots-"
   serif:id="spinner [loading, dots]"
   style="fill:#44aa00">&#10;&#10;</g>&#10;&#10;<g
   id="react"
   style="fill:#44aa00">&#10;&#10;</g>&#10;&#10;<g
   id="check-selected"
   style="fill:#44aa00">&#10;&#10;</g>&#10;&#10;<g
   id="turn-off"
   style="fill:#44aa00">&#10;&#10;</g>&#10;&#10;<g
   id="code-block"
   style="fill:#44aa00">&#10;&#10;</g>&#10;&#10;<g
   id="user"
   style="fill:#44aa00">&#10;&#10;</g>&#10;&#10;<g
   id="coffee-bean"
   style="fill:#44aa00">&#10;&#10;</g>&#10;&#10;<g
   id="coffee-beans"
   style="fill:#44aa00">&#10;&#10;<g
   id="coffee-bean1"
   serif:id="coffee-bean"
   style="fill:#44aa00">&#10;&#10;</g>&#10;&#10;</g>&#10;&#10;<g
   id="coffee-bean-filled"
   style="fill:#44aa00">&#10;&#10;</g>&#10;&#10;<g
   id="coffee-beans-filled"
   style="fill:#44aa00">&#10;&#10;<g
   id="coffee-bean2"
   serif:id="coffee-bean"
   style="fill:#44aa00">&#10;&#10;</g>&#10;&#10;</g>&#10;&#10;<g
   id="clipboard"
   style="fill:#44aa00">&#10;&#10;</g>&#10;&#10;<g
   id="clipboard-paste"
   style="fill:#44aa00">&#10;&#10;</g>&#10;&#10;<g
   id="clipboard-copy"
   style="fill:#44aa00">&#10;&#10;</g>&#10;&#10;<g
   id="Layer1"
   style="fill:#44aa00">&#10;&#10;</g>&#10;&#10;</g>&#10;&#10;</svg>
