<?xml version="1.0" encoding="UTF-8" standalone="no"?>
<!-- Uploaded to: SVG Repo, www.svgrepo.com, Generator: SVG Repo Mixer Tools -->

<svg
   fill="#000000"
   height="800px"
   width="800px"
   version="1.1"
   id="Layer_1"
   viewBox="0 0 512 512"
   xml:space="preserve"
   sodipodi:docname="tie.svg"
   inkscape:version="1.3 (0e150ed6c4, 2023-07-21)"
   xmlns:inkscape="http://www.inkscape.org/namespaces/inkscape"
   xmlns:sodipodi="http://sodipodi.sourceforge.net/DTD/sodipodi-0.dtd"
   xmlns="http://www.w3.org/2000/svg"
   xmlns:svg="http://www.w3.org/2000/svg"><defs
   id="defs4" /><sodipodi:namedview
   id="namedview4"
   pagecolor="#ffffff"
   bordercolor="#000000"
   borderopacity="0.25"
   inkscape:showpageshadow="2"
   inkscape:pageopacity="0.0"
   inkscape:pagecheckerboard="0"
   inkscape:deskcolor="#d1d1d1"
   inkscape:zoom="2"
   inkscape:cx="415.25"
   inkscape:cy="321.75"
   inkscape:window-width="2560"
   inkscape:window-height="1369"
   inkscape:window-x="2552"
   inkscape:window-y="-8"
   inkscape:window-maximized="1"
   inkscape:current-layer="Layer_1" />&#10;<g
   id="g2">&#10;	<g
   id="g1">&#10;		<path
   d="M333.161,422.777l-34.126-176.991c-0.882-4.574-5.302-7.566-9.878-6.684c-4.574,0.882-7.567,5.305-6.684,9.878    l33.348,172.958L256,490.714l-24.81-28.523c-3.057-3.515-8.385-3.885-11.899-0.829c-3.515,3.057-3.885,8.385-0.829,11.899    l31.174,35.84C251.239,510.943,253.56,512,256,512c2.441,0,4.761-1.057,6.364-2.899l68.879-79.191    C332.945,427.953,333.652,425.323,333.161,422.777z"
   id="path1" />&#10;	</g>&#10;</g>&#10;<g
   id="g4">&#10;	<g
   id="g3">&#10;		<path
   d="m 382.828,1.936 c -2.834,-2.344 -6.857,-2.583 -9.948,-0.59 L 255.998,76.702 139.118,1.346 c -3.09,-1.992 -7.113,-1.753 -9.948,0.59 -2.833,2.344 -3.82,6.253 -2.443,9.66 l 55.396,136.982 c 1.028,2.54 3.226,4.424 5.895,5.049 0.636,0.15 1.283,0.223 1.924,0.223 2.041,0 4.041,-0.742 5.599,-2.128 l 15.268,-13.563 12.646,53.148 -44.617,231.471 c -0.491,2.546 0.216,5.175 1.917,7.131 l 37.707,43.352 c 1.668,1.919 -1.5811,-4.46417 0.7749,-4.46417 1.962,0 1.46637,-3.731 3.06337,-5.12 3.515,-3.058 11.94573,2.02817 8.88973,-1.48583 l -35.012,-40.253 42.863,-222.37 h 33.903 l 10.41623,54.01361 c 0.777,4.035 2.11929,-10.52192 6.08129,-10.52192 0.53,0 6.69875,6.58683 2.91774,0.15464 4.574,-0.882 8.60897,12.59159 7.72597,8.01859 L 288.533,191.326 l 12.649,-53.168 15.273,13.567 c 1.561,1.385 3.558,2.128 5.6,2.128 0.641,0 1.288,-0.073 1.924,-0.223 2.669,-0.625 4.867,-2.509 5.895,-5.049 L 385.27,11.599 c 1.379,-3.411 0.391,-7.319 -2.442,-9.663 z M 193.281,131.173 152.344,29.943 242.098,87.808 Z M 273.248,182.7 H 238.747 L 225.124,125.445 256,98.018 286.869,125.44 Z m 45.471,-51.527 -48.816,-43.365 89.753,-57.865 z"
   id="path2"
   sodipodi:nodetypes="ccccccccsccccccsccccccscccccscccccccccccccccccc" />&#10;	</g>&#10;</g>&#10;<path
   style="fill:#483737;fill-opacity:1;stroke-width:0.682012"
   d="m 372.91667,311.69011 c -17.53536,89.51228 -34.59973,179.18565 -51.872,268.77479 -4.75594,26.02115 -10.37062,51.91077 -14.2099,78.08556 -0.25951,3.87492 4.32778,5.92113 6.07384,8.98148 28.74581,33.08364 57.2126,66.43606 86.52527,99.01351 3.01345,0.10556 4.36186,-4.17371 6.63208,-5.8391 29.43321,-33.70258 58.94619,-67.36203 87.61478,-101.71099 -2.13812,-15.06797 -5.62712,-30.1006 -8.30456,-45.14704 -19.29204,-100.57345 -38.77245,-201.11059 -58.07172,-301.68267 -3.19225,-2.01527 -8.11269,-0.29337 -11.95919,-0.86583 -14.05067,0.19691 -28.27811,-0.3929 -42.21897,0.29088 z"
   id="path4"
   transform="scale(0.64)" /><path
   style="fill:#483737;fill-opacity:1;stroke-width:0.682012"
   d="m 399.4432,153.2662 c -15.98543,13.67257 -31.76173,27.60192 -47.4278,41.64136 -0.69513,4.0671 1.63919,8.40251 2.0599,12.5355 5.89807,26.01942 11.74929,52.05698 18.34717,77.90967 3.2915,1.87092 8.08689,0.25528 11.94321,0.79523 14.24377,-0.19479 28.66293,0.38965 42.79708,-0.29221 3.8694,-12.40747 6.25867,-25.64124 9.5447,-38.36261 3.77884,-17.16099 8.7574,-34.1243 11.43166,-51.49463 -1.13216,-3.40242 -5.29856,-5.0885 -7.57691,-7.8039 -13.2496,-11.69773 -26.41894,-23.49868 -39.89219,-34.9364 -0.38932,0.13957 -0.87648,-0.40365 -1.22682,0.008 z"
   id="path5"
   transform="scale(0.64)" /><path
   style="fill:#483737;fill-opacity:1;stroke-width:0.682012"
   d="m 238.40047,48.245684 c 5.5813,15.879946 12.4598,31.449196 18.58991,47.186997 14.76648,36.322909 29.16465,72.811199 44.57345,108.865859 2.63724,1.27661 4.56871,-3.06277 6.81261,-4.21036 22.36361,-19.96611 45.20345,-39.42741 66.98188,-60.03197 1.70206,-1.77447 1.68934,-1.76316 2.91981,-2.85621 -45.12451,-29.279 -92.94332,-60.810279 -138.36711,-89.620343 -0.75589,-0.233902 -1.12403,0.06588 -1.51055,0.666027 z"
   id="path6"
   transform="scale(0.64)"
   sodipodi:nodetypes="cccccccc" /><path
   style="fill:#483737;fill-opacity:1;stroke-width:0.682012"
   d="m 560.12761,47.570332 c -46.34684,29.228678 -92.21607,59.218718 -138.32587,88.825388 -0.93669,3.25657 4.82539,4.8367 6.41958,7.4284 22.95526,20.28428 45.63036,40.89389 68.79221,60.93931 2.99252,-0.01 2.72219,-4.84616 4.28709,-6.81579 20.32937,-49.62916 40.69899,-99.253007 60.31623,-149.163806 0.15371,-0.852664 -0.74557,-1.521225 -1.48924,-1.213502 z"
   id="path7"
   transform="scale(0.64)" /><path
   style="fill:#483737;fill-opacity:1;stroke-width:0.64"
   d="m 218.1283,312.25836 c 2.1644,-2.1644 1.15408,-1.26192 4.52549,-3.84667 1.19714,-0.91781 2.3528,-1.89749 3.62038,-2.71529 3.05228,-1.96921 6.52232,-3.30457 9.72979,-4.97803 1.4681,-0.76597 2.93466,-1.55089 4.29921,-2.48901 0.57302,-0.39396 1.01806,-0.95347 1.58391,-1.35765 0.49483,-0.35344 1.08395,-0.55896 1.58393,-0.9051 0.96868,-0.67062 1.88219,-1.42964 2.71529,-2.26274 0.53333,-0.53333 0.8243,-1.27686 1.35764,-1.81019 0.51625,-0.51625 1.06767,-0.84139 1.58392,-1.35765 0.11926,-0.11926 0.10702,-0.33329 0.22628,-0.45254 0.45879,-0.4588 1.12512,-0.67258 1.58391,-1.13137 0.1923,-0.1923 0.26025,-0.48653 0.45255,-0.67883 0.26667,-0.26667 0.63843,-0.41216 0.9051,-0.67882 0.19229,-0.19229 0.24607,-0.50184 0.45255,-0.67882 0.33392,-0.28622 0.79745,-0.39261 1.13137,-0.67882 0.20647,-0.17699 0.25041,-0.49691 0.45255,-0.67883 5.35145,-4.81631 9.26304,-5.55442 18.55448,-7.0145 0.0721,-0.0113 -0.0433,3.14447 0,3.62039 0.13947,1.53415 0.49866,3.2615 0.90509,4.75176 0.12552,0.46022 0.37413,0.8871 0.45255,1.35764 0.0744,0.44639 -0.0376,0.90666 0,1.35765 0.164,1.96802 0.40048,3.93467 0.67883,5.88313 0.0274,0.19179 0.11018,2.75792 0,2.94156 -0.16464,0.2744 -0.45255,0.45255 -0.67883,0.67882 -0.45255,0.45255 -0.82513,1.00264 -1.35764,1.35765 -2.21184,1.47456 -6.29757,2.40003 -8.82469,2.94156 -1.14492,0.24534 -2.23914,0.7126 -3.39412,0.9051 -0.22319,0.0372 -0.46125,-0.0621 -0.67882,0 -0.32433,0.0927 -0.5851,0.34588 -0.9051,0.45255 -0.61048,0.20349 -1.40665,0.10031 -2.03646,0.22627 -0.58688,0.11738 -1.19502,0.36467 -1.8102,0.45255 -1.13233,0.16176 -2.48852,0 -3.62038,0 -0.52798,0 -1.06727,0.10877 -1.58392,0 -1.36093,-0.28651 -2.70674,-0.64487 -4.07294,-0.9051 -2.14045,-0.40771 0.82512,0.50131 -1.35765,-0.22627"
   id="path8" /></svg>
