<!DOCTYPE svg PUBLIC "-//W3C//DTD SVG 1.1//EN" "http://www.w3.org/Graphics/SVG/1.1/DTD/svg11.dtd">
<!-- Uploaded to: SVG Repo, www.svgrepo.com, Transformed by: SVG Repo Mixer Tools -->
<svg width="800px" height="800px" viewBox="0 0 24 24" xmlns="http://www.w3.org/2000/svg" fill="#000000" stroke="#000000" stroke-width="0.00024000000000000003">
<g id="SVGRepo_bgCarrier" stroke-width="0"/>
<g id="SVGRepo_tracerCarrier" stroke-linecap="round" stroke-linejoin="round"/>
<g id="SVGRepo_iconCarrier"> <defs> <style>.cls-1{fill:#231f20;}</style> </defs> <title/> <g id="Card"> <path class="cls-1" d="M15.88,2.52A1,1,0,0,0,15,2H9a1,1,0,0,0-.86,1.5L9.71,6.2,8,17.86a1,1,0,0,0,.28.85l3,3a1,1,0,0,0,1.41,0l3-3a1,1,0,0,0,.28-.87L14.11,6.22l1.73-2.68A1,1,0,0,0,15.88,2.52ZM13.16,4l-.65,1H11.32l-.58-1ZM12,19.59l-1.94-1.94L11.61,7h.59l1.72,10.65Z"/> </g> </g>
</svg>